<?xml version="1.0" encoding="utf-8"?>
<!-- Generator: Adobe Illustrator 25.2.1, SVG Export Plug-In . SVG Version: 6.00 Build 0)  -->
<svg version="1.1" id="Layer_1" xmlns="http://www.w3.org/2000/svg" xmlns:xlink="http://www.w3.org/1999/xlink" x="0px" y="0px"
	 viewBox="0 0 312.8 55.5" style="enable-background:new 0 0 312.8 55.5;" xml:space="preserve">
<style type="text/css">
	.st0{fill:#FFFFFF;}
	.st1{fill:#FF5543;}
	.st2{fill:#A112FF;}
	.st3{fill:#00CBEC;}
</style>
<g>
	<g>
		<path class="st0" d="M42.8,10.2c0.7-0.6,1.5-1,2.4-1.1c1.7-0.3,3.6,0.3,4.8,1.7c1.8,2.2,1.6,5.4-0.6,7.2l-7.6,6.5l-5.6-2l-2.1-0.7
			l-3.5-1.2l2.8-2.4l1.7-1.4L42.8,10.2z"/>
		<path class="st0" d="M17.4,45.3c-0.7,0.6-1.5,1-2.4,1.1c-1.7,0.3-3.6-0.3-4.8-1.7c-1.8-2.2-1.6-5.4,0.6-7.2l7.6-6.5l5.6,2l2.1,0.7
			l3.5,1.2l-2.8,2.4L25,38.8L17.4,45.3z"/>
	</g>
	<g>
		<path class="st0" d="M21.2,7.9c-0.5-2.8,1.3-5.5,4.1-6s5.5,1.3,6,4.1l1.8,9.8l-4.5,3.8l-5.6-2L21.2,7.9z"/>
		<path class="st0" d="M39,47.5c0.5,2.8-1.3,5.5-4.1,6c-2.8,0.5-5.5-1.3-6-4.1l-1.8-9.8l4.5-3.8l5.6,2L39,47.5z"/>
	</g>
	<path class="st0" d="M54.8,36.5c-0.6,1.8-2.2,3-3.9,3.3c-0.9,0.2-1.8,0.1-2.6-0.2l-9.4-3.3l-2.1-0.7l-3.5-1.2l-2.1-0.7l-5.6-2
		l-2.1-0.7L20,29.6l-2.1-0.7l-9.4-3.3c-2.7-0.9-4.1-3.9-3.1-6.6c0.6-1.8,2.2-3,3.9-3.3c0.9-0.2,1.8-0.1,2.6,0.2l9.4,3.3l2.1,0.7
		l3.5,1.2l2.1,0.7l5.6,2l2.1,0.7l3.5,1.2l2.1,0.7l9.4,3.3C54.4,30.9,55.8,33.8,54.8,36.5z"/>
</g>
<g>
	<path class="st0" d="M84.1,34.8c0-1-0.4-1.8-1.1-2.4c-0.7-0.6-1.6-1.2-2.7-1.7c-1.1-0.5-2.3-1-3.6-1.6c-1.3-0.5-2.5-1.2-3.6-2
		c-1.1-0.8-2-1.8-2.7-3c-0.7-1.2-1.1-2.7-1.1-4.5c0-1.6,0.3-3,0.8-4.1c0.5-1.2,1.3-2.1,2.3-2.9c1-0.8,2.1-1.3,3.5-1.7
		c1.3-0.4,2.8-0.6,4.5-0.6c1.9,0,3.7,0.2,5.3,0.5s3.1,0.8,4.1,1.4l-2,5.3c-0.7-0.4-1.7-0.8-3.1-1.2c-1.4-0.4-2.8-0.5-4.4-0.5
		c-1.5,0-2.6,0.3-3.4,0.9c-0.8,0.6-1.2,1.4-1.2,2.4c0,0.9,0.4,1.7,1.1,2.3c0.7,0.6,1.6,1.2,2.7,1.7c1.1,0.5,2.3,1.1,3.6,1.6
		c1.3,0.6,2.5,1.2,3.6,2c1.1,0.8,2,1.8,2.7,2.9c0.7,1.2,1.1,2.6,1.1,4.3c0,1.7-0.3,3.2-0.9,4.5c-0.6,1.3-1.4,2.3-2.4,3.1
		c-1,0.8-2.3,1.5-3.8,1.9c-1.5,0.4-3.1,0.6-4.9,0.6c-2.3,0-4.4-0.2-6.1-0.7c-1.8-0.4-3.1-0.9-3.9-1.3l2-5.4c0.3,0.2,0.8,0.4,1.3,0.6
		c0.5,0.2,1.2,0.4,1.8,0.6c0.7,0.2,1.4,0.3,2.2,0.5c0.8,0.1,1.5,0.2,2.3,0.2c1.9,0,3.3-0.3,4.3-1C83.6,37.1,84.1,36.1,84.1,34.8z"/>
	<path class="st0" d="M93.2,31.9c0-3.9,1-7,2.9-9.1c1.9-2.1,4.6-3.2,8.1-3.2c1.9,0,3.5,0.3,4.8,0.9c1.4,0.6,2.5,1.4,3.4,2.5
		c0.9,1.1,1.6,2.4,2,3.9c0.4,1.5,0.7,3.2,0.7,5c0,3.9-1,7-2.9,9.1c-1.9,2.1-4.6,3.2-8.1,3.2c-1.9,0-3.5-0.3-4.8-0.9
		c-1.4-0.6-2.5-1.4-3.4-2.5c-0.9-1.1-1.6-2.4-2-3.9C93.4,35.4,93.2,33.7,93.2,31.9z M99.4,31.9c0,1,0.1,2,0.3,2.8
		c0.2,0.9,0.5,1.6,0.8,2.3c0.4,0.7,0.9,1.2,1.5,1.5c0.6,0.4,1.3,0.5,2.2,0.5c1.6,0,2.8-0.6,3.5-1.7c0.8-1.1,1.2-3,1.2-5.4
		c0-2.1-0.4-3.9-1.1-5.2c-0.7-1.3-1.9-2-3.6-2c-1.5,0-2.7,0.6-3.5,1.7C99.8,27.5,99.4,29.4,99.4,31.9z"/>
	<path class="st0" d="M124.1,20.3v13.2c0,1.9,0.2,3.3,0.7,4.1c0.4,0.8,1.3,1.3,2.6,1.3c1.1,0,2.1-0.3,2.9-1c0.8-0.7,1.3-1.5,1.7-2.5
		v-15h6v16.2c0,1.3,0.1,2.5,0.2,3.7c0.1,1.2,0.3,2.3,0.6,3.3h-4.6l-1.1-3.4H133c-0.7,1.2-1.7,2.2-3,2.9c-1.3,0.8-2.8,1.2-4.5,1.2
		c-1.2,0-2.2-0.2-3.2-0.5c-0.9-0.3-1.7-0.8-2.3-1.5c-0.6-0.7-1.1-1.7-1.4-2.9s-0.5-2.7-0.5-4.6V20.3H124.1z"/>
	<path class="st0" d="M155.6,26c-1-0.3-1.8-0.5-2.6-0.5c-1.1,0-2,0.3-2.7,0.9c-0.7,0.6-1.2,1.3-1.5,2.2v15h-6V20.3h4.7l0.7,3.1h0.2
		c0.5-1.1,1.2-2,2.1-2.7s2-0.9,3.2-0.9c0.8,0,2.5,0.4,3.4,0.8L155.6,26z"/>
	<path class="st0" d="M175.2,42.1c-0.9,0.7-2.1,1.2-3.4,1.6c-1.3,0.4-2.7,0.5-4.1,0.5c-1.9,0-3.4-0.3-4.7-0.9
		c-1.3-0.6-2.3-1.4-3.1-2.5c-0.8-1.1-1.4-2.4-1.7-3.9c-0.4-1.5-0.5-3.2-0.5-5c0-3.9,0.9-7,2.7-9.1c1.8-2.1,4.3-3.2,7.7-3.2
		c1.7,0,3.1,0.1,4.1,0.4c1,0.3,2,0.6,2.8,1.1l-1.4,4.9c-0.7-0.3-1.4-0.6-2.1-0.8c-0.7-0.2-1.5-0.3-2.4-0.3c-1.7,0-2.9,0.6-3.8,1.7
		c-0.9,1.1-1.3,2.9-1.3,5.3c0,1,0.1,1.9,0.3,2.7s0.5,1.6,1,2.2c0.4,0.6,1,1.1,1.7,1.5c0.7,0.4,1.5,0.5,2.4,0.5c1,0,1.9-0.1,2.6-0.4
		c0.7-0.3,1.3-0.6,1.9-1L175.2,42.1z"/>
	<path class="st0" d="M196.5,41.5c-0.9,0.7-2.2,1.4-3.8,1.9c-1.6,0.5-3.3,0.8-5.1,0.8c-3.8,0-6.5-1.1-8.2-3.3
		c-1.7-2.2-2.6-5.2-2.6-9c0-4.1,1-7.2,2.9-9.2s4.7-3.1,8.2-3.1c1.2,0,2.3,0.2,3.4,0.5s2.1,0.8,3,1.5s1.6,1.7,2.1,2.9
		c0.5,1.2,0.8,2.7,0.8,4.5c0,0.7,0,1.3-0.1,2.1c-0.1,0.7-0.2,1.5-0.3,2.3h-14c0.1,2,0.6,3.4,1.5,4.4c0.9,1,2.4,1.5,4.4,1.5
		c1.3,0,2.4-0.2,3.4-0.6c1-0.4,1.8-0.8,2.3-1.2L196.5,41.5z M187.8,24.5c-1.6,0-2.8,0.5-3.5,1.4c-0.8,0.9-1.2,2.2-1.4,3.8h8.6
		c0.1-1.7-0.1-3-0.8-3.9C190.2,24.9,189.2,24.5,187.8,24.5z"/>
	<path class="st0" d="M220.7,43.5c0,3.4-0.9,5.9-2.7,7.5s-4.4,2.4-7.7,2.4c-2.2,0-4-0.2-5.3-0.5s-2.3-0.6-2.9-1l1.3-4.8
		c0.7,0.3,1.5,0.6,2.5,0.8s2.1,0.4,3.5,0.4c2.1,0,3.5-0.5,4.3-1.4c0.8-0.9,1.1-2.2,1.1-3.8v-1.5h-0.2c-1.1,1.5-3,2.2-5.8,2.2
		c-3,0-5.2-0.9-6.7-2.8c-1.5-1.9-2.2-4.8-2.2-8.7c0-4.2,1-7.3,3-9.4c2-2.1,4.9-3.2,8.6-3.2c2,0,3.8,0.1,5.3,0.4s2.8,0.6,3.8,1V43.5z
		 M210.4,39.1c1.2,0,2.1-0.3,2.7-0.8c0.6-0.5,1.1-1.3,1.5-2.4V25.5c-1-0.4-2.2-0.6-3.6-0.6c-1.6,0-2.8,0.6-3.6,1.7
		c-0.9,1.2-1.3,3-1.3,5.6c0,2.3,0.4,4,1.1,5.2C208,38.5,209,39.1,210.4,39.1z"/>
	<path class="st0" d="M238.1,26c-1-0.3-1.8-0.5-2.6-0.5c-1.1,0-2,0.3-2.7,0.9c-0.7,0.6-1.2,1.3-1.5,2.2v15h-6V20.3h4.7l0.7,3.1h0.2
		c0.5-1.1,1.2-2,2.1-2.7s2-0.9,3.2-0.9c0.8,0,1.7,0.2,2.7,0.5L238.1,26z"/>
	<path class="st0" d="M241.1,21.4c1.2-0.6,2.1-0.8,3.8-1.1c1.7-0.3,3.5-0.5,5.3-0.5c1.6,0,3,0.2,4,0.6s1.9,0.9,2.6,1.7
		c0.6,0.7,1.1,1.6,1.3,2.6c0.3,1,0.4,2.1,0.4,3.3c0,1.4,0,2.7-0.1,4.1c-0.1,1.4-0.1,2.7-0.2,4.1c0,1.3,0,2.6,0.1,3.9
		s0.3,2.4,0.7,3.6h-4.9l-1-3.2H253c-0.6,1-1.5,1.8-2.6,2.5c-1.1,0.7-2.5,1-4.3,1c-1.1,0-2.1-0.2-2.9-0.5c-0.9-0.3-1.6-0.8-2.2-1.4
		s-1.1-1.3-1.4-2.1c-0.3-0.8-0.5-1.7-0.5-2.8c0-1.4,0.3-2.6,1-3.6s1.5-1.8,2.7-2.4c1.2-0.6,2.6-1,4.3-1.3s3.5-0.3,5.6-0.2
		c0.2-1.7,0.1-3-0.4-3.7c-0.5-0.8-1.5-1.1-3.1-1.1c-1.2,0-2.5,0.1-3.8,0.4s-1.9,0.4-2.7,0.8L241.1,21.4z M248.2,38.9
		c1.2,0,2.2-0.3,2.9-0.8c0.7-0.5,1.2-1.1,1.6-1.7v-3c-1-0.1-1.9-0.1-2.8,0c-0.9,0.1-1.7,0.2-2.3,0.4s-1.2,0.5-1.6,0.9
		c-0.4,0.4-0.6,0.9-0.6,1.5c0,0.9,0.3,1.5,0.8,2C246.6,38.7,247.3,38.9,248.2,38.9z"/>
	<path class="st0" d="M263.1,20.3h4.4l0.7,2.8h0.2c0.8-1.2,1.8-2,2.9-2.6c1.1-0.6,2.4-0.8,4-0.8c2.9,0,5.1,0.9,6.6,2.8
		s2.2,4.8,2.2,8.9c0,2-0.2,3.8-0.7,5.4s-1.2,3-2.1,4.1c-0.9,1.1-2,2-3.3,2.6c-1.3,0.6-2.8,0.9-4.5,0.9c-1,0-1.8-0.1-2.4-0.2
		c-0.6-0.1-1.2-0.4-1.9-0.7v9.5h-6V20.3z M273.5,24.8c-1.2,0-2.1,0.3-2.8,0.9s-1.2,1.5-1.6,2.7V38c0.4,0.3,0.9,0.6,1.4,0.8
		c0.5,0.2,1.2,0.3,2,0.3c1.7,0,3-0.6,3.9-1.8c0.9-1.2,1.3-3.2,1.3-6.1c0-2-0.3-3.6-1-4.7C276.1,25.3,275,24.8,273.5,24.8z"/>
	<path class="st0" d="M301.7,43.5V30.3c0-1.9-0.3-3.3-0.8-4.1S299.4,25,298,25c-1,0-2,0.3-2.8,1c-0.9,0.7-1.4,1.6-1.7,2.7v14.8h-6
		V11h6v11.9h0.2c0.7-1,1.7-1.8,2.7-2.4c1.1-0.6,2.5-0.9,4.1-0.9c1.2,0,2.2,0.2,3.1,0.5c0.9,0.3,1.7,0.8,2.3,1.5s1.1,1.7,1.3,2.9
		s0.4,2.7,0.4,4.5v14.5H301.7z"/>
</g>
</svg>
