<svg id="Layer_1" data-name="Layer 1" xmlns="http://www.w3.org/2000/svg" xmlns:xlink="http://www.w3.org/1999/xlink" viewBox="0 0 243 111">
  <defs>
    <style>
      @import url(https://fonts.googleapis.com/css2?family=Source+Code+Pro:ital,wght@0,200;0,400;0,600;0,700;1,200;1,400;1,600;1,700&amp;family=Source+Sans+Pro:ital,wght@0,200;0,400;0,600;0,700;1,200;1,400;1,600;1,700&amp;display=swap);

      .cls-1, .cls-15, .cls-4 {
        fill: none;
      }

      .cls-2 {
        fill: #ffc247;
      }

      .cls-3 {
        clip-path: url(#clip-path);
      }

      .cls-4 {
        stroke: #a7a9ac;
        stroke-width: 0.5px;
      }

      .cls-15, .cls-4 {
        stroke-miterlimit: 10;
      }

      .cls-5 {
        clip-path: url(#clip-path-2);
      }

      .cls-13, .cls-6 {
        fill: #ff5543;
      }

      .cls-11, .cls-7 {
        fill: #a112ff;
      }

      .cls-8 {
        fill: #00cbec;
      }

      .cls-10, .cls-11, .cls-12, .cls-13, .cls-9 {
        font-size: 19.24px;
      }

      .cls-9 {
        fill: #fff;
      }

      .cls-10, .cls-9 {
        font-family: 'Source Sans Pro', sans-serif;
        font-weight: 700;
      }

      .cls-10 {
        fill: #47ed24;
      }

      .cls-11, .cls-12, .cls-13 {
        font-family: 'Source Sans Pro', sans-serif;
      }

      .cls-12 {
        fill: #242427;
      }

      .cls-14 {
        fill: #ed2e20;
      }

      .cls-15 {
        stroke: #fff;
      }
    </style>
    <clipPath id="clip-path">
      <rect class="cls-1" x="-263.85" y="-236.5" width="762.95" height="347.58"/>
    </clipPath>
    <clipPath id="clip-path-2">
      <rect class="cls-1" x="18" y="17.78" width="98.87" height="16.63"/>
    </clipPath>
  </defs>
  <rect class="cls-2" x="-0.05" y="-0.43" width="242.8" height="111.27"/>
  <g class="cls-5">
    <path class="cls-6" d="M27.72,34.66a1.67,1.67,0,0,1-1.95-1.34L23.28,19.76a1.67,1.67,0,1,1,3.29-.6l2.5,13.55a1.69,1.69,0,0,1-1.35,1.95"/>
    <path class="cls-7" d="M21.23,32.35a1.67,1.67,0,0,1-1.39-2.92l10.49-8.94a1.68,1.68,0,0,1,2.17,2.56L22,32a1.61,1.61,0,0,1-.78.37"/>
    <path class="cls-8" d="M33,30.2a1.7,1.7,0,0,1-.86-.07l-13-4.62a1.68,1.68,0,0,1,1.12-3.16l13,4.62a1.67,1.67,0,0,1,1,2.14A1.7,1.7,0,0,1,33,30.2"/>
    <path d="M43.82,28.55a1,1,0,0,0-.36-.79,3.58,3.58,0,0,0-.89-.56l-1.17-.52A5.56,5.56,0,0,1,40.23,26a3.43,3.43,0,0,1-.9-1A2.77,2.77,0,0,1,39,23.59a3.27,3.27,0,0,1,.25-1.34A2.58,2.58,0,0,1,40,21.3a3.24,3.24,0,0,1,1.13-.56,5.49,5.49,0,0,1,1.46-.19,9.73,9.73,0,0,1,1.75.16,4.73,4.73,0,0,1,1.35.47L45,22.92a3.63,3.63,0,0,0-1-.38,5.46,5.46,0,0,0-1.44-.18,1.87,1.87,0,0,0-1.12.29.93.93,0,0,0-.38.78,1,1,0,0,0,.35.76,4.22,4.22,0,0,0,.9.56c.36.17.75.35,1.17.53a6.08,6.08,0,0,1,1.17.66,3.43,3.43,0,0,1,.9,1,2.69,2.69,0,0,1,.35,1.42,3.46,3.46,0,0,1-.28,1.46,2.79,2.79,0,0,1-.79,1,3.55,3.55,0,0,1-1.23.61,6.08,6.08,0,0,1-1.59.19,8.53,8.53,0,0,1-2-.21A6.32,6.32,0,0,1,38.73,31l.67-1.78.43.2a6.1,6.1,0,0,0,.6.19c.23.06.46.12.71.16a4.81,4.81,0,0,0,.77.06,2.64,2.64,0,0,0,1.42-.32,1,1,0,0,0,.49-.94"/>
    <path d="M46.78,27.6a4.29,4.29,0,0,1,.94-3,3.4,3.4,0,0,1,2.64-1,4,4,0,0,1,1.58.29,2.86,2.86,0,0,1,1.11.81A3.34,3.34,0,0,1,53.71,26a5.71,5.71,0,0,1,.22,1.64,4.3,4.3,0,0,1-.93,3,3.34,3.34,0,0,1-2.64,1,4.05,4.05,0,0,1-1.58-.28,3.15,3.15,0,0,1-1.11-.82A3.29,3.29,0,0,1,47,29.24a5.61,5.61,0,0,1-.22-1.64m2,0a4.45,4.45,0,0,0,.09.93,2.92,2.92,0,0,0,.28.74,1.28,1.28,0,0,0,.48.5,1.5,1.5,0,0,0,1.86-.39,3.27,3.27,0,0,0,.38-1.78,3.57,3.57,0,0,0-.35-1.69,1.25,1.25,0,0,0-1.19-.65,1.38,1.38,0,0,0-1.14.55,3.07,3.07,0,0,0-.41,1.79"/>
    <path d="M56.89,23.81v4.31a3,3,0,0,0,.23,1.34.87.87,0,0,0,.85.41,1.33,1.33,0,0,0,.94-.34,2,2,0,0,0,.55-.82v-4.9h2v5.28a12,12,0,0,0,.06,1.22,7.5,7.5,0,0,0,.18,1.09H60.19l-.35-1.12h-.06a2.85,2.85,0,0,1-1,.95,2.73,2.73,0,0,1-1.47.38,3.35,3.35,0,0,1-1-.15,1.77,1.77,0,0,1-.76-.5,2.43,2.43,0,0,1-.46-.94,5.7,5.7,0,0,1-.16-1.49V23.81Z"/>
    <path d="M67.18,25.66a2.61,2.61,0,0,0-.85-.17,1.45,1.45,0,0,0-.89.28,1.48,1.48,0,0,0-.48.72V31.4H63V23.81h1.53l.23,1h.06a2,2,0,0,1,.7-.87,1.81,1.81,0,0,1,1-.3,3.48,3.48,0,0,1,1.12.26Z"/>
    <path d="M73.57,30.93a3.39,3.39,0,0,1-1.1.51,4.9,4.9,0,0,1-1.33.17,3.75,3.75,0,0,1-1.54-.28,2.67,2.67,0,0,1-1-.82A3.15,3.15,0,0,1,68,29.24a6.92,6.92,0,0,1-.18-1.64,4.53,4.53,0,0,1,.87-3,3.11,3.11,0,0,1,2.52-1,5.33,5.33,0,0,1,1.34.14,4.52,4.52,0,0,1,.92.35L73,25.69a3.88,3.88,0,0,0-.69-.26,3.1,3.1,0,0,0-.78-.09,1.5,1.5,0,0,0-1.25.54,2.81,2.81,0,0,0-.42,1.72,3.59,3.59,0,0,0,.1.9,2.43,2.43,0,0,0,.32.71,1.37,1.37,0,0,0,.56.48,1.69,1.69,0,0,0,.8.18,2.66,2.66,0,0,0,.85-.13,3.26,3.26,0,0,0,.62-.31Z"/>
    <path d="M80.53,30.75a3.87,3.87,0,0,1-1.24.61,5.34,5.34,0,0,1-1.66.25,3.2,3.2,0,0,1-2.69-1.07,4.57,4.57,0,0,1-.85-2.94,4.22,4.22,0,0,1,1-3,3.55,3.55,0,0,1,2.69-1,4.28,4.28,0,0,1,1.13.15,2.66,2.66,0,0,1,1,.51,2.41,2.41,0,0,1,.68.94,3.69,3.69,0,0,1,.26,1.47,5.76,5.76,0,0,1,0,.69,7.15,7.15,0,0,1-.11.75H76.06a2.25,2.25,0,0,0,.5,1.45A1.89,1.89,0,0,0,78,30a3,3,0,0,0,1.11-.19,2.87,2.87,0,0,0,.75-.38ZM77.7,25.17a1.37,1.37,0,0,0-1.14.47,2.24,2.24,0,0,0-.45,1.23h2.82a1.92,1.92,0,0,0-.25-1.26,1.12,1.12,0,0,0-1-.44"/>
    <path d="M88.43,31.4a3.09,3.09,0,0,1-.89,2.44,3.72,3.72,0,0,1-2.51.78,7.74,7.74,0,0,1-1.72-.15,4.3,4.3,0,0,1-1-.32l.41-1.56q.35.13.81.27a4.15,4.15,0,0,0,1.15.14,1.76,1.76,0,0,0,1.4-.45,1.9,1.9,0,0,0,.37-1.25v-.49h-.06a2.18,2.18,0,0,1-1.88.71,2.63,2.63,0,0,1-2.2-.91,4.59,4.59,0,0,1-.72-2.85,4.44,4.44,0,0,1,1-3.09,3.67,3.67,0,0,1,2.83-1.05,10,10,0,0,1,1.74.14,7.22,7.22,0,0,1,1.25.32Zm-3.34-1.46a1.37,1.37,0,0,0,.89-.25,1.68,1.68,0,0,0,.48-.78V25.49a3.11,3.11,0,0,0-1.17-.2,1.41,1.41,0,0,0-1.19.57,3.11,3.11,0,0,0-.42,1.82A3.24,3.24,0,0,0,84,29.37a1.19,1.19,0,0,0,1,.57"/>
    <path d="M94.15,25.66a2.67,2.67,0,0,0-.86-.17,1.4,1.4,0,0,0-.88.28,1.36,1.36,0,0,0-.48.72V31.4H90V23.81h1.54l.22,1h.07a2,2,0,0,1,.69-.87,1.82,1.82,0,0,1,1-.3,2.62,2.62,0,0,1,.89.17Z"/>
    <path d="M95.12,24.18a5,5,0,0,1,1.25-.37,9.79,9.79,0,0,1,1.74-.16,4.21,4.21,0,0,1,1.33.19,2.11,2.11,0,0,1,.84.54,2.05,2.05,0,0,1,.44.84,4.07,4.07,0,0,1,.13,1.09c0,.45,0,.9,0,1.35s0,.89,0,1.33,0,.85,0,1.26a4.5,4.5,0,0,0,.23,1.17H99.41l-.32-1.05H99a2.72,2.72,0,0,1-.84.81,2.56,2.56,0,0,1-1.39.34,2.61,2.61,0,0,1-1-.16,2,2,0,0,1-.73-.45,2.1,2.1,0,0,1-.47-.7,2.37,2.37,0,0,1-.17-.9,2.18,2.18,0,0,1,.31-1.18,2.3,2.3,0,0,1,.9-.78,4.81,4.81,0,0,1,1.4-.41,10.45,10.45,0,0,1,1.81-.07,2,2,0,0,0-.12-1.22c-.15-.25-.49-.37-1-.37a7,7,0,0,0-1.25.12,2.78,2.78,0,0,0-.89.26Zm2.31,5.72a1.48,1.48,0,0,0,.94-.27,1.82,1.82,0,0,0,.52-.57v-1a5.56,5.56,0,0,0-.91,0,3.32,3.32,0,0,0-.76.14,1.29,1.29,0,0,0-.53.3.65.65,0,0,0-.2.5.85.85,0,0,0,.25.66,1,1,0,0,0,.69.24"/>
    <path d="M102.31,23.81h1.44l.23.91H104a2.42,2.42,0,0,1,.93-.85,2.8,2.8,0,0,1,1.32-.28,2.55,2.55,0,0,1,2.14.91,4.75,4.75,0,0,1,.71,2.91,6,6,0,0,1-.23,1.75,3.7,3.7,0,0,1-.67,1.33,3,3,0,0,1-1.1.83,3.46,3.46,0,0,1-1.48.29,4.07,4.07,0,0,1-.77-.06,2.53,2.53,0,0,1-.61-.23v3.12h-2Zm3.38,1.45a1.33,1.33,0,0,0-.9.29,1.83,1.83,0,0,0-.51.87v3.16a1.75,1.75,0,0,0,.46.26,1.78,1.78,0,0,0,.67.1,1.45,1.45,0,0,0,1.27-.6,3.54,3.54,0,0,0,.43-2,3,3,0,0,0-.34-1.55,1.17,1.17,0,0,0-1.08-.55"/>
    <path d="M114.9,31.4V27.09a2.63,2.63,0,0,0-.26-1.34,1,1,0,0,0-.94-.41,1.4,1.4,0,0,0-.92.34,1.68,1.68,0,0,0-.56.88V31.4h-2V20.77h2v3.89h.07a2.66,2.66,0,0,1,.89-.78,2.87,2.87,0,0,1,1.35-.29,3.13,3.13,0,0,1,1,.15,1.73,1.73,0,0,1,.74.51,2.27,2.27,0,0,1,.44.95,6.24,6.24,0,0,1,.14,1.48V31.4Z"/>
  </g>
  <rect class="cls-2" x="16.29" y="53.54" width="136.96" height="38.93"/>
  <text class="cls-9" transform="translate(16.29 67.96)">Universal</text>
  <text class="cls-10" transform="translate(97.23 67.96)"> </text>
  <text class="cls-11" transform="translate(16.29 87.2)">code</text>
  <text class="cls-12" transform="translate(55.7 87.2)"> </text>
  <text class="cls-13" transform="translate(59.55 87.2)">search</text>
  <g class="cls-3">
    <path class="cls-14" d="M233.25,14.3a6,6,0,1,0-6-6,6,6,0,0,0,6,6"/>
  </g>
  <path class="cls-15" d="M236.77,11.7l-6.84-6.84m6.84,0-6.84,6.84"/>
</svg>
