<?xml version="1.0" encoding="utf-8"?>
<!-- Generator: Adobe Illustrator 25.2.1, SVG Export Plug-In . SVG Version: 6.00 Build 0)  -->
<svg version="1.1" id="Layer_1" xmlns="http://www.w3.org/2000/svg" xmlns:xlink="http://www.w3.org/1999/xlink" x="0px"
  y="0px" viewBox="0 0 246.6 45.1" style="enable-background:new 0 0 246.6 45.1;" xml:space="preserve">
  <style type="text/css">
    .st0 {
      fill: #FFFFFF;
    }

    .st1 {
      fill: #FF5543;
    }

    .st2 {
      fill: #A112FF;
    }

    .st3 {
      fill: #00CBEC;
    }
  </style>
  <g>
    <path
      d="M19.3,25.5c0-1-0.4-1.8-1.1-2.4c-0.7-0.6-1.6-1.2-2.7-1.7c-1.1-0.5-2.3-1-3.6-1.6c-1.3-0.5-2.5-1.2-3.6-2
		c-1.1-0.8-2-1.8-2.7-3c-0.7-1.2-1.1-2.7-1.1-4.5c0-1.6,0.3-3,0.8-4.1c0.5-1.2,1.3-2.1,2.3-2.9C8.5,2.5,9.6,2,11,1.6
		C12.3,1.2,13.8,1,15.4,1c1.9,0,3.7,0.2,5.3,0.5s3.1,0.8,4.1,1.4l-2,5.3c-0.7-0.4-1.7-0.8-3.1-1.2c-1.4-0.4-2.8-0.5-4.4-0.5
		c-1.5,0-2.6,0.3-3.4,0.9c-0.8,0.6-1.2,1.4-1.2,2.4c0,0.9,0.4,1.7,1.1,2.3c0.7,0.6,1.6,1.2,2.7,1.7c1.1,0.5,2.3,1.1,3.6,1.6
		c1.3,0.6,2.5,1.2,3.6,2c1.1,0.8,2,1.8,2.7,2.9c0.7,1.2,1.1,2.6,1.1,4.3c0,1.7-0.3,3.2-0.9,4.5c-0.6,1.3-1.4,2.3-2.4,3.1
		c-1,0.8-2.3,1.5-3.8,1.9c-1.5,0.4-3.1,0.6-4.9,0.6c-2.3,0-4.4-0.2-6.1-0.7c-1.8-0.4-3.1-0.9-3.9-1.3l2-5.4c0.3,0.2,0.8,0.4,1.3,0.6
		c0.5,0.2,1.2,0.4,1.8,0.6c0.7,0.2,1.4,0.3,2.2,0.5c0.8,0.1,1.5,0.2,2.3,0.2c1.9,0,3.3-0.3,4.3-1C18.8,27.8,19.3,26.8,19.3,25.5z" />
    <path d="M28.3,22.6c0-3.9,1-7,2.9-9.1c1.9-2.1,4.6-3.2,8.1-3.2c1.9,0,3.5,0.3,4.8,0.9c1.4,0.6,2.5,1.4,3.4,2.5
		c0.9,1.1,1.6,2.4,2,3.9c0.4,1.5,0.7,3.2,0.7,5c0,3.9-1,7-2.9,9.1c-1.9,2.1-4.6,3.2-8.1,3.2c-1.9,0-3.5-0.3-4.8-0.9
		c-1.4-0.6-2.5-1.4-3.4-2.5c-0.9-1.1-1.6-2.4-2-3.9C28.6,26.1,28.3,24.4,28.3,22.6z M34.6,22.6c0,1,0.1,2,0.3,2.8
		c0.2,0.9,0.5,1.6,0.8,2.3c0.4,0.7,0.9,1.2,1.5,1.5c0.6,0.4,1.3,0.5,2.2,0.5c1.6,0,2.8-0.6,3.5-1.7c0.8-1.1,1.2-3,1.2-5.4
		c0-2.1-0.4-3.9-1.1-5.2c-0.7-1.3-1.9-2-3.6-2c-1.5,0-2.7,0.6-3.5,1.7C35,18.2,34.6,20.1,34.6,22.6z" />
    <path d="M59.3,11v13.2c0,1.9,0.2,3.3,0.7,4.1c0.4,0.8,1.3,1.3,2.6,1.3c1.1,0,2.1-0.3,2.9-1c0.8-0.7,1.3-1.5,1.7-2.5V11h6v16.2
		c0,1.3,0.1,2.5,0.2,3.7c0.1,1.2,0.3,2.3,0.6,3.3h-4.6l-1.1-3.4h-0.2c-0.7,1.2-1.7,2.2-3,2.9c-1.3,0.8-2.8,1.2-4.5,1.2
		c-1.2,0-2.2-0.2-3.2-0.5c-0.9-0.3-1.7-0.8-2.3-1.5c-0.6-0.7-1.1-1.7-1.4-2.9s-0.5-2.7-0.5-4.6V11H59.3z" />
    <path d="M90.8,16.7c-1-0.3-1.8-0.5-2.6-0.5c-1.1,0-2,0.3-2.7,0.9c-0.7,0.6-1.2,1.3-1.5,2.2v15h-6V11h4.7l0.7,3.1h0.2
		c0.5-1.1,1.2-2,2.1-2.7s2-0.9,3.2-0.9c0.8,0,2.5,0.4,3.4,0.8L90.8,16.7z" />
    <path d="M110.4,32.8c-0.9,0.7-2.1,1.2-3.4,1.6c-1.3,0.4-2.7,0.5-4.1,0.5c-1.9,0-3.4-0.3-4.7-0.9c-1.3-0.6-2.3-1.4-3.1-2.5
		c-0.8-1.1-1.4-2.4-1.7-3.9c-0.4-1.5-0.5-3.2-0.5-5c0-3.9,0.9-7,2.7-9.1c1.8-2.1,4.3-3.2,7.7-3.2c1.7,0,3.1,0.1,4.1,0.4
		c1,0.3,2,0.6,2.8,1.1l-1.4,4.9c-0.7-0.3-1.4-0.6-2.1-0.8c-0.7-0.2-1.5-0.3-2.4-0.3c-1.7,0-2.9,0.6-3.8,1.7
		c-0.9,1.1-1.3,2.9-1.3,5.3c0,1,0.1,1.9,0.3,2.7s0.5,1.6,1,2.2c0.4,0.6,1,1.1,1.7,1.5c0.7,0.4,1.5,0.5,2.4,0.5c1,0,1.9-0.1,2.6-0.4
		c0.7-0.3,1.3-0.6,1.9-1L110.4,32.8z" />
    <path d="M131.7,32.2c-0.9,0.7-2.2,1.4-3.8,1.9c-1.6,0.5-3.3,0.8-5.1,0.8c-3.8,0-6.5-1.1-8.2-3.3c-1.7-2.2-2.6-5.2-2.6-9
		c0-4.1,1-7.2,2.9-9.2s4.7-3.1,8.2-3.1c1.2,0,2.3,0.2,3.4,0.5s2.1,0.8,3,1.5s1.6,1.7,2.1,2.9c0.5,1.2,0.8,2.7,0.8,4.5
		c0,0.7,0,1.3-0.1,2.1c-0.1,0.7-0.2,1.5-0.3,2.3h-14c0.1,2,0.6,3.4,1.5,4.4c0.9,1,2.4,1.5,4.4,1.5c1.3,0,2.4-0.2,3.4-0.6
		c1-0.4,1.8-0.8,2.3-1.2L131.7,32.2z M123,15.2c-1.6,0-2.8,0.5-3.5,1.4c-0.8,0.9-1.2,2.2-1.4,3.8h8.6c0.1-1.7-0.1-3-0.8-3.9
		C125.4,15.6,124.4,15.2,123,15.2z" />
    <path d="M155.8,34.2c0,3.4-0.9,5.9-2.7,7.5s-4.4,2.4-7.7,2.4c-2.2,0-4-0.2-5.3-0.5s-2.3-0.6-2.9-1l1.3-4.8c0.7,0.3,1.5,0.6,2.5,0.8
		s2.1,0.4,3.5,0.4c2.1,0,3.5-0.5,4.3-1.4c0.8-0.9,1.1-2.2,1.1-3.8v-1.5h-0.2c-1.1,1.5-3,2.2-5.8,2.2c-3,0-5.2-0.9-6.7-2.8
		c-1.5-1.9-2.2-4.8-2.2-8.7c0-4.2,1-7.3,3-9.4c2-2.1,4.9-3.2,8.6-3.2c2,0,3.8,0.1,5.3,0.4s2.8,0.6,3.8,1V34.2z M145.6,29.8
		c1.2,0,2.1-0.3,2.7-0.8c0.6-0.5,1.1-1.3,1.5-2.4V16.2c-1-0.4-2.2-0.6-3.6-0.6c-1.6,0-2.8,0.6-3.6,1.7c-0.9,1.2-1.3,3-1.3,5.6
		c0,2.3,0.4,4,1.1,5.2C143.2,29.2,144.2,29.8,145.6,29.8z" />
    <path d="M173.3,16.7c-1-0.3-1.8-0.5-2.6-0.5c-1.1,0-2,0.3-2.7,0.9c-0.7,0.6-1.2,1.3-1.5,2.2v15h-6V11h4.7l0.7,3.1h0.2
		c0.5-1.1,1.2-2,2.1-2.7s2-0.9,3.2-0.9c0.8,0,1.7,0.2,2.7,0.5L173.3,16.7z" />
    <path d="M176.3,12.1c1.2-0.6,2.1-0.8,3.8-1.1c1.7-0.3,3.5-0.5,5.3-0.5c1.6,0,3,0.2,4,0.6s1.9,0.9,2.6,1.7c0.6,0.7,1.1,1.6,1.3,2.6
		c0.3,1,0.4,2.1,0.4,3.3c0,1.4,0,2.7-0.1,4.1c-0.1,1.4-0.1,2.7-0.2,4.1c0,1.3,0,2.6,0.1,3.9s0.3,2.4,0.7,3.6h-4.9l-1-3.2h-0.2
		c-0.6,1-1.5,1.8-2.6,2.5c-1.1,0.7-2.5,1-4.3,1c-1.1,0-2.1-0.2-2.9-0.5c-0.9-0.3-1.6-0.8-2.2-1.4s-1.1-1.3-1.4-2.1
		c-0.3-0.8-0.5-1.7-0.5-2.8c0-1.4,0.3-2.6,1-3.6s1.5-1.8,2.7-2.4c1.2-0.6,2.6-1,4.3-1.3s3.5-0.3,5.6-0.2c0.2-1.7,0.1-3-0.4-3.7
		c-0.5-0.8-1.5-1.1-3.1-1.1c-1.2,0-2.5,0.1-3.8,0.4s-1.9,0.4-2.7,0.8L176.3,12.1z M183.4,29.6c1.2,0,2.2-0.3,2.9-0.8
		c0.7-0.5,1.2-1.1,1.6-1.7v-3c-1-0.1-1.9-0.1-2.8,0c-0.9,0.1-1.7,0.2-2.3,0.4s-1.2,0.5-1.6,0.9c-0.4,0.4-0.6,0.9-0.6,1.5
		c0,0.9,0.3,1.5,0.8,2C181.8,29.4,182.5,29.6,183.4,29.6z" />
    <path
      d="M198.3,11h4.4l0.7,2.8h0.2c0.8-1.2,1.8-2,2.9-2.6c1.1-0.6,2.4-0.8,4-0.8c2.9,0,5.1,0.9,6.6,2.8s2.2,4.8,2.2,8.9
		c0,2-0.2,3.8-0.7,5.4s-1.2,3-2.1,4.1c-0.9,1.1-2,2-3.3,2.6c-1.3,0.6-2.8,0.9-4.5,0.9c-1,0-1.8-0.1-2.4-0.2
		c-0.6-0.1-1.2-0.4-1.9-0.7v9.5h-6V11z M208.7,15.5c-1.2,0-2.1,0.3-2.8,0.9s-1.2,1.5-1.6,2.7v9.7c0.4,0.3,0.9,0.6,1.4,0.8
		c0.5,0.2,1.2,0.3,2,0.3c1.7,0,3-0.6,3.9-1.8c0.9-1.2,1.3-3.2,1.3-6.1c0-2-0.3-3.6-1-4.7C211.3,16,210.2,15.5,208.7,15.5z" />
    <path d="M236.9,34.2V21c0-1.9-0.3-3.3-0.8-4.1s-1.5-1.3-2.9-1.3c-1,0-2,0.3-2.8,1c-0.9,0.7-1.4,1.6-1.7,2.7v14.8h-6V1.7h6v11.9h0.2
		c0.7-1,1.7-1.8,2.7-2.4c1.1-0.6,2.5-0.9,4.1-0.9c1.2,0,2.2,0.2,3.1,0.5c0.9,0.3,1.7,0.8,2.3,1.5s1.1,1.7,1.3,2.9s0.4,2.7,0.4,4.5
		v14.5H236.9z" />
  </g>
</svg>
