<svg width="512" height="512" viewBox="0 0 512 512" fill="none" xmlns="http://www.w3.org/2000/svg">
  <path d="M256 512C391.144 512 500.7 402.444 500.7 267.3C500.7 132.156 391.144 22.6 256 22.6C120.856 22.6 11.3 132.156 11.3 267.3C11.3 402.444 120.856 512 256 512Z" fill="#95A5A6" />
  <path d="M256 489.4C391.144 489.4 500.7 379.844 500.7 244.7C500.7 109.556 391.144 0 256 0C120.856 0 11.3 109.556 11.3 244.7C11.3 379.844 120.856 489.4 256 489.4Z" fill="#BDC3C7" />
  <path d="M256 445C366.623 445 456.3 355.323 456.3 244.7C456.3 134.077 366.623 44.4 256 44.4C145.377 44.4 55.7 134.077 55.7 244.7C55.7 355.323 145.377 445 256 445Z" fill="#EFF2F5" />
  <path d="M344.8 88.8L211.6 244.7L167.2 445L300.4 289.1L344.8 88.8Z" fill="black" fill-opacity="0.1" />
  <path d="M256 44.4C145.3 44.4 55.7 133.2 55.7 244.7C55.7 247 56.5 251.5 56.5 256C62.5 149.1 149.1 67 256 67C362.9 67 449.5 149.1 455.5 256C455.5 251.5 456.3 247 456.3 244.7C456.3 134 366.7 44.4 256 44.4Z" fill="black" fill-opacity="0.1" />
  <path d="M300.4 267.3L211.6 222.9L344.8 67L300.4 267.3Z" fill="#FF5543" />
  <path d="M211.6 222.9L300.4 267.3L167.2 423.2L211.6 222.9Z" fill="#00CBEC" />
  <path d="M256 0C121.2 0 11.3 109.2 11.3 244.7C11.3 378.7 121.2 489.4 256 489.4C390.8 489.4 500.7 378 500.7 244.7C500.7 109.2 390.8 0 256 0ZM256 44.4C366.7 44.4 456.3 133.2 456.3 244.7C456.3 353.9 366.7 445 256 445C145.3 445 55.7 353.9 55.7 244.7C55.7 134 145.3 44.4 256 44.4Z" fill="#BDC3C7" />
  <path d="M344.8 67L256 244.7L300.4 267.3L344.8 67Z" fill="black" fill-opacity="0.1" />
  <path d="M256 244.7L167.2 423.2L300.4 267.3L256 244.7Z" fill="black" fill-opacity="0.1" />
  <circle cx="256" cy="245" r="23" fill="#A112FF" />
  <path d="M256 268C268.212 268 279 257 279 246H233C233 257 243.788 268 256 268Z" fill="black" fill-opacity="0.2" />
</svg>