<?xml version="1.0" encoding="utf-8"?>
<!-- Generator: Adobe Illustrator 24.1.0, SVG Export Plug-In . SVG Version: 6.00 Build 0)  -->
<svg version="1.1" id="Layer_1" xmlns="http://www.w3.org/2000/svg" xmlns:xlink="http://www.w3.org/1999/xlink" x="0px"
  y="0px" viewBox="0 0 322.7 94.4" style="enable-background:new 0 0 322.7 94.4;" xml:space="preserve">
  <style type="text/css">
    .st0 {
      clip-path: url(#SVGID_2_);
      fill: #E3EBF6;
    }

    .st1 {
      clip-path: url(#SVGID_2_);
    }

    .st2 {
      clip-path: url(#SVGID_4_);
      fill: #FF5543;
    }

    .st3 {
      clip-path: url(#SVGID_4_);
      fill: #A112FF;
    }

    .st4 {
      clip-path: url(#SVGID_4_);
      fill: #00CBEC;
    }

    .st5 {
      clip-path: url(#SVGID_4_);
    }

    .st6 {
      opacity: 0.15;
      clip-path: url(#SVGID_6_);
    }

    .st7 {
      clip-path: url(#SVGID_8_);
    }

    .st8 {
      clip-path: url(#SVGID_10_);
      fill: #FF5543;
    }

    .st9 {
      clip-path: url(#SVGID_10_);
      fill: #A112FF;
    }

    .st10 {
      clip-path: url(#SVGID_10_);
      fill: #00CBEC;
    }

    .st11 {
      clip-path: url(#SVGID_10_);
    }

    .st12 {
      clip-path: url(#SVGID_12_);
    }

    .st13 {
      clip-path: url(#SVGID_14_);
      fill: #FF5543;
    }

    .st14 {
      clip-path: url(#SVGID_14_);
      fill: #A112FF;
    }

    .st15 {
      clip-path: url(#SVGID_14_);
      fill: #00CBEC;
    }

    .st16 {
      clip-path: url(#SVGID_14_);
    }

    .st17 {
      clip-path: url(#SVGID_16_);
    }

    .st18 {
      clip-path: url(#SVGID_18_);
      fill: #FF5543;
    }

    .st19 {
      clip-path: url(#SVGID_18_);
      fill: #A112FF;
    }

    .st20 {
      clip-path: url(#SVGID_18_);
      fill: #00CBEC;
    }

    .st21 {
      clip-path: url(#SVGID_18_);
    }

    .st22 {
      clip-path: url(#SVGID_20_);
    }

    .st23 {
      clip-path: url(#SVGID_22_);
      fill: #FF5543;
    }

    .st24 {
      clip-path: url(#SVGID_22_);
      fill: #A112FF;
    }

    .st25 {
      clip-path: url(#SVGID_22_);
      fill: #00CBEC;
    }

    .st26 {
      clip-path: url(#SVGID_22_);
    }

    .st27 {
      clip-path: url(#SVGID_2_);
      fill: none;
      stroke: #242427;
      stroke-width: 0.5;
    }
  </style>
  <g>
    <defs>
      <rect id="SVGID_1_" x="-172.6" y="-64.6" width="667.9" height="223.5" />
    </defs>
    <clipPath id="SVGID_2_">
      <use xlink:href="#SVGID_1_" style="overflow:visible;" />
    </clipPath>
    <rect x="6.8" y="5.5" class="st0" width="309.1" height="18" />
    <rect x="6.8" y="69.9" class="st0" width="309.1" height="18.5" />
    <rect x="6.8" y="19.1" class="st0" width="19.8" height="50.9" />
    <rect x="296.1" y="19.1" class="st0" width="19.2" height="50.9" />
    <g class="st1">
      <defs>
        <rect id="SVGID_3_" x="26.5" y="24" width="270.1" height="45.4" />
      </defs>
      <clipPath id="SVGID_4_">
        <use xlink:href="#SVGID_3_" style="overflow:visible;" />
      </clipPath>
      <path class="st2" d="M53.1,70.1c-2.5,0.5-4.9-1.2-5.3-3.7l-6.8-37c-0.5-2.5,1.2-4.9,3.7-5.3c2.5-0.5,4.9,1.2,5.3,3.7l6.8,37
			C57.2,67.2,55.6,69.6,53.1,70.1" />
      <path class="st3" d="M35.4,63.8c-1.6,0.3-3.2-0.2-4.3-1.5c-1.6-1.9-1.4-4.8,0.5-6.5l28.7-24.4c1.9-1.6,4.8-1.4,6.5,0.5
			c1.6,1.9,1.4,4.8-0.5,6.5L37.5,62.8C36.9,63.3,36.1,63.6,35.4,63.8" />
      <path class="st4" d="M67.4,57.9C66.6,58,65.8,58,65,57.7L29.6,45.1c-2.4-0.8-3.6-3.5-2.8-5.9c0.8-2.4,3.5-3.6,5.9-2.8l35.5,12.6
			c2.4,0.8,3.6,3.5,2.8,5.9C70.3,56.5,69,57.6,67.4,57.9" />
      <path class="st5" d="M97.1,53.4c0-0.9-0.3-1.6-1-2.2c-0.6-0.6-1.5-1.1-2.4-1.5c-1-0.5-2-0.9-3.2-1.4c-1.1-0.5-2.2-1.1-3.2-1.8
			c-1-0.7-1.8-1.6-2.4-2.6c-0.7-1.1-1-2.4-1-4c0-1.4,0.2-2.6,0.7-3.7c0.5-1,1.1-1.9,2-2.6c0.9-0.7,1.9-1.2,3.1-1.5
			c1.2-0.3,2.5-0.5,4-0.5c1.7,0,3.3,0.1,4.8,0.4c1.5,0.3,2.7,0.7,3.7,1.3l-1.8,4.8c-0.6-0.4-1.5-0.7-2.7-1.1
			c-1.2-0.3-2.5-0.5-3.9-0.5c-1.3,0-2.3,0.3-3.1,0.8c-0.7,0.5-1.1,1.2-1.1,2.1c0,0.8,0.3,1.5,1,2.1c0.6,0.6,1.5,1.1,2.4,1.5
			c1,0.5,2,1,3.2,1.5c1.1,0.5,2.2,1.1,3.2,1.8c1,0.7,1.8,1.6,2.4,2.6c0.6,1,1,2.3,1,3.9c0,1.5-0.3,2.9-0.8,4
			c-0.5,1.1-1.2,2.1-2.2,2.8c-0.9,0.7-2,1.3-3.4,1.7c-1.3,0.4-2.8,0.5-4.3,0.5c-2.1,0-3.9-0.2-5.5-0.6c-1.6-0.4-2.7-0.8-3.5-1.2
			l1.8-4.9c0.3,0.2,0.7,0.3,1.2,0.5c0.5,0.2,1,0.4,1.6,0.5c0.6,0.2,1.3,0.3,1.9,0.4c0.7,0.1,1.4,0.2,2.1,0.2c1.7,0,3-0.3,3.9-0.9
			C96.6,55.4,97.1,54.6,97.1,53.4" />
      <path class="st5" d="M105.1,50.8c0-3.5,0.9-6.2,2.6-8.1c1.7-1.9,4.1-2.8,7.2-2.8c1.7,0,3.1,0.3,4.3,0.8c1.2,0.5,2.2,1.3,3,2.2
			c0.8,1,1.4,2.1,1.8,3.5c0.4,1.4,0.6,2.8,0.6,4.5c0,3.5-0.9,6.2-2.6,8.1c-1.7,1.9-4.1,2.8-7.2,2.8c-1.7,0-3.1-0.3-4.3-0.8
			c-1.2-0.5-2.2-1.3-3.1-2.2c-0.8-1-1.4-2.1-1.8-3.5C105.3,53.9,105.1,52.4,105.1,50.8 M110.7,50.8c0,0.9,0.1,1.8,0.2,2.5
			c0.2,0.8,0.4,1.5,0.7,2c0.3,0.6,0.8,1,1.3,1.3c0.5,0.3,1.2,0.5,1.9,0.5c1.4,0,2.5-0.5,3.2-1.5c0.7-1,1-2.6,1-4.9
			c0-1.9-0.3-3.5-1-4.6c-0.6-1.2-1.7-1.8-3.2-1.8c-1.3,0-2.4,0.5-3.1,1.5C111.1,46.9,110.7,48.5,110.7,50.8" />
      <path class="st5" d="M132.8,40.4v11.8c0,1.7,0.2,2.9,0.6,3.7c0.4,0.7,1.2,1.1,2.3,1.1c1,0,1.9-0.3,2.6-0.9
			c0.7-0.6,1.2-1.4,1.5-2.2V40.4h5.4v14.4c0,1.1,0.1,2.2,0.2,3.3c0.1,1.1,0.3,2.1,0.5,3h-4.1l-1-3.1h-0.2c-0.6,1.1-1.5,1.9-2.7,2.6
			c-1.1,0.7-2.5,1-4,1c-1.1,0-2-0.1-2.8-0.4c-0.8-0.3-1.5-0.7-2.1-1.4c-0.6-0.6-1-1.5-1.3-2.6c-0.3-1.1-0.4-2.4-0.4-4.1V40.4H132.8z
			" />
      <path class="st5" d="M160.9,45.5c-0.9-0.3-1.6-0.5-2.3-0.5c-1,0-1.8,0.3-2.4,0.8c-0.6,0.5-1.1,1.2-1.3,2v13.4h-5.4V40.4h4.2
			l0.6,2.7h0.2c0.5-1,1.1-1.8,1.9-2.4c0.8-0.6,1.7-0.8,2.8-0.8c0.7,0,2.2,0.3,3,0.7L160.9,45.5z" />
      <path class="st5" d="M178.3,59.9c-0.8,0.6-1.8,1.1-3,1.4c-1.2,0.3-2.4,0.5-3.6,0.5c-1.7,0-3.1-0.3-4.2-0.8
			c-1.1-0.5-2.1-1.3-2.8-2.2c-0.7-1-1.2-2.1-1.6-3.5c-0.3-1.4-0.5-2.8-0.5-4.5c0-3.5,0.8-6.2,2.4-8.1s3.9-2.8,6.9-2.8
			c1.5,0,2.7,0.1,3.7,0.4c0.9,0.2,1.8,0.6,2.5,1l-1.3,4.4c-0.6-0.3-1.3-0.5-1.9-0.7c-0.6-0.2-1.3-0.2-2.1-0.2
			c-1.5,0-2.6,0.5-3.4,1.5c-0.8,1-1.2,2.6-1.2,4.7c0,0.9,0.1,1.7,0.3,2.4c0.2,0.7,0.5,1.4,0.9,2c0.4,0.6,0.9,1,1.5,1.3
			c0.6,0.3,1.3,0.5,2.2,0.5c0.9,0,1.7-0.1,2.3-0.4c0.6-0.2,1.2-0.5,1.7-0.8L178.3,59.9z" />
      <path class="st5" d="M197.3,59.4c-0.8,0.7-2,1.2-3.4,1.7c-1.4,0.5-2.9,0.7-4.5,0.7c-3.3,0-5.8-1-7.3-2.9c-1.6-2-2.3-4.6-2.3-8
			c0-3.7,0.9-6.4,2.6-8.2c1.7-1.8,4.2-2.7,7.3-2.7c1.1,0,2.1,0.1,3.1,0.4c1,0.3,1.9,0.7,2.7,1.4s1.4,1.5,1.9,2.6
			c0.5,1.1,0.7,2.4,0.7,4c0,0.6,0,1.2-0.1,1.9c-0.1,0.7-0.2,1.4-0.3,2.1h-12.5c0.1,1.7,0.5,3.1,1.3,3.9c0.8,0.9,2.1,1.3,4,1.3
			c1.1,0,2.1-0.2,3-0.5c0.9-0.3,1.6-0.7,2.1-1.1L197.3,59.4z M189.6,44.2c-1.4,0-2.5,0.4-3.1,1.3c-0.7,0.8-1.1,2-1.2,3.4h7.7
			c0.1-1.5-0.1-2.6-0.7-3.4C191.7,44.6,190.8,44.2,189.6,44.2" />
      <path class="st5"
        d="M218.9,61.2c0,3-0.8,5.2-2.4,6.7c-1.6,1.4-3.9,2.1-6.8,2.1c-2,0-3.6-0.1-4.7-0.4c-1.1-0.3-2-0.6-2.6-0.9
			l1.1-4.3c0.6,0.2,1.4,0.5,2.2,0.7c0.8,0.2,1.9,0.4,3.1,0.4c1.9,0,3.2-0.4,3.8-1.2c0.7-0.8,1-2,1-3.4v-1.3h-0.2
			c-1,1.3-2.7,1.9-5.1,1.9c-2.7,0-4.7-0.8-6-2.5c-1.3-1.7-2-4.3-2-7.8c0-3.7,0.9-6.5,2.7-8.4c1.8-1.9,4.3-2.9,7.7-2.9
			c1.8,0,3.4,0.1,4.8,0.4c1.4,0.2,2.5,0.5,3.4,0.9V61.2z M209.8,57.2c1.1,0,1.9-0.2,2.4-0.7c0.6-0.5,1-1.2,1.3-2.1V45
			c-0.9-0.4-1.9-0.5-3.2-0.5c-1.4,0-2.5,0.5-3.2,1.6c-0.8,1-1.2,2.7-1.2,5c0,2,0.3,3.6,1,4.6C207.6,56.7,208.5,57.2,209.8,57.2" />
      <path class="st5" d="M234.5,45.5c-0.9-0.3-1.6-0.5-2.3-0.5c-1,0-1.8,0.3-2.4,0.8c-0.6,0.5-1.1,1.2-1.3,2v13.4h-5.4V40.4h4.2
			l0.6,2.7h0.2c0.5-1,1.1-1.8,1.9-2.4c0.8-0.6,1.7-0.8,2.8-0.8c0.7,0,1.5,0.2,2.4,0.5L234.5,45.5z" />
      <path class="st5" d="M237.2,41.5c1.1-0.5,1.9-0.7,3.4-1c1.5-0.3,3.1-0.4,4.8-0.4c1.4,0,2.6,0.2,3.6,0.5c1,0.3,1.7,0.8,2.3,1.5
			c0.6,0.6,1,1.4,1.2,2.3c0.2,0.9,0.4,1.9,0.4,3c0,1.2,0,2.4-0.1,3.7c-0.1,1.2-0.1,2.4-0.1,3.6c0,1.2,0,2.3,0.1,3.5
			c0.1,1.1,0.3,2.2,0.6,3.2h-4.4l-0.9-2.9h-0.2c-0.6,0.9-1.3,1.6-2.3,2.2c-1,0.6-2.2,0.9-3.8,0.9c-1,0-1.8-0.1-2.6-0.4
			c-0.8-0.3-1.4-0.7-2-1.2c-0.6-0.5-1-1.2-1.3-1.9c-0.3-0.7-0.5-1.6-0.5-2.5c0-1.3,0.3-2.3,0.9-3.2c0.6-0.9,1.4-1.6,2.4-2.1
			c1.1-0.5,2.3-0.9,3.8-1.1c1.5-0.2,3.1-0.3,5-0.2c0.2-1.5,0.1-2.7-0.3-3.3c-0.4-0.7-1.3-1-2.8-1c-1.1,0-2.2,0.1-3.4,0.3
			c-1.2,0.2-1.7,0.3-2.4,0.7L237.2,41.5z M243.5,57.1c1.1,0,1.9-0.2,2.6-0.7c0.6-0.5,1.1-1,1.4-1.6v-2.7c-0.9-0.1-1.7-0.1-2.5,0
			c-0.8,0.1-1.5,0.2-2.1,0.4c-0.6,0.2-1.1,0.5-1.5,0.8c-0.4,0.4-0.5,0.8-0.5,1.4c0,0.8,0.2,1.4,0.7,1.8
			C242.1,56.9,242.7,57.1,243.5,57.1" />
      <path class="st5" d="M256.8,40.4h3.9l0.6,2.5h0.2c0.7-1.1,1.6-1.8,2.6-2.3c1-0.5,2.2-0.7,3.6-0.7c2.6,0,4.6,0.8,5.9,2.5
			c1.3,1.6,2,4.3,2,7.9c0,1.8-0.2,3.4-0.6,4.8c-0.4,1.4-1,2.6-1.8,3.6c-0.8,1-1.8,1.8-3,2.3c-1.2,0.5-2.5,0.8-4,0.8
			c-0.9,0-1.6-0.1-2.1-0.2c-0.6-0.1-1.1-0.3-1.7-0.6v8.5h-5.4V40.4z M266.1,44.4c-1.1,0-1.9,0.3-2.5,0.8c-0.6,0.5-1.1,1.3-1.4,2.4
			v8.6c0.4,0.3,0.8,0.5,1.3,0.7c0.5,0.2,1.1,0.3,1.8,0.3c1.5,0,2.7-0.5,3.5-1.6c0.8-1.1,1.2-2.9,1.2-5.4c0-1.8-0.3-3.2-0.9-4.2
			C268.4,44.9,267.4,44.4,266.1,44.4" />
      <path class="st5" d="M291.2,61.2V49.4c0-1.7-0.2-2.9-0.7-3.7c-0.5-0.7-1.3-1.1-2.6-1.1c-0.9,0-1.7,0.3-2.5,0.9
			c-0.8,0.6-1.3,1.4-1.5,2.4v13.2h-5.4v-29h5.4v10.6h0.2c0.7-0.9,1.5-1.6,2.4-2.1c1-0.5,2.2-0.8,3.7-0.8c1,0,2,0.1,2.8,0.4
			c0.8,0.3,1.5,0.7,2,1.4c0.5,0.6,0.9,1.5,1.2,2.6c0.3,1.1,0.4,2.4,0.4,4v12.9H291.2z" />
    </g>
    <g class="st1">
      <defs>
        <rect id="SVGID_5_" x="-172.6" y="-64.6" width="667.9" height="223.5" />
      </defs>
      <clipPath id="SVGID_6_">
        <use xlink:href="#SVGID_5_" style="overflow:visible;" />
      </clipPath>
      <g class="st6">
        <g>
          <defs>
            <rect id="SVGID_7_" x="-2" y="17.5" width="37" height="53.4" />
          </defs>
          <clipPath id="SVGID_8_">
            <use xlink:href="#SVGID_7_" style="overflow:visible;" />
          </clipPath>
          <g class="st7">
            <defs>
              <rect id="SVGID_9_" x="7" y="24.5" width="19" height="45.4" />
            </defs>
            <clipPath id="SVGID_10_">
              <use xlink:href="#SVGID_9_" style="overflow:visible;" />
            </clipPath>
            <path class="st11" d="M-1.6,53.9c0-0.9-0.3-1.6-1-2.2C-3.2,51.2-4,50.7-5,50.2c-1-0.5-2-0.9-3.2-1.4c-1.1-0.5-2.2-1.1-3.2-1.8
						c-1-0.7-1.8-1.6-2.4-2.6c-0.7-1.1-1-2.4-1-4c0-1.4,0.2-2.6,0.7-3.7c0.5-1,1.1-1.9,2-2.6c0.9-0.7,1.9-1.2,3.1-1.5
						c1.2-0.3,2.5-0.5,4-0.5c1.7,0,3.3,0.1,4.8,0.4c1.5,0.3,2.7,0.7,3.7,1.3l-1.8,4.8c-0.6-0.4-1.5-0.7-2.7-1.1
						C-2.3,37.2-3.6,37-5,37c-1.3,0-2.3,0.3-3.1,0.8c-0.7,0.5-1.1,1.2-1.1,2.1c0,0.8,0.3,1.5,1,2.1c0.6,0.6,1.5,1.1,2.4,1.5
						c1,0.5,2,1,3.2,1.5s2.2,1.1,3.2,1.8c1,0.7,1.8,1.6,2.4,2.6c0.6,1,1,2.3,1,3.9c0,1.5-0.3,2.9-0.8,4c-0.5,1.1-1.2,2.1-2.2,2.8
						c-0.9,0.7-2,1.3-3.4,1.7c-1.3,0.4-2.8,0.5-4.3,0.5c-2.1,0-3.9-0.2-5.5-0.6c-1.6-0.4-2.7-0.8-3.5-1.2l1.8-4.9
						c0.3,0.2,0.7,0.3,1.2,0.5c0.5,0.2,1,0.4,1.6,0.5c0.6,0.2,1.3,0.3,1.9,0.4c0.7,0.1,1.4,0.2,2.1,0.2c1.7,0,3-0.3,3.9-0.9
						C-2,55.9-1.6,55.1-1.6,53.9" />
            <path class="st11" d="M6.5,51.3c0-3.5,0.9-6.2,2.6-8.1c1.7-1.9,4.1-2.8,7.2-2.8c1.7,0,3.1,0.3,4.3,0.8c1.2,0.5,2.2,1.3,3,2.2
						c0.8,1,1.4,2.1,1.8,3.5c0.4,1.4,0.6,2.8,0.6,4.5c0,3.5-0.9,6.2-2.6,8.1c-1.7,1.9-4.1,2.8-7.2,2.8c-1.7,0-3.1-0.3-4.3-0.8
						c-1.2-0.5-2.2-1.3-3.1-2.2c-0.8-1-1.4-2.1-1.8-3.5C6.7,54.4,6.5,52.9,6.5,51.3 M12.1,51.3c0,0.9,0.1,1.8,0.2,2.5
						c0.2,0.8,0.4,1.5,0.7,2c0.3,0.6,0.8,1,1.3,1.3c0.5,0.3,1.2,0.5,1.9,0.5c1.4,0,2.5-0.5,3.2-1.5c0.7-1,1-2.6,1-4.9
						c0-1.9-0.3-3.5-1-4.6c-0.6-1.2-1.7-1.8-3.2-1.8c-1.3,0-2.4,0.5-3.1,1.5C12.4,47.4,12.1,49,12.1,51.3" />
            <path class="st11" d="M34.1,40.9v11.8c0,1.7,0.2,2.9,0.6,3.7c0.4,0.7,1.2,1.1,2.3,1.1c1,0,1.9-0.3,2.6-0.9
						c0.7-0.6,1.2-1.4,1.5-2.2V40.9h5.4v14.4c0,1.1,0.1,2.2,0.2,3.3c0.1,1.1,0.3,2.1,0.5,3h-4.1l-1-3.1H42c-0.6,1.1-1.5,1.9-2.7,2.6
						c-1.1,0.7-2.5,1-4,1c-1.1,0-2-0.1-2.8-0.4c-0.8-0.3-1.5-0.7-2.1-1.4c-0.6-0.6-1-1.5-1.3-2.6c-0.3-1.1-0.4-2.4-0.4-4.1V40.9
						H34.1z" />
            <path class="st11" d="M62.2,46c-0.9-0.3-1.6-0.5-2.3-0.5c-1,0-1.8,0.3-2.4,0.8c-0.6,0.5-1.1,1.2-1.3,2v13.4h-5.4V40.9H55
						l0.6,2.7h0.2c0.5-1,1.1-1.8,1.9-2.4c0.8-0.6,1.7-0.8,2.8-0.8c0.7,0,2.2,0.3,3,0.7L62.2,46z" />
            <path class="st11" d="M79.7,60.4c-0.8,0.6-1.8,1.1-3,1.4c-1.2,0.3-2.4,0.5-3.6,0.5c-1.7,0-3.1-0.3-4.2-0.8
						c-1.1-0.5-2.1-1.3-2.8-2.2c-0.7-1-1.2-2.1-1.6-3.5c-0.3-1.4-0.5-2.8-0.5-4.5c0-3.5,0.8-6.2,2.4-8.1s3.9-2.8,6.9-2.8
						c1.5,0,2.7,0.1,3.7,0.4c0.9,0.2,1.8,0.6,2.5,1l-1.3,4.4c-0.6-0.3-1.3-0.5-1.9-0.7c-0.6-0.2-1.3-0.2-2.1-0.2
						c-1.5,0-2.6,0.5-3.4,1.5c-0.8,1-1.2,2.6-1.2,4.7c0,0.9,0.1,1.7,0.3,2.4c0.2,0.7,0.5,1.4,0.9,2c0.4,0.6,0.9,1,1.5,1.3
						c0.6,0.3,1.3,0.5,2.2,0.5c0.9,0,1.7-0.1,2.3-0.4c0.6-0.2,1.2-0.5,1.7-0.8L79.7,60.4z" />
            <path class="st11" d="M98.7,59.9c-0.8,0.7-2,1.2-3.4,1.7c-1.4,0.5-2.9,0.7-4.5,0.7c-3.3,0-5.8-1-7.3-2.9c-1.6-2-2.3-4.6-2.3-8
						c0-3.7,0.9-6.4,2.6-8.2c1.7-1.8,4.2-2.7,7.3-2.7c1.1,0,2.1,0.1,3.1,0.4c1,0.3,1.9,0.7,2.7,1.4s1.4,1.5,1.9,2.6
						c0.5,1.1,0.7,2.4,0.7,4c0,0.6,0,1.2-0.1,1.9c-0.1,0.7-0.2,1.4-0.3,2.1H86.5c0.1,1.7,0.5,3.1,1.3,3.9c0.8,0.9,2.1,1.3,4,1.3
						c1.1,0,2.1-0.2,3-0.5c0.9-0.3,1.6-0.7,2.1-1.1L98.7,59.9z M91,44.7c-1.4,0-2.5,0.4-3.1,1.3c-0.7,0.8-1.1,2-1.2,3.4h7.7
						c0.1-1.5-0.1-2.6-0.7-3.4C93.1,45.1,92.2,44.7,91,44.7" />
            <path class="st11"
              d="M120.3,61.7c0,3-0.8,5.2-2.4,6.7c-1.6,1.4-3.9,2.1-6.8,2.1c-2,0-3.6-0.1-4.7-0.4c-1.1-0.3-2-0.6-2.6-0.9
						l1.1-4.3c0.6,0.2,1.4,0.5,2.2,0.7c0.8,0.2,1.9,0.4,3.1,0.4c1.9,0,3.2-0.4,3.8-1.2c0.7-0.8,1-2,1-3.4v-1.3h-0.2
						c-1,1.3-2.7,1.9-5.1,1.9c-2.7,0-4.7-0.8-6-2.5c-1.3-1.7-2-4.3-2-7.8c0-3.7,0.9-6.5,2.7-8.4c1.8-1.9,4.3-2.9,7.7-2.9
						c1.8,0,3.4,0.1,4.8,0.4c1.4,0.2,2.5,0.5,3.4,0.9V61.7z M111.2,57.7c1.1,0,1.9-0.2,2.4-0.7c0.6-0.5,1-1.2,1.3-2.1v-9.3
						c-0.9-0.4-1.9-0.5-3.2-0.5c-1.4,0-2.5,0.5-3.2,1.6c-0.8,1-1.2,2.7-1.2,5c0,2,0.3,3.6,1,4.6C109,57.2,109.9,57.7,111.2,57.7" />
            <path class="st11" d="M135.9,46c-0.9-0.3-1.6-0.5-2.3-0.5c-1,0-1.8,0.3-2.4,0.8c-0.7,0.5-1.1,1.2-1.3,2v13.4h-5.4V40.9h4.2
						l0.6,2.7h0.2c0.5-1,1.1-1.8,1.9-2.4c0.8-0.6,1.7-0.8,2.8-0.8c0.7,0,1.5,0.2,2.4,0.5L135.9,46z" />
            <path class="st11" d="M138.5,42c1.1-0.5,1.9-0.7,3.4-1c1.5-0.3,3.1-0.4,4.8-0.4c1.4,0,2.6,0.2,3.6,0.5c1,0.3,1.7,0.8,2.3,1.5
						c0.6,0.6,1,1.4,1.2,2.3c0.2,0.9,0.4,1.9,0.4,3c0,1.2,0,2.4-0.1,3.7c-0.1,1.2-0.1,2.4-0.1,3.6c0,1.2,0,2.3,0.1,3.5
						c0.1,1.1,0.3,2.2,0.6,3.2h-4.4l-0.9-2.9h-0.2c-0.6,0.9-1.3,1.6-2.3,2.2c-1,0.6-2.2,0.9-3.8,0.9c-1,0-1.8-0.1-2.6-0.4
						c-0.8-0.3-1.4-0.7-2-1.2c-0.6-0.5-1-1.2-1.3-1.9c-0.3-0.7-0.5-1.6-0.5-2.5c0-1.3,0.3-2.3,0.9-3.2c0.6-0.9,1.4-1.6,2.4-2.1
						c1.1-0.5,2.3-0.9,3.8-1.1c1.5-0.2,3.1-0.3,5-0.2c0.2-1.5,0.1-2.7-0.3-3.3c-0.4-0.7-1.3-1-2.8-1c-1.1,0-2.2,0.1-3.4,0.3
						c-1.2,0.2-1.7,0.3-2.4,0.7L138.5,42z M144.9,57.6c1.1,0,1.9-0.2,2.6-0.7c0.6-0.5,1.1-1,1.4-1.6v-2.7c-0.9-0.1-1.7-0.1-2.5,0
						c-0.8,0.1-1.5,0.2-2.1,0.4c-0.6,0.2-1.1,0.5-1.5,0.8c-0.4,0.4-0.5,0.8-0.5,1.4c0,0.8,0.2,1.4,0.7,1.8
						C143.4,57.4,144.1,57.6,144.9,57.6" />
            <path class="st11" d="M158.2,40.9h3.9l0.6,2.5h0.2c0.7-1.1,1.6-1.8,2.6-2.3c1-0.5,2.2-0.7,3.6-0.7c2.6,0,4.6,0.8,5.9,2.5
						c1.3,1.6,2,4.3,2,7.9c0,1.8-0.2,3.4-0.6,4.8c-0.4,1.4-1,2.6-1.8,3.6c-0.8,1-1.8,1.8-3,2.3c-1.2,0.5-2.5,0.8-4,0.8
						c-0.9,0-1.6-0.1-2.1-0.2c-0.6-0.1-1.1-0.3-1.7-0.6V70h-5.4V40.9z M167.4,44.9c-1.1,0-1.9,0.3-2.5,0.8c-0.6,0.5-1.1,1.3-1.4,2.4
						v8.6c0.4,0.3,0.8,0.5,1.3,0.7c0.5,0.2,1.1,0.3,1.8,0.3c1.5,0,2.7-0.5,3.5-1.6c0.8-1.1,1.2-2.9,1.2-5.4c0-1.8-0.3-3.2-0.9-4.2
						C169.8,45.4,168.8,44.9,167.4,44.9" />
            <path class="st11" d="M192.6,61.7V49.9c0-1.7-0.2-2.9-0.7-3.7c-0.5-0.7-1.3-1.1-2.6-1.1c-0.9,0-1.7,0.3-2.5,0.9
						c-0.8,0.6-1.3,1.4-1.5,2.4v13.2h-5.4v-29h5.4v10.6h0.2c0.7-0.9,1.5-1.6,2.4-2.1c1-0.5,2.2-0.8,3.7-0.8c1,0,2,0.1,2.8,0.4
						c0.8,0.3,1.5,0.7,2,1.4c0.5,0.6,0.9,1.5,1.2,2.6c0.3,1.1,0.4,2.4,0.4,4v12.9H192.6z" />
          </g>
        </g>
      </g>
      <g class="st6">
        <g>
          <defs>
            <rect id="SVGID_11_" x="142.7" y="60.4" width="33" height="37" />
          </defs>
          <clipPath id="SVGID_12_">
            <use xlink:href="#SVGID_11_" style="overflow:visible;" />
          </clipPath>
          <g class="st12">
            <defs>
              <rect id="SVGID_13_" x="149.7" y="69.4" width="25" height="19" />
            </defs>
            <clipPath id="SVGID_14_">
              <use xlink:href="#SVGID_13_" style="overflow:visible;" />
            </clipPath>
            <path class="st16" d="M165.6,97c-0.9,0-1.6,0.3-2.2,1c-0.6,0.7-1.1,1.5-1.5,2.4c-0.5,1-0.9,2-1.4,3.2c-0.5,1.1-1.1,2.2-1.8,3.2
						c-0.7,1-1.6,1.8-2.6,2.4c-1.1,0.7-2.4,1-4,1c-1.4,0-2.6-0.2-3.7-0.7c-1-0.5-1.9-1.1-2.6-2c-0.7-0.9-1.2-1.9-1.5-3.1
						c-0.3-1.2-0.5-2.5-0.5-4c0-1.7,0.1-3.3,0.4-4.8c0.3-1.5,0.7-2.7,1.3-3.7l4.8,1.8c-0.4,0.6-0.7,1.5-1.1,2.7
						c-0.3,1.2-0.5,2.5-0.5,3.9c0,1.3,0.3,2.3,0.8,3.1c0.5,0.7,1.2,1.1,2.1,1.1c0.8,0,1.5-0.3,2.1-1c0.6-0.6,1.1-1.5,1.5-2.4
						c0.5-1,1-2,1.5-3.2c0.5-1.1,1.1-2.2,1.8-3.2c0.7-1,1.6-1.8,2.6-2.4c1-0.6,2.3-1,3.9-1c1.5,0,2.9,0.3,4,0.8
						c1.1,0.5,2.1,1.2,2.8,2.2c0.7,0.9,1.3,2,1.7,3.4c0.4,1.3,0.5,2.8,0.5,4.3c0,2.1-0.2,3.9-0.6,5.5c-0.4,1.6-0.8,2.7-1.2,3.5
						l-4.9-1.8c0.2-0.3,0.3-0.7,0.5-1.2c0.2-0.5,0.4-1,0.5-1.6c0.2-0.6,0.3-1.3,0.4-1.9c0.1-0.7,0.2-1.4,0.2-2.1
						c0-1.7-0.3-3-0.9-3.9C167.6,97.5,166.7,97,165.6,97" />
            <path class="st16" d="M163,89c-3.5,0-6.2-0.9-8.1-2.6c-1.9-1.7-2.8-4.1-2.8-7.2c0-1.7,0.3-3.1,0.8-4.3c0.5-1.2,1.3-2.2,2.2-3
						c1-0.8,2.1-1.4,3.5-1.8c1.4-0.4,2.8-0.6,4.5-0.6c3.5,0,6.2,0.9,8.1,2.6c1.9,1.7,2.8,4.1,2.8,7.2c0,1.7-0.3,3.1-0.8,4.3
						c-0.5,1.2-1.3,2.2-2.2,3.1c-1,0.8-2.1,1.4-3.5,1.8C166.1,88.8,164.6,89,163,89 M163,83.4c0.9,0,1.8-0.1,2.5-0.2
						c0.8-0.2,1.5-0.4,2-0.7c0.6-0.3,1-0.8,1.3-1.3c0.3-0.5,0.5-1.2,0.5-1.9c0-1.4-0.5-2.5-1.5-3.2c-1-0.7-2.6-1-4.9-1
						c-1.9,0-3.5,0.3-4.6,1c-1.2,0.6-1.8,1.7-1.8,3.2c0,1.3,0.5,2.4,1.5,3.1C159.1,83,160.7,83.4,163,83.4" />
            <path class="st16" d="M152.6,61.3h11.8c1.7,0,2.9-0.2,3.7-0.6c0.7-0.4,1.1-1.2,1.1-2.3c0-1-0.3-1.9-0.9-2.6
						c-0.6-0.7-1.4-1.2-2.2-1.5h-13.4v-5.4h14.4c1.1,0,2.2-0.1,3.3-0.2c1.1-0.1,2.1-0.3,3-0.5v4.1l-3.1,1v0.2
						c1.1,0.6,1.9,1.5,2.6,2.7c0.7,1.1,1,2.5,1,4c0,1.1-0.1,2-0.4,2.8c-0.3,0.8-0.7,1.5-1.4,2.1c-0.6,0.6-1.5,1-2.6,1.3
						c-1.1,0.3-2.4,0.4-4.1,0.4h-12.9V61.3z" />
            <path class="st16" d="M157.7,33.2c-0.3,0.9-0.5,1.6-0.5,2.3c0,1,0.3,1.8,0.8,2.4c0.5,0.6,1.2,1.1,2,1.3h13.4v5.4h-20.7v-4.2
						l2.7-0.6v-0.2c-1-0.5-1.8-1.1-2.4-1.9c-0.6-0.8-0.8-1.7-0.8-2.8c0-0.7,0.3-2.2,0.7-3L157.7,33.2z" />
            <path class="st16" d="M172.1,15.8c0.6,0.8,1.1,1.8,1.4,3c0.3,1.2,0.5,2.4,0.5,3.6c0,1.7-0.3,3.1-0.8,4.2
						c-0.5,1.1-1.3,2.1-2.2,2.8c-1,0.7-2.1,1.2-3.5,1.6c-1.4,0.3-2.9,0.5-4.5,0.5c-3.5,0-6.2-0.8-8.1-2.4s-2.8-3.9-2.8-6.9
						c0-1.5,0.1-2.7,0.4-3.7c0.2-0.9,0.6-1.8,1-2.5l4.4,1.3c-0.3,0.6-0.5,1.3-0.7,1.9c-0.2,0.6-0.2,1.3-0.2,2.1
						c0,1.5,0.5,2.6,1.5,3.4c1,0.8,2.6,1.2,4.7,1.2c0.9,0,1.7-0.1,2.4-0.3c0.7-0.2,1.4-0.5,2-0.9c0.6-0.4,1-0.9,1.3-1.5
						c0.3-0.6,0.5-1.3,0.5-2.2c0-0.9-0.1-1.7-0.4-2.3c-0.2-0.6-0.5-1.2-0.8-1.7L172.1,15.8z" />
            <path class="st16" d="M171.6-3.2c0.7,0.8,1.2,2,1.7,3.4c0.5,1.4,0.7,2.9,0.7,4.5c0,3.3-1,5.8-2.9,7.3c-2,1.6-4.6,2.3-8,2.3
						c-3.7,0-6.4-0.9-8.2-2.6C153,10,152,7.6,152,4.4c0-1.1,0.1-2.1,0.4-3.1c0.3-1,0.7-1.9,1.4-2.7c0.6-0.8,1.5-1.4,2.6-1.9
						c1.1-0.5,2.4-0.7,4-0.7c0.6,0,1.2,0,1.9,0.1c0.7,0.1,1.4,0.2,2.1,0.3V9c1.7-0.1,3.1-0.5,3.9-1.3c0.9-0.8,1.3-2.1,1.3-4
						c0-1.1-0.2-2.2-0.5-3s-0.7-1.6-1.1-2.1L171.6-3.2z M156.4,4.5c0,1.4,0.4,2.5,1.3,3.1c0.8,0.7,2,1.1,3.4,1.2V1.1
						c-1.5-0.1-2.6,0.1-3.4,0.7C156.8,2.4,156.4,3.3,156.4,4.5" />
          </g>
        </g>
      </g>
      <g class="st6">
        <g>
          <defs>
            <rect id="SVGID_15_" x="142.7" y="-3.5" width="33" height="37" />
          </defs>
          <clipPath id="SVGID_16_">
            <use xlink:href="#SVGID_15_" style="overflow:visible;" />
          </clipPath>
          <g class="st17">
            <defs>
              <rect id="SVGID_17_" x="149.7" y="5.5" width="25" height="19" />
            </defs>
            <clipPath id="SVGID_18_">
              <use xlink:href="#SVGID_17_" style="overflow:visible;" />
            </clipPath>
            <path class="st18" d="M182.3,77.1c0.5,2.5-1.2,4.9-3.7,5.3l-37,6.8c-2.5,0.5-4.9-1.2-5.3-3.7s1.2-4.9,3.7-5.3l37-6.8
						C179.4,72.9,181.8,74.6,182.3,77.1" />
            <path class="st19" d="M176,94.8c0.3,1.6-0.2,3.2-1.5,4.3c-1.9,1.6-4.8,1.4-6.5-0.5L143.6,70c-1.6-1.9-1.4-4.8,0.5-6.5
						c1.9-1.6,4.8-1.4,6.5,0.5l24.4,28.7C175.5,93.3,175.8,94,176,94.8" />
            <path class="st20" d="M170.1,62.8c0.1,0.8,0.1,1.6-0.2,2.4l-12.6,35.5c-0.8,2.4-3.5,3.6-5.9,2.8s-3.6-3.5-2.8-5.8L161.3,62
						c0.8-2.4,3.5-3.6,5.9-2.8C168.7,59.8,169.8,61.2,170.1,62.8" />
            <path class="st21" d="M165.6,33.1c-0.9,0-1.6,0.3-2.2,1c-0.6,0.6-1.1,1.5-1.5,2.4c-0.5,1-0.9,2-1.4,3.2
						c-0.5,1.1-1.1,2.2-1.8,3.2c-0.7,1-1.6,1.8-2.6,2.4c-1.1,0.7-2.4,1-4,1c-1.4,0-2.6-0.2-3.7-0.7c-1-0.5-1.9-1.1-2.6-2
						c-0.7-0.9-1.2-1.9-1.5-3.1c-0.3-1.2-0.5-2.5-0.5-4c0-1.7,0.1-3.3,0.4-4.8c0.3-1.5,0.7-2.7,1.3-3.7l4.8,1.8
						c-0.4,0.6-0.7,1.5-1.1,2.7c-0.3,1.2-0.5,2.5-0.5,3.9c0,1.3,0.3,2.3,0.8,3.1c0.5,0.7,1.2,1.1,2.1,1.1c0.8,0,1.5-0.3,2.1-1
						c0.6-0.6,1.1-1.5,1.5-2.4c0.5-1,1-2,1.5-3.2c0.5-1.1,1.1-2.2,1.8-3.2c0.7-1,1.6-1.8,2.6-2.4c1-0.6,2.3-1,3.9-1
						c1.5,0,2.9,0.3,4,0.8c1.1,0.5,2.1,1.2,2.8,2.2c0.7,0.9,1.3,2,1.7,3.4c0.4,1.3,0.5,2.8,0.5,4.3c0,2.1-0.2,3.9-0.6,5.5
						c-0.4,1.6-0.8,2.7-1.2,3.5l-4.9-1.8c0.2-0.3,0.3-0.7,0.5-1.2c0.2-0.5,0.4-1,0.5-1.6c0.2-0.6,0.3-1.3,0.4-1.9
						c0.1-0.7,0.2-1.4,0.2-2.1c0-1.7-0.3-3-0.9-3.9C167.6,33.5,166.7,33.1,165.6,33.1" />
            <path class="st21" d="M163,25c-3.5,0-6.2-0.9-8.1-2.6c-1.9-1.7-2.8-4.1-2.8-7.2c0-1.7,0.3-3.1,0.8-4.3c0.5-1.2,1.3-2.2,2.2-3
						c1-0.8,2.1-1.4,3.5-1.8c1.4-0.4,2.8-0.6,4.5-0.6c3.5,0,6.2,0.9,8.1,2.6c1.9,1.7,2.8,4.1,2.8,7.2c0,1.7-0.3,3.1-0.8,4.3
						c-0.5,1.2-1.3,2.2-2.2,3.1c-1,0.8-2.1,1.4-3.5,1.8C166.1,24.8,164.6,25,163,25 M163,19.5c0.9,0,1.8-0.1,2.5-0.2
						c0.8-0.2,1.5-0.4,2-0.7c0.6-0.3,1-0.8,1.3-1.3c0.3-0.5,0.5-1.2,0.5-1.9c0-1.4-0.5-2.5-1.5-3.2c-1-0.7-2.6-1-4.9-1
						c-1.9,0-3.5,0.3-4.6,1c-1.2,0.6-1.8,1.7-1.8,3.2c0,1.3,0.5,2.4,1.5,3.1C159.1,19.1,160.7,19.5,163,19.5" />
            <path class="st21" d="M152.6-2.6h11.8c1.7,0,2.9-0.2,3.7-0.6c0.7-0.4,1.1-1.2,1.1-2.3c0-1-0.3-1.9-0.9-2.6
						c-0.6-0.7-1.4-1.2-2.2-1.5h-13.4V-15h14.4c1.1,0,2.2-0.1,3.3-0.2c1.1-0.1,2.1-0.3,3-0.5v4.1l-3.1,1v0.2
						c1.1,0.6,1.9,1.5,2.6,2.7c0.7,1.1,1,2.5,1,4c0,1.1-0.1,2-0.4,2.8c-0.3,0.8-0.7,1.5-1.4,2.1c-0.6,0.6-1.5,1-2.6,1.3
						c-1.1,0.3-2.4,0.4-4.1,0.4h-12.9V-2.6z" />
          </g>
        </g>
      </g>
      <g class="st6">
        <g>
          <defs>
            <rect id="SVGID_19_" x="287.6" y="17.5" width="37" height="53.4" />
          </defs>
          <clipPath id="SVGID_20_">
            <use xlink:href="#SVGID_19_" style="overflow:visible;" />
          </clipPath>
          <g class="st22">
            <defs>
              <rect id="SVGID_21_" x="296.6" y="24.5" width="19" height="45.4" />
            </defs>
            <clipPath id="SVGID_22_">
              <use xlink:href="#SVGID_21_" style="overflow:visible;" />
            </clipPath>
            <path class="st23" d="M244,70.6c-2.5,0.5-4.9-1.2-5.3-3.7l-6.8-37c-0.5-2.5,1.2-4.9,3.7-5.3c2.5-0.5,4.9,1.2,5.3,3.7l6.8,37
						C248.2,67.7,246.5,70.1,244,70.6" />
            <path class="st24" d="M226.3,64.3c-1.6,0.3-3.2-0.2-4.3-1.5c-1.6-1.9-1.4-4.8,0.5-6.5l28.7-24.4c1.9-1.6,4.8-1.4,6.5,0.5
						c1.6,1.9,1.4,4.8-0.5,6.5l-28.7,24.4C227.8,63.8,227.1,64.1,226.3,64.3" />
            <path class="st25" d="M258.3,58.4c-0.8,0.1-1.6,0.1-2.4-0.2l-35.5-12.6c-2.4-0.8-3.6-3.5-2.8-5.9s3.5-3.6,5.9-2.8l35.5,12.6
						c2.4,0.8,3.6,3.5,2.8,5.9C261.3,57,259.9,58.1,258.3,58.4" />
            <path class="st26" d="M288,53.9c0-0.9-0.3-1.6-1-2.2c-0.6-0.6-1.5-1.1-2.4-1.5c-1-0.5-2-0.9-3.2-1.4c-1.1-0.5-2.2-1.1-3.2-1.8
						c-1-0.7-1.8-1.6-2.4-2.6c-0.7-1.1-1-2.4-1-4c0-1.4,0.2-2.6,0.7-3.7c0.5-1,1.1-1.9,2-2.6c0.9-0.7,1.9-1.2,3.1-1.5
						c1.2-0.3,2.5-0.5,4-0.5c1.7,0,3.3,0.1,4.8,0.4c1.5,0.3,2.7,0.7,3.7,1.3l-1.8,4.8c-0.6-0.4-1.5-0.7-2.7-1.1
						c-1.2-0.3-2.5-0.5-3.9-0.5c-1.3,0-2.3,0.3-3.1,0.8c-0.7,0.5-1.1,1.2-1.1,2.1c0,0.8,0.3,1.5,1,2.1c0.6,0.6,1.5,1.1,2.4,1.5
						c1,0.5,2,1,3.2,1.5c1.1,0.5,2.2,1.1,3.2,1.8c1,0.7,1.8,1.6,2.4,2.6c0.6,1,1,2.3,1,3.9c0,1.5-0.3,2.9-0.8,4
						c-0.5,1.1-1.2,2.1-2.2,2.8c-0.9,0.7-2,1.3-3.4,1.7c-1.3,0.4-2.8,0.5-4.3,0.5c-2.1,0-3.9-0.2-5.5-0.6c-1.6-0.4-2.7-0.8-3.5-1.2
						l1.8-4.9c0.3,0.2,0.7,0.3,1.2,0.5c0.5,0.2,1,0.4,1.6,0.5c0.6,0.2,1.3,0.3,1.9,0.4c0.7,0.1,1.4,0.2,2.1,0.2c1.7,0,3-0.3,3.9-0.9
						C287.6,55.9,288,55.1,288,53.9" />
            <path class="st26" d="M296.1,51.3c0-3.5,0.9-6.2,2.6-8.1c1.7-1.9,4.1-2.8,7.2-2.8c1.7,0,3.1,0.3,4.3,0.8c1.2,0.5,2.2,1.3,3,2.2
						c0.8,1,1.4,2.1,1.8,3.5c0.4,1.4,0.6,2.8,0.6,4.5c0,3.5-0.9,6.2-2.6,8.1c-1.7,1.9-4.1,2.8-7.2,2.8c-1.7,0-3.1-0.3-4.3-0.8
						c-1.2-0.5-2.2-1.3-3.1-2.2c-0.8-1-1.4-2.1-1.8-3.5C296.3,54.4,296.1,52.9,296.1,51.3 M301.6,51.3c0,0.9,0.1,1.8,0.2,2.5
						c0.2,0.8,0.4,1.5,0.7,2c0.3,0.6,0.8,1,1.3,1.3c0.5,0.3,1.2,0.5,1.9,0.5c1.4,0,2.5-0.5,3.2-1.5c0.7-1,1-2.6,1-4.9
						c0-1.9-0.3-3.5-1-4.6c-0.6-1.2-1.7-1.8-3.2-1.8c-1.3,0-2.4,0.5-3.1,1.5C302,47.4,301.6,49,301.6,51.3" />
            <path class="st26" d="M323.7,40.9v11.8c0,1.7,0.2,2.9,0.6,3.7c0.4,0.7,1.2,1.1,2.3,1.1c1,0,1.9-0.3,2.6-0.9
						c0.7-0.6,1.2-1.4,1.5-2.2V40.9h5.4v14.4c0,1.1,0.1,2.2,0.2,3.3c0.1,1.1,0.3,2.1,0.5,3h-4.1l-1-3.1h-0.2
						c-0.6,1.1-1.5,1.9-2.7,2.6c-1.1,0.7-2.5,1-4,1c-1.1,0-2-0.1-2.8-0.4c-0.8-0.3-1.5-0.7-2.1-1.4c-0.6-0.6-1-1.5-1.3-2.6
						c-0.3-1.1-0.4-2.4-0.4-4.1V40.9H323.7z" />
          </g>
        </g>
      </g>
    </g>
    <line class="st27" x1="7.3" y1="23.7" x2="315.9" y2="23.7" />
    <line class="st27" x1="7.3" y1="5.2" x2="315.9" y2="5.2" />
    <line class="st27" x1="7.3" y1="88.7" x2="315.9" y2="88.7" />
    <line class="st27" x1="7.3" y1="69.7" x2="315.9" y2="69.7" />
    <line class="st27" x1="7" y1="5.7" x2="7" y2="88.9" />
    <line class="st27" x1="296.6" y1="5.7" x2="296.6" y2="88.9" />
    <line class="st27" x1="26.3" y1="5.7" x2="26.3" y2="88.9" />
    <line class="st27" x1="315.6" y1="5.7" x2="315.6" y2="88.9" />
  </g>
</svg>
