<?xml version="1.0" encoding="utf-8"?>
<!-- Generator: Adobe Illustrator 24.1.0, SVG Export Plug-In . SVG Version: 6.00 Build 0)  -->
<svg version="1.1" id="Layer_1" xmlns="http://www.w3.org/2000/svg" xmlns:xlink="http://www.w3.org/1999/xlink" x="0px"
  y="0px" viewBox="0 0 76.8 48.5" style="enable-background:new 0 0 76.8 48.5;" xml:space="preserve">
  <style type="text/css">
    @import url(https://fonts.googleapis.com/css2?family=Source+Code+Pro:ital,wght@0,200;0,400;0,600;0,700;1,200;1,400;1,600;1,700&amp;family=Source+Sans+Pro:ital,wght@0,200;0,400;0,600;0,700;1,200;1,400;1,600;1,700&amp;display=swap);

    .st0 {
      fill: none;
      stroke: #242427;
      stroke-width: 0.5;
    }

    .st1 {
      clip-path: url(#SVGID_2_);
      fill: #FF5543;
    }

    .st2 {
      clip-path: url(#SVGID_2_);
      fill: #A112FF;
    }

    .st3 {
      clip-path: url(#SVGID_2_);
      fill: #00CBEC;
    }

    .st4 {
      clip-path: url(#SVGID_2_);
    }

    .st5 {
      font-family: 'Source Sans Pro', sans-serif;
    }

    .st6 {
      font-size: 10px;
    }
  </style>
  <polyline class="st0" points="6.2,19.2 6.2,27.2 70.6,27.2 70.6,19.2 " />
  <g>
    <defs>
      <rect id="SVGID_1_" x="6" y="4" width="64.8" height="10.9" />
    </defs>
    <clipPath id="SVGID_2_">
      <use xlink:href="#SVGID_1_" style="overflow:visible;" />
    </clipPath>
    <path class="st1" d="M12.4,15.1c-0.6,0.1-1.2-0.3-1.3-0.9L9.5,5.3C9.3,4.7,9.7,4.1,10.3,4s1.2,0.3,1.3,0.9l1.6,8.9
		C13.4,14.4,13,15,12.4,15.1" />
    <path class="st2" d="M8.1,13.5c-0.4,0.1-0.8-0.1-1-0.4c-0.4-0.5-0.3-1.2,0.1-1.6l6.9-5.9c0.5-0.4,1.2-0.3,1.5,0.1
		C16,6.4,16,7.1,15.5,7.4l-6.9,5.9C8.5,13.4,8.3,13.5,8.1,13.5" />
    <path class="st3" d="M15.8,12.1c-0.2,0-0.4,0-0.6,0l-8.5-3C6.2,8.9,5.9,8.2,6.1,7.7C6.3,7.1,6.9,6.8,7.5,7l8.5,3
		c0.6,0.2,0.9,0.8,0.7,1.4C16.5,11.8,16.2,12.1,15.8,12.1" />
    <path class="st4" d="M22.9,11.1c0-0.2-0.1-0.4-0.2-0.5c-0.2-0.1-0.4-0.3-0.6-0.4c-0.2-0.1-0.5-0.2-0.8-0.3
		c-0.3-0.1-0.5-0.3-0.8-0.4C20.3,9.2,20.1,9,20,8.8s-0.2-0.6-0.2-1c0-0.3,0.1-0.6,0.2-0.9c0.1-0.2,0.3-0.5,0.5-0.6
		c0.2-0.2,0.5-0.3,0.7-0.4c0.3-0.1,0.6-0.1,1-0.1c0.4,0,0.8,0,1.1,0.1c0.4,0.1,0.7,0.2,0.9,0.3l-0.4,1.1c-0.1-0.1-0.4-0.2-0.7-0.3
		S22.4,7,22.1,7c-0.3,0-0.6,0.1-0.7,0.2c-0.2,0.1-0.3,0.3-0.3,0.5c0,0.2,0.1,0.4,0.2,0.5c0.2,0.1,0.4,0.3,0.6,0.4
		c0.2,0.1,0.5,0.2,0.8,0.3C23,9,23.2,9.2,23.5,9.3c0.2,0.2,0.4,0.4,0.6,0.6s0.2,0.6,0.2,0.9c0,0.4-0.1,0.7-0.2,1
		c-0.1,0.3-0.3,0.5-0.5,0.7c-0.2,0.2-0.5,0.3-0.8,0.4c-0.3,0.1-0.7,0.1-1,0.1c-0.5,0-0.9,0-1.3-0.1s-0.7-0.2-0.8-0.3l0.4-1.2
		c0.1,0,0.2,0.1,0.3,0.1c0.1,0,0.2,0.1,0.4,0.1c0.1,0,0.3,0.1,0.5,0.1c0.2,0,0.3,0,0.5,0c0.4,0,0.7-0.1,0.9-0.2
		C22.8,11.5,22.9,11.3,22.9,11.1" />
    <path class="st4" d="M24.9,10.4c0-0.8,0.2-1.5,0.6-1.9c0.4-0.5,1-0.7,1.7-0.7c0.4,0,0.7,0.1,1,0.2s0.5,0.3,0.7,0.5
		c0.2,0.2,0.3,0.5,0.4,0.8c0.1,0.3,0.1,0.7,0.1,1.1c0,0.8-0.2,1.5-0.6,1.9c-0.4,0.5-1,0.7-1.7,0.7c-0.4,0-0.7-0.1-1-0.2
		s-0.5-0.3-0.7-0.5c-0.2-0.2-0.3-0.5-0.4-0.8C24.9,11.2,24.9,10.8,24.9,10.4 M26.2,10.4c0,0.2,0,0.4,0.1,0.6c0,0.2,0.1,0.3,0.2,0.5
		c0.1,0.1,0.2,0.2,0.3,0.3c0.1,0.1,0.3,0.1,0.5,0.1c0.3,0,0.6-0.1,0.8-0.4c0.2-0.2,0.2-0.6,0.2-1.2c0-0.5-0.1-0.8-0.2-1.1
		c-0.2-0.3-0.4-0.4-0.8-0.4c-0.3,0-0.6,0.1-0.7,0.4C26.3,9.5,26.2,9.9,26.2,10.4" />
    <path class="st4" d="M31.5,7.9v2.8c0,0.4,0,0.7,0.1,0.9c0.1,0.2,0.3,0.3,0.6,0.3c0.2,0,0.5-0.1,0.6-0.2c0.2-0.1,0.3-0.3,0.4-0.5
		V7.9h1.3v3.5c0,0.3,0,0.5,0,0.8c0,0.3,0.1,0.5,0.1,0.7h-1l-0.2-0.7h0c-0.2,0.3-0.4,0.5-0.6,0.6c-0.3,0.2-0.6,0.2-1,0.2
		c-0.3,0-0.5,0-0.7-0.1c-0.2-0.1-0.4-0.2-0.5-0.3c-0.1-0.2-0.2-0.4-0.3-0.6c-0.1-0.3-0.1-0.6-0.1-1V7.9H31.5z" />
    <path class="st4" d="M38.2,9.2c-0.2-0.1-0.4-0.1-0.6-0.1c-0.2,0-0.4,0.1-0.6,0.2c-0.2,0.1-0.3,0.3-0.3,0.5v3.2h-1.3v-5h1l0.1,0.7h0
		c0.1-0.2,0.3-0.4,0.5-0.6c0.2-0.1,0.4-0.2,0.7-0.2c0.2,0,0.5,0.1,0.7,0.2L38.2,9.2z" />
    <path class="st4" d="M42.4,12.6c-0.2,0.1-0.4,0.3-0.7,0.3c-0.3,0.1-0.6,0.1-0.9,0.1c-0.4,0-0.7-0.1-1-0.2c-0.3-0.1-0.5-0.3-0.7-0.5
		c-0.2-0.2-0.3-0.5-0.4-0.8c-0.1-0.3-0.1-0.7-0.1-1.1c0-0.8,0.2-1.5,0.6-1.9c0.4-0.5,0.9-0.7,1.7-0.7c0.4,0,0.7,0,0.9,0.1
		C42,8,42.2,8,42.4,8.1l-0.3,1.1c-0.2-0.1-0.3-0.1-0.5-0.2C41.5,9,41.3,9,41.1,9c-0.4,0-0.6,0.1-0.8,0.4C40.1,9.5,40,9.9,40,10.4
		c0,0.2,0,0.4,0.1,0.6c0,0.2,0.1,0.3,0.2,0.5c0.1,0.1,0.2,0.2,0.4,0.3c0.1,0.1,0.3,0.1,0.5,0.1c0.2,0,0.4,0,0.6-0.1
		c0.2-0.1,0.3-0.1,0.4-0.2L42.4,12.6z" />
    <path class="st4" d="M47,12.5c-0.2,0.2-0.5,0.3-0.8,0.4c-0.3,0.1-0.7,0.2-1.1,0.2c-0.8,0-1.4-0.2-1.8-0.7c-0.4-0.5-0.6-1.1-0.6-1.9
		c0-0.9,0.2-1.5,0.6-2c0.4-0.4,1-0.7,1.8-0.7c0.3,0,0.5,0,0.7,0.1c0.2,0.1,0.5,0.2,0.6,0.3c0.2,0.2,0.3,0.4,0.4,0.6
		c0.1,0.3,0.2,0.6,0.2,1c0,0.1,0,0.3,0,0.4c0,0.2,0,0.3-0.1,0.5h-3c0,0.4,0.1,0.7,0.3,0.9c0.2,0.2,0.5,0.3,1,0.3
		c0.3,0,0.5,0,0.7-0.1c0.2-0.1,0.4-0.2,0.5-0.3L47,12.5z M45.1,8.8c-0.3,0-0.6,0.1-0.8,0.3c-0.2,0.2-0.3,0.5-0.3,0.8h1.9
		c0-0.4,0-0.6-0.2-0.8C45.6,8.9,45.4,8.8,45.1,8.8" />
    <path class="st4" d="M52.2,12.9c0,0.7-0.2,1.3-0.6,1.6c-0.4,0.3-0.9,0.5-1.6,0.5c-0.5,0-0.9,0-1.1-0.1c-0.3-0.1-0.5-0.1-0.6-0.2
		l0.3-1c0.2,0.1,0.3,0.1,0.5,0.2c0.2,0.1,0.5,0.1,0.8,0.1c0.5,0,0.8-0.1,0.9-0.3c0.2-0.2,0.2-0.5,0.2-0.8v-0.3h0
		c-0.2,0.3-0.6,0.5-1.2,0.5c-0.6,0-1.1-0.2-1.4-0.6c-0.3-0.4-0.5-1-0.5-1.9c0-0.9,0.2-1.6,0.6-2s1-0.7,1.9-0.7c0.4,0,0.8,0,1.1,0.1
		C51.7,8,51.9,8,52.2,8.1V12.9z M50,12c0.3,0,0.4-0.1,0.6-0.2c0.1-0.1,0.2-0.3,0.3-0.5V9.1c-0.2-0.1-0.5-0.1-0.8-0.1
		c-0.3,0-0.6,0.1-0.8,0.4C49.1,9.5,49,9.9,49,10.5c0,0.5,0.1,0.9,0.2,1.1C49.4,11.8,49.7,12,50,12" />
    <path class="st4" d="M55.9,9.2c-0.2-0.1-0.4-0.1-0.6-0.1c-0.2,0-0.4,0.1-0.6,0.2c-0.2,0.1-0.3,0.3-0.3,0.5v3.2h-1.3v-5h1l0.1,0.7h0
		c0.1-0.2,0.3-0.4,0.5-0.6c0.2-0.1,0.4-0.2,0.7-0.2c0.2,0,0.4,0,0.6,0.1L55.9,9.2z" />
    <path class="st4" d="M56.5,8.2C56.8,8.1,57,8,57.4,8c0.4-0.1,0.7-0.1,1.1-0.1c0.3,0,0.6,0,0.9,0.1c0.2,0.1,0.4,0.2,0.6,0.4
		c0.1,0.2,0.2,0.3,0.3,0.5c0.1,0.2,0.1,0.5,0.1,0.7c0,0.3,0,0.6,0,0.9c0,0.3,0,0.6,0,0.9c0,0.3,0,0.6,0,0.8c0,0.3,0.1,0.5,0.2,0.8
		h-1.1l-0.2-0.7h0c-0.1,0.2-0.3,0.4-0.6,0.5C58.3,12.9,58,13,57.6,13c-0.2,0-0.4,0-0.6-0.1c-0.2-0.1-0.3-0.2-0.5-0.3
		c-0.1-0.1-0.2-0.3-0.3-0.5c-0.1-0.2-0.1-0.4-0.1-0.6c0-0.3,0.1-0.6,0.2-0.8c0.1-0.2,0.3-0.4,0.6-0.5c0.3-0.1,0.6-0.2,0.9-0.3
		c0.4,0,0.8-0.1,1.2,0c0-0.4,0-0.6-0.1-0.8c-0.1-0.2-0.3-0.2-0.7-0.2c-0.3,0-0.5,0-0.8,0.1S57,9.1,56.8,9.2L56.5,8.2z M58.1,11.9
		c0.3,0,0.5-0.1,0.6-0.2c0.2-0.1,0.3-0.2,0.3-0.4v-0.6c-0.2,0-0.4,0-0.6,0c-0.2,0-0.4,0-0.5,0.1c-0.1,0-0.3,0.1-0.3,0.2
		c-0.1,0.1-0.1,0.2-0.1,0.3c0,0.2,0.1,0.3,0.2,0.4C57.7,11.9,57.9,11.9,58.1,11.9" />
    <path class="st4" d="M61.3,7.9h0.9l0.1,0.6h0C62.6,8.3,62.8,8.1,63,8c0.2-0.1,0.5-0.2,0.9-0.2c0.6,0,1.1,0.2,1.4,0.6
		c0.3,0.4,0.5,1,0.5,1.9c0,0.4,0,0.8-0.1,1.1c-0.1,0.3-0.2,0.6-0.4,0.9c-0.2,0.2-0.4,0.4-0.7,0.5c-0.3,0.1-0.6,0.2-1,0.2
		c-0.2,0-0.4,0-0.5,0c-0.1,0-0.3-0.1-0.4-0.1v2h-1.3V7.9z M63.5,8.9c-0.3,0-0.5,0.1-0.6,0.2c-0.1,0.1-0.3,0.3-0.3,0.6v2.1
		c0.1,0.1,0.2,0.1,0.3,0.2c0.1,0,0.3,0.1,0.4,0.1c0.4,0,0.7-0.1,0.8-0.4c0.2-0.3,0.3-0.7,0.3-1.3c0-0.4-0.1-0.8-0.2-1
		C64,9,63.8,8.9,63.5,8.9" />
    <path class="st4" d="M69.5,12.9v-2.8c0-0.4-0.1-0.7-0.2-0.9S69,9,68.7,9c-0.2,0-0.4,0.1-0.6,0.2c-0.2,0.1-0.3,0.3-0.4,0.6v3.2h-1.3
		V6h1.3v2.5h0C68,8.3,68.1,8.1,68.4,8c0.2-0.1,0.5-0.2,0.9-0.2c0.3,0,0.5,0,0.7,0.1c0.2,0.1,0.4,0.2,0.5,0.3
		c0.1,0.2,0.2,0.4,0.3,0.6c0.1,0.3,0.1,0.6,0.1,1v3.1H69.5z" />
  </g>
  <text transform="matrix(1 0 0 1 29.8976 43.5669)" class="st5 st6">0.9”</text>
</svg>
