<svg id="Layer_1" data-name="Layer 1" xmlns="http://www.w3.org/2000/svg" xmlns:xlink="http://www.w3.org/1999/xlink" viewBox="0 0 243 111">
  <defs>
    <style>
      @import url(https://fonts.googleapis.com/css2?family=Source+Code+Pro:ital,wght@0,200;0,400;0,600;0,700;1,200;1,400;1,600;1,700&amp;family=Source+Sans+Pro:ital,wght@0,200;0,400;0,600;0,700;1,200;1,400;1,600;1,700&amp;display=swap);

      .cls-1, .cls-15, .cls-3 {
        fill: none;
      }

      .cls-2 {
        fill: #fff;
      }

      .cls-3 {
        stroke: #a7a9ac;
        stroke-width: 0.5px;
      }

      .cls-4 {
        clip-path: url(#clip-path);
      }

      .cls-5, .cls-8 {
        fill: #ff5543;
      }

      .cls-10, .cls-6 {
        fill: #a112ff;
      }

      .cls-7 {
        fill: #00cbec;
      }

      .cls-10, .cls-11, .cls-12, .cls-8, .cls-9 {
        font-size: 19.24px;
      }

      .cls-8, .cls-9 {
        font-family: 'Source Sans Pro', sans-serif;
        font-weight: 700;
      }

      .cls-9 {
        fill: #47ed24;
      }

      .cls-10, .cls-11, .cls-12 {
        font-family: 'Source Sans Pro', sans-serif;
      }

      .cls-11 {
        fill: #242427;
      }

      .cls-12 {
        fill: #5033e1;
      }

      .cls-13 {
        clip-path: url(#clip-path-2);
      }

      .cls-14 {
        fill: #ed2e20;
      }

      .cls-15 {
        stroke: #fff;
        stroke-miterlimit: 10;
      }
    </style>
    <clipPath id="clip-path">
      <rect class="cls-1" x="18" y="17.92" width="98.87" height="16.63"/>
    </clipPath>
    <clipPath id="clip-path-2">
      <rect class="cls-1" x="-263.85" y="-38.5" width="762.95" height="347.58"/>
    </clipPath>
  </defs>
  <rect class="cls-2" x="-0.05" y="-0.3" width="242.8" height="111.27"/>
  <g class="cls-4">
    <path class="cls-5" d="M27.72,34.8a1.69,1.69,0,0,1-1.95-1.35L23.28,19.9a1.67,1.67,0,1,1,3.29-.61l2.5,13.55a1.7,1.7,0,0,1-1.35,2"/>
    <path class="cls-6" d="M21.23,32.49a1.68,1.68,0,0,1-1.39-2.93l10.49-8.93a1.67,1.67,0,1,1,2.17,2.55L22,32.12a1.71,1.71,0,0,1-.78.37"/>
    <path class="cls-7" d="M33,30.33a1.7,1.7,0,0,1-.86-.07l-13-4.62a1.68,1.68,0,0,1,1.12-3.16l13,4.62A1.68,1.68,0,0,1,33,30.33"/>
    <path d="M43.82,28.68a1,1,0,0,0-.36-.79,3.57,3.57,0,0,0-.89-.55l-1.17-.52a6.63,6.63,0,0,1-1.17-.65,3.34,3.34,0,0,1-.9-1A2.71,2.71,0,0,1,39,23.73a3.29,3.29,0,0,1,.25-1.35,2.66,2.66,0,0,1,.74-.95,3.24,3.24,0,0,1,1.13-.56,5.51,5.51,0,0,1,1.46-.18,8.9,8.9,0,0,1,1.75.16,4.73,4.73,0,0,1,1.35.46L45,23.06a3.93,3.93,0,0,0-1-.39,5.92,5.92,0,0,0-1.44-.17,1.8,1.8,0,0,0-1.12.29.93.93,0,0,0-.38.77,1,1,0,0,0,.35.76,4.22,4.22,0,0,0,.9.56c.36.17.75.35,1.17.53a6.71,6.71,0,0,1,1.17.67,3.27,3.27,0,0,1,.9,1,2.72,2.72,0,0,1,.35,1.42,3.47,3.47,0,0,1-.28,1.47,2.75,2.75,0,0,1-.79,1,3.23,3.23,0,0,1-1.23.61,6.07,6.07,0,0,1-1.59.2,8.53,8.53,0,0,1-2-.21,6.9,6.9,0,0,1-1.28-.43l.67-1.78.43.2a6,6,0,0,0,.6.2c.23.06.46.11.71.15a4.81,4.81,0,0,0,.77.06,2.65,2.65,0,0,0,1.42-.31,1,1,0,0,0,.49-.95"/>
    <path d="M46.78,27.74a4.25,4.25,0,0,1,.94-3,3.36,3.36,0,0,1,2.64-1,3.81,3.81,0,0,1,1.58.29,2.86,2.86,0,0,1,1.11.81,3.27,3.27,0,0,1,.66,1.27,5.61,5.61,0,0,1,.22,1.64,4.33,4.33,0,0,1-.93,3,3.37,3.37,0,0,1-2.64,1,4,4,0,0,1-1.58-.29,3,3,0,0,1-1.11-.81A3.29,3.29,0,0,1,47,29.38a5.66,5.66,0,0,1-.22-1.64m2,0a4.59,4.59,0,0,0,.09.93,2.92,2.92,0,0,0,.28.74,1.26,1.26,0,0,0,.48.49,1.3,1.3,0,0,0,.7.18,1.32,1.32,0,0,0,1.16-.56,3.29,3.29,0,0,0,.38-1.78,3.61,3.61,0,0,0-.35-1.7,1.25,1.25,0,0,0-1.19-.64,1.35,1.35,0,0,0-1.14.55,3,3,0,0,0-.41,1.79"/>
    <path d="M56.89,23.94v4.32a2.91,2.91,0,0,0,.23,1.33A.86.86,0,0,0,58,30a1.37,1.37,0,0,0,.94-.33,2,2,0,0,0,.55-.82V23.94h2v5.29c0,.41,0,.82.06,1.22a8,8,0,0,0,.18,1.09H60.19l-.35-1.13h-.06a2.79,2.79,0,0,1-1,1,2.82,2.82,0,0,1-1.47.38,3.35,3.35,0,0,1-1-.15,1.77,1.77,0,0,1-.76-.5,2.5,2.5,0,0,1-.46-.94,5.75,5.75,0,0,1-.16-1.49V23.94Z"/>
    <path d="M67.18,25.79a2.58,2.58,0,0,0-.85-.16,1.39,1.39,0,0,0-.89.28,1.48,1.48,0,0,0-.48.72v4.91H63v-7.6h1.53l.23,1h.06a2.08,2.08,0,0,1,.7-.86,1.81,1.81,0,0,1,1-.31,3.51,3.51,0,0,1,1.12.27Z"/>
    <path d="M73.57,31.07a3.18,3.18,0,0,1-1.1.5,4.91,4.91,0,0,1-1.33.18,3.74,3.74,0,0,1-1.54-.29,2.56,2.56,0,0,1-1-.81A3.15,3.15,0,0,1,68,29.38a7,7,0,0,1-.18-1.64,4.5,4.5,0,0,1,.87-3,3.11,3.11,0,0,1,2.52-1,5.4,5.4,0,0,1,1.34.13,5.19,5.19,0,0,1,.92.35L73,25.82a3.83,3.83,0,0,0-.69-.25,3.08,3.08,0,0,0-.78-.1,1.5,1.5,0,0,0-1.25.54,2.84,2.84,0,0,0-.42,1.73,3.57,3.57,0,0,0,.1.89,2.38,2.38,0,0,0,.32.72,1.54,1.54,0,0,0,.56.48,1.81,1.81,0,0,0,.8.17,2.41,2.41,0,0,0,.85-.13,2.76,2.76,0,0,0,.62-.31Z"/>
    <path d="M80.53,30.88a3.88,3.88,0,0,1-1.24.62,5.34,5.34,0,0,1-1.66.25,3.23,3.23,0,0,1-2.69-1.07,4.59,4.59,0,0,1-.85-2.94,4.25,4.25,0,0,1,1-3,3.55,3.55,0,0,1,2.69-1,4.28,4.28,0,0,1,1.13.15,2.64,2.64,0,0,1,1,.5,2.48,2.48,0,0,1,.68.94,3.77,3.77,0,0,1,.26,1.48,5.49,5.49,0,0,1,0,.68,7.33,7.33,0,0,1-.11.76H76.06a2.2,2.2,0,0,0,.5,1.44,1.85,1.85,0,0,0,1.45.49A3,3,0,0,0,79.12,30a3.19,3.19,0,0,0,.75-.39ZM77.7,25.31a1.36,1.36,0,0,0-1.14.46A2.27,2.27,0,0,0,76.11,27h2.82a1.89,1.89,0,0,0-.25-1.26,1.12,1.12,0,0,0-1-.44"/>
    <path d="M88.43,31.54A3.08,3.08,0,0,1,87.54,34a3.67,3.67,0,0,1-2.51.79,7.74,7.74,0,0,1-1.72-.15,4.9,4.9,0,0,1-1-.32l.41-1.57c.23.09.5.18.81.28a4.19,4.19,0,0,0,1.15.13,1.76,1.76,0,0,0,1.4-.45,1.88,1.88,0,0,0,.37-1.25v-.49h-.06a2.19,2.19,0,0,1-1.88.72,2.66,2.66,0,0,1-2.2-.91,4.61,4.61,0,0,1-.72-2.86,4.41,4.41,0,0,1,1-3.08,3.67,3.67,0,0,1,2.83-1,9.15,9.15,0,0,1,1.74.14,7.32,7.32,0,0,1,1.25.31Zm-3.34-1.46a1.37,1.37,0,0,0,.89-.26,1.59,1.59,0,0,0,.48-.77V25.63a3.11,3.11,0,0,0-1.17-.2A1.41,1.41,0,0,0,84.1,26a3.09,3.09,0,0,0-.42,1.82A3.2,3.2,0,0,0,84,29.5a1.18,1.18,0,0,0,1,.58"/>
    <path d="M94.15,25.79a2.63,2.63,0,0,0-.86-.16,1.35,1.35,0,0,0-1.36,1v4.91H90v-7.6h1.54l.22,1h.07a2.06,2.06,0,0,1,.69-.86,1.82,1.82,0,0,1,1-.31,2.89,2.89,0,0,1,.89.17Z"/>
    <path d="M95.12,24.32A4.3,4.3,0,0,1,96.37,24a8.94,8.94,0,0,1,1.74-.16,3.94,3.94,0,0,1,1.33.19,2.11,2.11,0,0,1,.84.54,2,2,0,0,1,.44.83,4.15,4.15,0,0,1,.13,1.1c0,.44,0,.89,0,1.34s0,.9,0,1.33,0,.86,0,1.27a4.34,4.34,0,0,0,.23,1.16H99.41l-.32-1.05H99a2.47,2.47,0,0,1-2.23,1.16,2.84,2.84,0,0,1-1-.16,2.11,2.11,0,0,1-.73-.46,2,2,0,0,1-.47-.7,2.33,2.33,0,0,1-.17-.9,2.18,2.18,0,0,1,.31-1.18,2.28,2.28,0,0,1,.9-.77,4.27,4.27,0,0,1,1.4-.41A9.55,9.55,0,0,1,98.87,27a2,2,0,0,0-.12-1.22c-.15-.25-.49-.38-1-.38a6.25,6.25,0,0,0-1.25.13,3.09,3.09,0,0,0-.89.25ZM97.43,30a1.54,1.54,0,0,0,.94-.26,1.82,1.82,0,0,0,.52-.57v-1a5.6,5.6,0,0,0-.91,0,3.32,3.32,0,0,0-.76.14,1.29,1.29,0,0,0-.53.3.67.67,0,0,0-.2.51.86.86,0,0,0,.25.66,1,1,0,0,0,.69.23"/>
    <path d="M102.31,23.94h1.44l.23.91H104A2.5,2.5,0,0,1,105,24a2.93,2.93,0,0,1,1.32-.27,2.57,2.57,0,0,1,2.14.9,4.77,4.77,0,0,1,.71,2.91,6.05,6.05,0,0,1-.23,1.76,3.7,3.7,0,0,1-.67,1.33,3,3,0,0,1-1.1.83,3.62,3.62,0,0,1-1.48.29,3.31,3.31,0,0,1-.77-.07,2.49,2.49,0,0,1-.61-.22v3.12h-2Zm3.38,1.46a1.33,1.33,0,0,0-.9.29,1.84,1.84,0,0,0-.51.86v3.16a1.59,1.59,0,0,0,1.13.37,1.45,1.45,0,0,0,1.27-.6,3.54,3.54,0,0,0,.43-2,3,3,0,0,0-.34-1.55,1.16,1.16,0,0,0-1.08-.55"/>
    <path d="M114.9,31.54V27.22a2.59,2.59,0,0,0-.26-1.33,1,1,0,0,0-.94-.41,1.4,1.4,0,0,0-.92.34,1.69,1.69,0,0,0-.56.87v4.85h-2V20.9h2v3.89h.07a2.58,2.58,0,0,1,2.24-1.06,3.13,3.13,0,0,1,1,.15,1.71,1.71,0,0,1,.74.5,2.27,2.27,0,0,1,.44.95,6.24,6.24,0,0,1,.14,1.48v4.73Z"/>
  </g>
  <text class="cls-8" transform="translate(16.3 70.1)">Universal</text>
  <text class="cls-9" transform="translate(97.23 70.1)"> </text>
  <text class="cls-10" transform="translate(16.29 89.33)">code</text>
  <text class="cls-11" transform="translate(55.7 89.33)"> </text>
  <text class="cls-12" transform="translate(59.55 89.33)">search</text>
  <g class="cls-13">
    <path class="cls-14" d="M233.25,14.3a6,6,0,1,0-6-6,6,6,0,0,0,6,6"/>
  </g>
  <path class="cls-15" d="M236.77,11.7l-6.84-6.84m6.84,0-6.84,6.84"/>
</svg>
