<?xml version="1.0" encoding="utf-8"?>
<svg version="1.1" xmlns="http://www.w3.org/2000/svg" viewBox="0 0 555 514">
  <title>Venn diagram of how we express our brand</title>
  <style>
    @import url(https://fonts.googleapis.com/css2?family=Source+Code+Pro:ital,wght@0,200;0,400;0,600;0,700;1,200;1,400;1,600;1,700&amp;family=Source+Sans+Pro:ital,wght@0,200;0,400;0,600;0,700;1,200;1,400;1,600;1,700&amp;display=swap);

    svg {
      font-family: 'Source Sans Pro', sans-serif;
      font-size: 16px;
    }

    .heading {
      font-weight: 600;
      font-size: 30px;
    }

    .circle {
      fill: none;
      stroke-width: 1.1;
    }

    .stroke-vermillion {
      stroke: #FF5543;
    }

    .fill-vermillion {
      fill: #FF5543;
    }

    .stroke-sky-blue {
      stroke: #00CBEC;
    }

    .fill-sky-blue {
      fill: #00CBEC;
    }

    .stroke-vivid-violet {
      stroke: #A112FF;
    }

    .fill-vivid-violet {
      fill: #A112FF;
    }
  </style>
  <g role="group" aria-label="Three intersecting circles with a Sourcegraph logo in the center">=
    <mask maskUnits="userSpaceOnUse" x="18.7" y="17.4" width="517.5" height="479.7" id="circles-center-cutout">
      <rect x="0" y="0" width="100%" height="100%" fill="white" />
      <circle cx="276.9" cy="223.7" r="46" fill="black" />
    </mask>
    <g id="Circles" mask="url(#circles-center-cutout)">
      <a href="/departments/engineering/design/brand_guidelines/brand-expression/#brand-voice" target="_top">
        <g id="Brand_voice_circle" aria-label="Top-left blue circle">
          <circle id="Blue_circle" class="circle stroke-sky-blue" cx="159.8" cy="158.4" r="140.5" />
          <text transform="matrix(1 0 0 1 70.9427 122.5575)">
            <tspan role="heading" aria-level="1" x="0" y="0" class="heading">Brand voice</tspan>
            <tspan x="-2.1" y="32">Our unique personality </tspan>
            <tspan x="-2.5" y="54">and tone — it’s the way </tspan>
            <tspan x="16.7" y="76">we communicate.</tspan>
          </text>
        </g>
      </a>
      <a href="/departments/engineering/design/brand_guidelines/brand-expression/#brand-story" target="_top">
        <g id="Brand_story_circle" aria-label="Top-right violet circle">
          <circle id="Violet_circle" class="circle stroke-vivid-violet" cx="395.2" cy="158.4" r="140.5" />
          <text transform="matrix(1 0 0 1 335.9323 122.5577)">
            <tspan role="heading" aria-level="1" x="0" y="0" class="heading">Brand story</tspan>
            <tspan x="7.4" y="32">Our core values and </tspan>
            <tspan x="-14.6" y="54">motivations for why we do </tspan>
            <tspan x="34.8" y="76">what we do.</tspan>
          </text>
        </g>
      </a>
      <g id="Brand_visuals_circle" aria-label="Bottom orange circle">
        <circle id="Orange_circle" class="circle stroke-vermillion" cx="276.6" cy="356" r="140.5" />
        <text transform="matrix(1 0 0 1 190.3362 345.1176)">
          <tspan role="heading" aria-level="1" x="0" y="0" class="heading">Brand visuals</tspan>
          <tspan x="7" y="32">Reinforce our story and </tspan>
          <tspan x="-20.6" y="54">voice through graphic elements </tspan>
          <tspan x="27.5" y="76">and style choices.</tspan>
        </text>
      </g>
    </g>
    <g id="Logo" aria-label="Sourcegraph logo at the center of the three intersecting circles">
      <path class="fill-vermillion" d="M282,251.4c-2.8,0.5-5.4-1.3-5.9-4.1l-7.5-40.9c-0.5-2.8,1.3-5.4,4.1-5.9c2.8-0.5,5.4,1.3,5.9,4.1l7.5,40.9
      C286.6,248.3,284.8,250.9,282,251.4" />
      <path class="fill-vivid-violet" d="M262.4,244.4c-1.7,0.3-3.6-0.3-4.8-1.7c-1.8-2.1-1.6-5.3,0.6-7.1l31.7-27c2.1-1.8,5.3-1.6,7.1,0.6
      c1.8,2.1,1.6,5.3-0.6,7.1l-31.7,27C264.1,243.9,263.3,244.3,262.4,244.4" />
      <path class="fill-sky-blue" d="M297.9,237.9c-0.8,0.2-1.7,0.1-2.6-0.2L256,223.8c-2.6-0.9-4-3.8-3.1-6.5c0.9-2.6,3.8-4,6.5-3.1l39.2,13.9
      c2.6,0.9,4,3.8,3.1,6.5C301.1,236.4,299.6,237.6,297.9,237.9" />
    </g>
  </g>
</svg>
