<svg id="Layer_1" data-name="Layer 1" xmlns="http://www.w3.org/2000/svg" xmlns:xlink="http://www.w3.org/1999/xlink" viewBox="0 0 243 111">
  <defs>
    <style>
      @import url(https://fonts.googleapis.com/css2?family=Source+Code+Pro:ital,wght@0,200;0,400;0,600;0,700;1,200;1,400;1,600;1,700&amp;family=Source+Sans+Pro:ital,wght@0,200;0,400;0,600;0,700;1,200;1,400;1,600;1,700&amp;display=swap);

      .cls-1, .cls-12, .cls-3 {
        fill: none;
      }

      .cls-2 {
        fill: #fff;
      }

      .cls-3 {
        stroke: #a7a9ac;
        stroke-width: 0.5px;
      }

      .cls-4 {
        clip-path: url(#clip-path);
      }

      .cls-5 {
        fill: #ff5543;
      }

      .cls-6 {
        fill: #a112ff;
      }

      .cls-7, .cls-8, .cls-9 {
        fill: #00cbec;
      }

      .cls-8, .cls-9 {
        font-size: 19.24px;
      }

      .cls-8 {
        font-family: 'Source Sans Pro', sans-serif;
        font-weight: 700;
      }

      .cls-9 {
        font-family: 'Source Sans Pro', sans-serif;
      }

      .cls-10 {
        clip-path: url(#clip-path-2);
      }

      .cls-11 {
        fill: #ed2e20;
      }

      .cls-12 {
        stroke: #fff;
        stroke-miterlimit: 10;
      }
    </style>
    <clipPath id="clip-path">
      <rect class="cls-1" x="17.9" y="17.92" width="98.87" height="16.63"/>
    </clipPath>
    <clipPath id="clip-path-2">
      <rect class="cls-1" x="-518.85" y="-38.5" width="762.95" height="347.58"/>
    </clipPath>
  </defs>
  <rect class="cls-2" x="0.35" y="-0.3" width="242.8" height="111.27"/>
  <g class="cls-4">
    <path class="cls-5" d="M27.62,34.8a1.69,1.69,0,0,1-1.95-1.35L23.18,19.9a1.68,1.68,0,0,1,3.3-.61L29,32.84a1.7,1.7,0,0,1-1.35,2"/>
    <path class="cls-6" d="M21.13,32.49a1.68,1.68,0,0,1-1.39-2.93l10.49-8.93a1.67,1.67,0,0,1,2.17,2.55L21.91,32.12a1.71,1.71,0,0,1-.78.37"/>
    <path class="cls-7" d="M32.87,30.33a1.73,1.73,0,0,1-.87-.07L19,25.64a1.68,1.68,0,0,1,1.12-3.16l13,4.62a1.68,1.68,0,0,1-.25,3.23"/>
    <path d="M43.72,28.68a1,1,0,0,0-.35-.79,3.84,3.84,0,0,0-.9-.55l-1.17-.52a6.63,6.63,0,0,1-1.17-.65,3.34,3.34,0,0,1-.9-1,2.81,2.81,0,0,1-.35-1.47,3.29,3.29,0,0,1,.25-1.35,2.66,2.66,0,0,1,.74-.95A3.24,3.24,0,0,1,41,20.87a5.51,5.51,0,0,1,1.46-.18,8.9,8.9,0,0,1,1.75.16,4.53,4.53,0,0,1,1.35.46l-.65,1.75a3.93,3.93,0,0,0-1-.39,5.92,5.92,0,0,0-1.44-.17,1.77,1.77,0,0,0-1.11.29.91.91,0,0,0-.39.77,1,1,0,0,0,.35.76,4.22,4.22,0,0,0,.9.56c.36.17.75.35,1.17.53a6.71,6.71,0,0,1,1.17.67,3.27,3.27,0,0,1,.9,1,2.72,2.72,0,0,1,.35,1.42,3.47,3.47,0,0,1-.28,1.47,2.65,2.65,0,0,1-.79,1,3.23,3.23,0,0,1-1.23.61,6,6,0,0,1-1.58.2,8.62,8.62,0,0,1-2-.21,6.9,6.9,0,0,1-1.28-.43l.67-1.78.43.2a6,6,0,0,0,.6.2c.23.06.46.11.71.15a4.9,4.9,0,0,0,.77.06,2.65,2.65,0,0,0,1.42-.31,1,1,0,0,0,.49-.95"/>
    <path d="M46.68,27.74a4.25,4.25,0,0,1,.94-3,3.36,3.36,0,0,1,2.64-1,3.81,3.81,0,0,1,1.58.29,2.86,2.86,0,0,1,1.11.81,3.27,3.27,0,0,1,.66,1.27,5.61,5.61,0,0,1,.22,1.64,4.33,4.33,0,0,1-.93,3,3.37,3.37,0,0,1-2.64,1,4,4,0,0,1-1.58-.29,3,3,0,0,1-1.11-.81,3.43,3.43,0,0,1-.67-1.27,5.66,5.66,0,0,1-.22-1.64m2,0a4,4,0,0,0,.1.93,2.58,2.58,0,0,0,.27.74,1.26,1.26,0,0,0,.48.49,1.33,1.33,0,0,0,.7.18,1.31,1.31,0,0,0,1.16-.56,3.29,3.29,0,0,0,.38-1.78,3.61,3.61,0,0,0-.35-1.7,1.24,1.24,0,0,0-1.19-.64,1.35,1.35,0,0,0-1.14.55,3,3,0,0,0-.41,1.79"/>
    <path d="M56.8,23.94v4.32A2.93,2.93,0,0,0,57,29.59a.86.86,0,0,0,.85.41,1.37,1.37,0,0,0,.94-.33,2,2,0,0,0,.55-.82V23.94h2v5.29c0,.41,0,.82.06,1.22a8,8,0,0,0,.18,1.09H60.09l-.35-1.13h-.06a2.79,2.79,0,0,1-1,1,2.82,2.82,0,0,1-1.47.38,3.35,3.35,0,0,1-1-.15,1.77,1.77,0,0,1-.76-.5,2.5,2.5,0,0,1-.46-.94,5.75,5.75,0,0,1-.16-1.49V23.94Z"/>
    <path d="M67.08,25.79a2.53,2.53,0,0,0-.85-.16,1.33,1.33,0,0,0-1.36,1v4.91h-2v-7.6h1.53l.23,1h.06a2.16,2.16,0,0,1,.7-.86,1.82,1.82,0,0,1,1-.31,3.52,3.52,0,0,1,1.11.27Z"/>
    <path d="M73.48,31.07a3.33,3.33,0,0,1-1.11.5,4.91,4.91,0,0,1-1.33.18,3.74,3.74,0,0,1-1.54-.29,2.56,2.56,0,0,1-1-.81,3.15,3.15,0,0,1-.57-1.27,7,7,0,0,1-.18-1.64,4.5,4.5,0,0,1,.87-3,3.11,3.11,0,0,1,2.52-1,5.49,5.49,0,0,1,1.35.13,5.39,5.39,0,0,1,.91.35l-.47,1.61a3.83,3.83,0,0,0-.69-.25,3.08,3.08,0,0,0-.78-.1,1.5,1.5,0,0,0-1.25.54,2.84,2.84,0,0,0-.42,1.73,3.15,3.15,0,0,0,.11.89,2.15,2.15,0,0,0,.31.72,1.63,1.63,0,0,0,.56.48,1.81,1.81,0,0,0,.8.17,2.41,2.41,0,0,0,.85-.13,2.76,2.76,0,0,0,.62-.31Z"/>
    <path d="M80.43,30.88a3.77,3.77,0,0,1-1.24.62,5.34,5.34,0,0,1-1.66.25,3.24,3.24,0,0,1-2.69-1.07A4.59,4.59,0,0,1,74,27.74a4.2,4.2,0,0,1,1-3,3.51,3.51,0,0,1,2.68-1,4.28,4.28,0,0,1,1.13.15,2.64,2.64,0,0,1,1,.5,2.48,2.48,0,0,1,.68.94,3.6,3.6,0,0,1,.26,1.48,5.49,5.49,0,0,1,0,.68,7.33,7.33,0,0,1-.11.76H76a2.2,2.2,0,0,0,.5,1.44,1.87,1.87,0,0,0,1.45.49A3,3,0,0,0,79,30a3.52,3.52,0,0,0,.76-.39ZM77.6,25.31a1.36,1.36,0,0,0-1.14.46A2.27,2.27,0,0,0,76,27h2.82a1.89,1.89,0,0,0-.25-1.26,1.11,1.11,0,0,0-1-.44"/>
    <path d="M88.33,31.54A3.08,3.08,0,0,1,87.44,34a3.67,3.67,0,0,1-2.51.79,7.74,7.74,0,0,1-1.72-.15,4.9,4.9,0,0,1-.95-.32l.41-1.57c.23.09.5.18.81.28a4.19,4.19,0,0,0,1.15.13,1.75,1.75,0,0,0,1.4-.45,1.88,1.88,0,0,0,.37-1.25v-.49h-.06a2.19,2.19,0,0,1-1.88.72,2.67,2.67,0,0,1-2.2-.91,4.61,4.61,0,0,1-.72-2.86,4.36,4.36,0,0,1,1-3.08,3.64,3.64,0,0,1,2.82-1,9.15,9.15,0,0,1,1.74.14,7.32,7.32,0,0,1,1.25.31ZM85,30.08a1.37,1.37,0,0,0,.89-.26,1.59,1.59,0,0,0,.48-.77V25.63a3.11,3.11,0,0,0-1.17-.2A1.41,1.41,0,0,0,84,26a3.09,3.09,0,0,0-.42,1.82,3.2,3.2,0,0,0,.36,1.68,1.18,1.18,0,0,0,1,.58"/>
    <path d="M94.05,25.79a2.62,2.62,0,0,0-.85-.16,1.35,1.35,0,0,0-1.37,1v4.91h-2v-7.6h1.54l.23,1h.06a2,2,0,0,1,.7-.86,1.77,1.77,0,0,1,1-.31,2.89,2.89,0,0,1,.89.17Z"/>
    <path d="M95,24.32A4.3,4.3,0,0,1,96.27,24,9,9,0,0,1,98,23.79a3.92,3.92,0,0,1,1.32.19,2.11,2.11,0,0,1,.84.54,2,2,0,0,1,.44.83,4.15,4.15,0,0,1,.13,1.1c0,.44,0,.89,0,1.34s0,.9,0,1.33,0,.86,0,1.27a4.34,4.34,0,0,0,.23,1.16H99.31L99,30.5h-.08a2.47,2.47,0,0,1-2.23,1.16,2.84,2.84,0,0,1-1-.16A2.11,2.11,0,0,1,95,31a2,2,0,0,1-.47-.7,2.33,2.33,0,0,1-.17-.9,2.1,2.1,0,0,1,.32-1.18,2.18,2.18,0,0,1,.89-.77,4.27,4.27,0,0,1,1.4-.41A9.55,9.55,0,0,1,98.77,27a1.84,1.84,0,0,0-.12-1.22c-.15-.25-.49-.38-1-.38a6.27,6.27,0,0,0-1.26.13,3.09,3.09,0,0,0-.89.25ZM97.33,30a1.54,1.54,0,0,0,.94-.26,1.82,1.82,0,0,0,.52-.57v-1a5.48,5.48,0,0,0-.9,0,3.31,3.31,0,0,0-.77.14,1.29,1.29,0,0,0-.53.3.71.71,0,0,0-.2.51.86.86,0,0,0,.25.66,1,1,0,0,0,.69.23"/>
    <path d="M102.21,23.94h1.44l.23.91h.06a2.5,2.5,0,0,1,.93-.85,2.93,2.93,0,0,1,1.32-.27,2.57,2.57,0,0,1,2.14.9,4.7,4.7,0,0,1,.71,2.91,6.42,6.42,0,0,1-.22,1.76,3.89,3.89,0,0,1-.68,1.33,3,3,0,0,1-1.09.83,3.67,3.67,0,0,1-1.49.29,3.31,3.31,0,0,1-.77-.07,2.49,2.49,0,0,1-.61-.22v3.12h-2Zm3.38,1.46a1.33,1.33,0,0,0-.9.29,1.84,1.84,0,0,0-.51.86v3.16a1.59,1.59,0,0,0,1.13.37,1.45,1.45,0,0,0,1.27-.6,3.46,3.46,0,0,0,.43-2,2.9,2.9,0,0,0-.34-1.55,1.16,1.16,0,0,0-1.08-.55"/>
    <path d="M114.8,31.54V27.22a2.59,2.59,0,0,0-.26-1.33,1,1,0,0,0-.94-.41,1.4,1.4,0,0,0-.92.34,1.61,1.61,0,0,0-.55.87v4.85h-2V20.9h2v3.89h.06a2.58,2.58,0,0,1,2.24-1.06,3.13,3.13,0,0,1,1,.15,1.65,1.65,0,0,1,.74.5,2.27,2.27,0,0,1,.44.95,6.24,6.24,0,0,1,.14,1.48v4.73Z"/>
  </g>
  <text class="cls-8" transform="translate(16.19 70.1)">Universal</text>
  <text class="cls-8" transform="translate(97.13 70.1)"> </text>
  <text class="cls-9" transform="translate(16.19 89.33)">code search</text>
  <g class="cls-10">
    <path class="cls-11" d="M234,14.3a6,6,0,1,0-6-6,6,6,0,0,0,6,6"/>
  </g>
  <path class="cls-12" d="M237.52,11.7l-6.84-6.84m6.84,0-6.84,6.84"/>
</svg>
