<!-- Generator: Adobe Illustrator 24.1.0, SVG Export Plug-In  -->
<svg version="1.1" xmlns="http://www.w3.org/2000/svg" xmlns:xlink="http://www.w3.org/1999/xlink" x="0px" y="0px"
  width="265.8px" height="62.5px" viewBox="0 0 265.8 62.5" style="enable-background:new 0 0 265.8 62.5;"
  xml:space="preserve">
  <style type="text/css">
    .st0 {
      fill: #354360;
    }

    .st1 {
      fill: #FAFAFA;
    }
  </style>
  <defs>
  </defs>
  <g>
    <g>
      <rect class="st0" width="265.8" height="62.5" />
    </g>
    <g>
      <g>
        <path class="st1" d="M69,36.4c0-1.2-0.4-2.1-1.2-2.7c-0.8-0.6-2.3-1.3-4.4-1.9s-3.8-1.4-5.1-2.1c-2.4-1.5-3.6-3.5-3.6-5.9
				c0-2.1,0.9-3.9,2.6-5.3c1.7-1.4,4-2.1,6.8-2.1c1.8,0,3.5,0.3,4.9,1c1.4,0.7,2.6,1.6,3.4,2.9c0.8,1.3,1.2,2.6,1.2,4.2H69
				c0-1.4-0.4-2.5-1.3-3.2c-0.9-0.8-2.1-1.2-3.7-1.2c-1.5,0-2.7,0.3-3.5,1s-1.2,1.5-1.2,2.7c0,1,0.4,1.8,1.3,2.4
				c0.9,0.6,2.4,1.3,4.4,1.9c2.1,0.6,3.7,1.3,5,2.1c1.2,0.8,2.2,1.7,2.7,2.7c0.6,1,0.9,2.2,0.9,3.5c0,2.2-0.8,4-2.5,5.3
				c-1.7,1.3-4,2-6.9,2c-1.9,0-3.7-0.4-5.3-1.1s-2.8-1.7-3.7-2.9c-0.9-1.2-1.3-2.7-1.3-4.4h4.6c0,1.5,0.5,2.7,1.5,3.5
				c1,0.8,2.4,1.2,4.3,1.2c1.6,0,2.8-0.3,3.6-1C68.6,38.3,69,37.5,69,36.4z" />
        <path class="st1" d="M75.5,33.2c0-1.9,0.4-3.7,1.1-5.2c0.8-1.5,1.8-2.7,3.2-3.6c1.4-0.8,3-1.2,4.8-1.2c2.6,0,4.8,0.9,6.4,2.6
				c1.7,1.7,2.5,4,2.7,6.8l0,1c0,1.9-0.4,3.7-1.1,5.2c-0.7,1.5-1.8,2.7-3.2,3.5c-1.4,0.8-3,1.3-4.8,1.3c-2.8,0-5-0.9-6.6-2.8
				c-1.7-1.8-2.5-4.3-2.5-7.4V33.2z M79.9,33.6c0,2,0.4,3.6,1.3,4.7c0.8,1.1,2,1.7,3.5,1.7s2.6-0.6,3.5-1.7c0.8-1.2,1.2-2.9,1.2-5.1
				c0-2-0.4-3.6-1.3-4.7c-0.9-1.2-2-1.7-3.5-1.7c-1.4,0-2.6,0.6-3.4,1.7C80.3,29.6,79.9,31.3,79.9,33.6z" />
        <path class="st1" d="M108.4,41.3c-1.3,1.5-3.1,2.3-5.5,2.3c-2.1,0-3.7-0.6-4.8-1.9c-1.1-1.2-1.6-3-1.6-5.4V23.6h4.4v12.7
				c0,2.5,1,3.7,3.1,3.7c2.1,0,3.6-0.8,4.3-2.3V23.6h4.4v19.6h-4.2L108.4,41.3z" />
        <path class="st1" d="M126.5,27.6c-0.6-0.1-1.2-0.1-1.8-0.1c-2,0-3.4,0.8-4.1,2.3v13.4h-4.4V23.6h4.2l0.1,2.2
				c1.1-1.7,2.5-2.6,4.4-2.6c0.6,0,1.1,0.1,1.6,0.3L126.5,27.6z" />
        <path class="st1" d="M136.1,40.1c1.1,0,2-0.3,2.7-1c0.7-0.6,1.1-1.4,1.2-2.4h4.2c0,1.2-0.4,2.4-1.1,3.4c-0.7,1.1-1.7,1.9-2.9,2.5
				s-2.5,0.9-4,0.9c-2.7,0-4.9-0.9-6.5-2.7c-1.6-1.8-2.4-4.2-2.4-7.4v-0.5c0-3,0.8-5.4,2.4-7.2s3.8-2.7,6.5-2.7c2.3,0,4.2,0.7,5.7,2
				c1.5,1.4,2.2,3.1,2.3,5.4H140c0-1.1-0.4-2.1-1.2-2.8c-0.7-0.7-1.6-1.1-2.7-1.1c-1.4,0-2.5,0.5-3.3,1.6c-0.8,1-1.2,2.6-1.2,4.7
				v0.7c0,2.1,0.4,3.7,1.2,4.8S134.6,40.1,136.1,40.1z" />
        <path class="st1" d="M155.2,43.6c-2.8,0-5.1-0.9-6.8-2.6c-1.7-1.8-2.6-4.1-2.6-7v-0.5c0-2,0.4-3.7,1.1-5.3
				c0.8-1.5,1.8-2.7,3.2-3.6c1.4-0.9,2.9-1.3,4.6-1.3c2.7,0,4.7,0.9,6.2,2.6c1.5,1.7,2.2,4.1,2.2,7.2v1.8h-12.8
				c0.1,1.6,0.7,2.9,1.6,3.8c0.9,0.9,2.1,1.4,3.6,1.4c2,0,3.7-0.8,4.9-2.4l2.4,2.3c-0.8,1.2-1.8,2.1-3.1,2.7
				C158.3,43.3,156.8,43.6,155.2,43.6z M154.7,26.8c-1.2,0-2.2,0.4-2.9,1.3c-0.7,0.8-1.2,2-1.4,3.5h8.4v-0.3
				c-0.1-1.5-0.5-2.6-1.2-3.3S155.9,26.8,154.7,26.8z" />
        <path class="st1" d="M164.8,33.3c0-3,0.7-5.5,2.2-7.3c1.4-1.8,3.3-2.7,5.7-2.7c2.2,0,4,0.8,5.3,2.3l0.2-2h4v19
				c0,2.6-0.8,4.6-2.4,6.1c-1.6,1.5-3.8,2.2-6.5,2.2c-1.4,0-2.8-0.3-4.2-0.9c-1.4-0.6-2.4-1.4-3.1-2.3l2.1-2.6c1.4,1.6,3,2.4,5,2.4
				c1.5,0,2.6-0.4,3.5-1.2c0.8-0.8,1.3-2,1.3-3.5v-1.3c-1.3,1.4-3,2.1-5.1,2.1c-2.3,0-4.2-0.9-5.6-2.7
				C165.5,39,164.8,36.5,164.8,33.3z M169.2,33.7c0,2,0.4,3.5,1.2,4.7c0.8,1.1,1.9,1.7,3.3,1.7c1.8,0,3.1-0.8,4-2.3v-8.6
				c-0.8-1.5-2.1-2.2-3.9-2.2c-1.5,0-2.6,0.6-3.4,1.7C169.6,29.7,169.2,31.4,169.2,33.7z" />
        <path class="st1" d="M196,27.6c-0.6-0.1-1.2-0.1-1.8-0.1c-2,0-3.4,0.8-4.1,2.3v13.4h-4.4V23.6h4.2l0.1,2.2
				c1.1-1.7,2.5-2.6,4.4-2.6c0.6,0,1.1,0.1,1.6,0.3L196,27.6z" />
        <path class="st1" d="M209,43.2c-0.2-0.4-0.4-1-0.5-1.8c-1.4,1.5-3.1,2.2-5.2,2.2c-2,0-3.6-0.6-4.8-1.7c-1.2-1.1-1.9-2.5-1.9-4.2
				c0-2.1,0.8-3.7,2.3-4.8c1.6-1.1,3.8-1.7,6.7-1.7h2.7V30c0-1-0.3-1.8-0.9-2.4c-0.6-0.6-1.4-0.9-2.6-0.9c-1,0-1.8,0.3-2.5,0.8
				c-0.6,0.5-1,1.1-1,1.9h-4.4c0-1.1,0.4-2.1,1.1-3c0.7-0.9,1.7-1.7,2.9-2.2c1.2-0.5,2.6-0.8,4.1-0.8c2.3,0,4.1,0.6,5.5,1.7
				c1.4,1.2,2.1,2.8,2.1,4.9v8.9c0,1.8,0.2,3.2,0.7,4.2v0.3H209z M204.2,40.1c0.9,0,1.7-0.2,2.5-0.6c0.8-0.4,1.3-1,1.7-1.7V34H206
				c-1.6,0-2.9,0.3-3.7,0.9c-0.8,0.6-1.2,1.4-1.2,2.4c0,0.8,0.3,1.5,0.8,2C202.5,39.8,203.2,40.1,204.2,40.1z" />
        <path class="st1" d="M233.6,33.6c0,3-0.7,5.5-2.1,7.3c-1.4,1.8-3.2,2.7-5.6,2.7c-2.2,0-3.9-0.7-5.2-2.1v9.3h-4.4V23.6h4.1l0.2,2
				c1.3-1.6,3.1-2.4,5.3-2.4c2.4,0,4.3,0.9,5.6,2.7c1.4,1.8,2,4.3,2,7.4V33.6z M229.3,33.2c0-2-0.4-3.5-1.2-4.7
				c-0.8-1.1-1.9-1.7-3.3-1.7c-1.8,0-3.1,0.7-3.9,2.2v8.7c0.8,1.5,2.1,2.3,3.9,2.3c1.4,0,2.5-0.6,3.3-1.7
				C228.9,37.2,229.3,35.5,229.3,33.2z" />
        <path class="st1" d="M240.8,25.7c1.4-1.7,3.3-2.5,5.5-2.5c4.2,0,6.3,2.4,6.4,7.2v12.8h-4.4V30.6c0-1.4-0.3-2.3-0.9-2.9
				c-0.6-0.6-1.4-0.8-2.6-0.8c-1.8,0-3.1,0.8-4,2.4v14h-4.4V15.4h4.4V25.7z" />
      </g>
      <g>
        <rect x="25.8" y="16.6" class="st1" width="5.5" height="26.5" />
      </g>
      <g>
        <rect x="25.8" y="16.5" transform="matrix(0.5 -0.866 0.866 0.5 -11.493 39.5891)" class="st1" width="5.5"
          height="26.5" />
      </g>
      <g>
        <rect x="25.7" y="16.4" transform="matrix(-0.5 -0.866 0.866 -0.5 16.9761 69.0774)" class="st1" width="5.5"
          height="26.5" />
      </g>
    </g>
  </g>
</svg>
