<!-- Generator: Adobe Illustrator 24.1.0, SVG Export Plug-In  -->
<svg version="1.1" xmlns="http://www.w3.org/2000/svg" xmlns:xlink="http://www.w3.org/1999/xlink" x="0px" y="0px"
  width="242.5px" height="33.5px" viewBox="0 0 242.5 33.5" style="enable-background:new 0 0 242.5 33.5;"
  xml:space="preserve">
  <style type="text/css">
    .st0 {
      fill: #343234;
    }
  </style>
  <defs>
  </defs>
  <g>
    <g>
      <path class="st0" d="M40.8,17.6c0,1,0.2,1.8,0.5,2.5c0.3,0.7,0.8,1.3,1.4,1.7c0.6,0.4,1.3,0.8,2.1,1c0.8,0.2,1.6,0.3,2.5,0.3
			c1,0,1.8-0.1,2.5-0.3c0.7-0.2,1.3-0.5,1.7-0.9c0.4-0.4,0.7-0.8,0.9-1.2c0.2-0.5,0.3-0.9,0.3-1.4c0-1-0.2-1.7-0.7-2.2
			c-0.4-0.5-0.9-0.8-1.4-1c-0.9-0.3-2-0.6-3.2-0.9c-1.2-0.3-2.7-0.7-4.5-1.2c-1.1-0.3-2-0.7-2.7-1.1c-0.7-0.5-1.3-1-1.7-1.6
			c-0.4-0.6-0.7-1.2-0.9-1.8c-0.2-0.6-0.3-1.3-0.3-2c0-1.3,0.3-2.4,0.8-3.3c0.5-0.9,1.2-1.7,2.1-2.3c0.9-0.6,1.9-1.1,3-1.4
			C44.4,0.1,45.5,0,46.7,0c1.3,0,2.6,0.2,3.8,0.5c1.2,0.3,2.2,0.9,3.1,1.6c0.9,0.7,1.6,1.5,2.1,2.6c0.5,1,0.8,2.2,0.8,3.5H52
			c-0.1-1.6-0.7-2.8-1.7-3.5c-1-0.7-2.3-1-3.8-1c-0.5,0-1.1,0.1-1.6,0.2c-0.5,0.1-1,0.3-1.5,0.5c-0.5,0.3-0.8,0.6-1.1,1
			c-0.3,0.4-0.4,1-0.4,1.6c0,0.9,0.3,1.6,0.8,2.1c0.6,0.5,1.3,0.9,2.2,1.2c0.1,0,0.5,0.1,1.1,0.3c0.7,0.2,1.4,0.4,2.2,0.6
			c0.8,0.2,1.6,0.4,2.4,0.6c0.8,0.2,1.3,0.4,1.7,0.4c0.8,0.3,1.6,0.6,2.2,1.1c0.6,0.5,1.1,1,1.6,1.6c0.4,0.6,0.7,1.2,0.9,1.9
			c0.2,0.7,0.3,1.3,0.3,2c0,1.4-0.3,2.7-0.9,3.7c-0.6,1-1.4,1.8-2.3,2.5c-1,0.6-2,1.1-3.3,1.4s-2.5,0.4-3.7,0.4
			c-1.5,0-2.8-0.2-4.1-0.5c-1.3-0.4-2.4-0.9-3.4-1.6c-1-0.7-1.7-1.7-2.3-2.8c-0.6-1.2-0.9-2.5-0.9-4.1H40.8z" />
      <path class="st0" d="M68.7,26.6c-1.5,0-2.8-0.2-4-0.7c-1.2-0.5-2.1-1.2-2.9-2C61,23,60.4,22,60,20.8c-0.4-1.2-0.6-2.5-0.6-3.9
			c0-1.4,0.2-2.7,0.6-3.9c0.4-1.2,1-2.2,1.8-3.1c0.8-0.9,1.8-1.5,2.9-2c1.2-0.5,2.5-0.7,4-0.7c1.5,0,2.8,0.2,4,0.7
			c1.2,0.5,2.1,1.2,2.9,2c0.8,0.9,1.4,1.9,1.8,3.1c0.4,1.2,0.6,2.5,0.6,3.9c0,1.4-0.2,2.7-0.6,3.9c-0.4,1.2-1,2.2-1.8,3.1
			c-0.8,0.9-1.8,1.5-2.9,2C71.5,26.4,70.1,26.6,68.7,26.6z M68.7,23.4c0.9,0,1.7-0.2,2.4-0.6c0.7-0.4,1.2-0.9,1.6-1.5
			c0.4-0.6,0.7-1.3,0.9-2.1c0.2-0.8,0.3-1.6,0.3-2.4c0-0.8-0.1-1.6-0.3-2.4c-0.2-0.8-0.5-1.5-0.9-2.1c-0.4-0.6-1-1.1-1.6-1.5
			c-0.7-0.4-1.5-0.6-2.4-0.6c-0.9,0-1.7,0.2-2.4,0.6c-0.7,0.4-1.2,0.9-1.6,1.5c-0.4,0.6-0.7,1.3-0.9,2.1c-0.2,0.8-0.3,1.6-0.3,2.4
			c0,0.8,0.1,1.6,0.3,2.4c0.2,0.8,0.5,1.5,0.9,2.1c0.4,0.6,1,1.1,1.6,1.5C67,23.2,67.8,23.4,68.7,23.4z" />
      <path class="st0" d="M97.3,26.1h-4v-2.6h-0.1c-0.5,0.9-1.2,1.7-2.2,2.2c-1,0.6-2,0.8-3,0.8c-2.4,0-4.2-0.6-5.3-1.8
			c-1.1-1.2-1.6-3-1.6-5.5V7.7h4.1V19c0,1.6,0.3,2.8,0.9,3.4c0.6,0.7,1.5,1,2.6,1c0.9,0,1.6-0.1,2.1-0.4c0.6-0.3,1-0.6,1.4-1.1
			c0.4-0.4,0.6-1,0.8-1.6c0.2-0.6,0.2-1.3,0.2-2V7.7h4.1V26.1z" />
      <path class="st0" d="M101.3,7.7h3.8v3.6h0.1c0.1-0.5,0.4-1,0.7-1.5c0.3-0.5,0.8-0.9,1.3-1.3c0.5-0.4,1-0.7,1.6-0.9
			c0.6-0.2,1.2-0.4,1.8-0.4c0.5,0,0.8,0,1,0c0.2,0,0.4,0,0.6,0.1v3.9c-0.3,0-0.6-0.1-0.9-0.1c-0.3,0-0.6-0.1-0.9-0.1
			c-0.7,0-1.3,0.1-1.9,0.4c-0.6,0.3-1.1,0.7-1.6,1.2c-0.5,0.5-0.8,1.2-1.1,2c-0.3,0.8-0.4,1.7-0.4,2.7v8.8h-4.1V7.7z" />
      <path class="st0" d="M125.4,13.8c-0.2-1.1-0.6-2-1.4-2.6c-0.8-0.6-1.7-0.9-2.8-0.9c-0.5,0-1.1,0.1-1.7,0.3c-0.6,0.2-1.1,0.5-1.6,1
			c-0.5,0.5-0.9,1.2-1.3,2c-0.3,0.9-0.5,2-0.5,3.4c0,0.8,0.1,1.5,0.3,2.3c0.2,0.8,0.5,1.4,0.9,2c0.4,0.6,0.9,1.1,1.5,1.4
			c0.6,0.4,1.4,0.6,2.3,0.6c1.2,0,2.2-0.4,3-1.1c0.8-0.7,1.3-1.8,1.4-3.1h4.1c-0.4,2.4-1.3,4.3-2.7,5.5c-1.4,1.3-3.4,1.9-5.7,1.9
			c-1.5,0-2.7-0.2-3.8-0.7c-1.1-0.5-2-1.2-2.8-2c-0.8-0.8-1.3-1.9-1.7-3c-0.4-1.2-0.6-2.4-0.6-3.8c0-1.4,0.2-2.7,0.6-3.9
			c0.4-1.2,1-2.3,1.7-3.2c0.8-0.9,1.7-1.6,2.8-2.1c1.1-0.5,2.5-0.8,4-0.8c1.1,0,2.1,0.1,3.1,0.4c1,0.3,1.8,0.7,2.6,1.2
			c0.8,0.5,1.4,1.2,1.8,2.1c0.5,0.8,0.8,1.8,0.9,3H125.4z" />
      <path class="st0" d="M135.6,18c0,0.7,0.1,1.4,0.3,2.1c0.2,0.7,0.5,1.3,0.9,1.8c0.4,0.5,0.9,0.9,1.5,1.2c0.6,0.3,1.4,0.4,2.2,0.4
			c1.2,0,2.2-0.3,2.9-0.8c0.7-0.5,1.3-1.3,1.6-2.3h3.9c-0.2,1-0.6,1.9-1.1,2.7c-0.5,0.8-1.2,1.4-1.9,2c-0.7,0.5-1.6,0.9-2.5,1.2
			c-0.9,0.3-1.9,0.4-2.9,0.4c-1.5,0-2.7-0.2-3.9-0.7c-1.1-0.5-2.1-1.1-2.8-2c-0.8-0.9-1.4-1.9-1.8-3.1c-0.4-1.2-0.6-2.5-0.6-3.9
			c0-1.3,0.2-2.6,0.6-3.7c0.4-1.2,1-2.2,1.8-3.1c0.8-0.9,1.7-1.6,2.8-2.1c1.1-0.5,2.3-0.8,3.7-0.8c1.5,0,2.8,0.3,3.9,0.9
			c1.2,0.6,2.1,1.4,2.9,2.4c0.8,1,1.3,2.2,1.7,3.5c0.3,1.3,0.4,2.6,0.3,4H135.6z M145.2,15.3c0-0.6-0.2-1.3-0.4-1.9
			c-0.2-0.6-0.5-1.1-0.9-1.6c-0.4-0.4-0.9-0.8-1.4-1.1c-0.6-0.3-1.2-0.4-1.9-0.4c-0.7,0-1.4,0.1-1.9,0.4c-0.6,0.3-1.1,0.6-1.5,1
			c-0.4,0.4-0.8,1-1,1.6c-0.3,0.6-0.4,1.2-0.4,1.9H145.2z" />
      <path class="st0" d="M169.1,25.2c0,2.8-0.8,4.9-2.3,6.2s-3.8,2.1-6.7,2.1c-0.9,0-1.9-0.1-2.8-0.3c-0.9-0.2-1.8-0.5-2.6-1
			c-0.8-0.5-1.4-1-1.9-1.8c-0.5-0.7-0.8-1.6-0.9-2.7h4.1c0.1,0.6,0.3,1,0.6,1.4c0.3,0.4,0.6,0.6,1,0.8c0.4,0.2,0.8,0.3,1.3,0.4
			c0.5,0.1,1,0.1,1.5,0.1c1.6,0,2.8-0.4,3.6-1.2c0.8-0.8,1.1-2,1.1-3.5v-2.8H165c-0.6,1-1.4,1.8-2.3,2.4c-1,0.6-2.1,0.9-3.2,0.9
			c-1.5,0-2.7-0.3-3.8-0.8c-1-0.5-1.9-1.2-2.6-2.1c-0.7-0.9-1.2-1.9-1.5-3.1c-0.3-1.2-0.5-2.4-0.5-3.8c0-1.2,0.2-2.4,0.6-3.5
			c0.4-1.1,0.9-2.1,1.6-3c0.7-0.8,1.6-1.5,2.6-2c1-0.5,2.2-0.8,3.5-0.8c1.2,0,2.2,0.2,3.2,0.7c1,0.5,1.7,1.3,2.3,2.3h0.1V7.7h4.1
			V25.2z M160.1,22.9c0.9,0,1.7-0.2,2.3-0.6c0.6-0.4,1.1-0.9,1.5-1.5c0.4-0.6,0.7-1.3,0.9-2.1c0.2-0.8,0.3-1.6,0.3-2.3
			c0-0.8-0.1-1.5-0.3-2.3c-0.2-0.7-0.5-1.4-0.9-2s-0.9-1-1.5-1.4c-0.6-0.3-1.4-0.5-2.3-0.5c-0.9,0-1.7,0.2-2.3,0.6
			c-0.6,0.4-1.1,0.9-1.5,1.5c-0.4,0.6-0.7,1.3-0.8,2.1c-0.2,0.8-0.3,1.5-0.3,2.3c0,0.8,0.1,1.5,0.3,2.2c0.2,0.7,0.5,1.4,0.9,1.9
			c0.4,0.6,0.9,1,1.5,1.4C158.5,22.7,159.2,22.9,160.1,22.9z" />
      <path class="st0" d="M172.9,7.7h3.8v3.6h0.1c0.1-0.5,0.4-1,0.7-1.5c0.3-0.5,0.8-0.9,1.3-1.3c0.5-0.4,1-0.7,1.6-0.9
			c0.6-0.2,1.2-0.4,1.8-0.4c0.5,0,0.8,0,1,0c0.2,0,0.4,0,0.6,0.1v3.9c-0.3,0-0.6-0.1-0.9-0.1c-0.3,0-0.6-0.1-0.9-0.1
			c-0.7,0-1.3,0.1-1.9,0.4c-0.6,0.3-1.1,0.7-1.6,1.2c-0.5,0.5-0.8,1.2-1.1,2c-0.3,0.8-0.4,1.7-0.4,2.7v8.8h-4.1V7.7z" />
      <path class="st0" d="M200.7,22c0,0.5,0.1,0.9,0.2,1.1c0.1,0.2,0.4,0.3,0.8,0.3c0.1,0,0.3,0,0.4,0c0.2,0,0.4,0,0.6-0.1v2.8
			c-0.1,0-0.3,0.1-0.6,0.2c-0.2,0.1-0.5,0.1-0.7,0.2c-0.2,0-0.5,0.1-0.7,0.1c-0.2,0-0.4,0-0.6,0c-0.8,0-1.5-0.2-2.1-0.5
			c-0.5-0.3-0.9-0.9-1.1-1.8c-0.8,0.8-1.8,1.4-3,1.7c-1.2,0.4-2.3,0.5-3.4,0.5c-0.8,0-1.6-0.1-2.4-0.3c-0.8-0.2-1.4-0.6-2-1
			c-0.6-0.4-1-1-1.4-1.7c-0.3-0.7-0.5-1.5-0.5-2.4c0-1.1,0.2-2.1,0.6-2.8c0.4-0.7,1-1.3,1.6-1.7c0.7-0.4,1.4-0.7,2.3-0.9
			c0.8-0.2,1.7-0.3,2.6-0.4c0.7-0.1,1.4-0.2,2.1-0.3c0.7-0.1,1.3-0.2,1.8-0.3c0.5-0.1,0.9-0.4,1.2-0.7c0.3-0.3,0.4-0.7,0.4-1.3
			c0-0.5-0.1-1-0.4-1.3c-0.3-0.3-0.6-0.6-0.9-0.8c-0.4-0.2-0.8-0.3-1.2-0.4c-0.5-0.1-0.9-0.1-1.3-0.1c-1.1,0-2.1,0.2-2.8,0.7
			c-0.7,0.5-1.2,1.2-1.3,2.2h-4.1c0.1-1.2,0.4-2.2,0.9-3c0.5-0.8,1.1-1.4,1.9-1.9c0.8-0.5,1.7-0.8,2.6-1c1-0.2,2-0.3,3-0.3
			c0.9,0,1.8,0.1,2.7,0.3c0.9,0.2,1.7,0.5,2.4,0.9c0.7,0.4,1.3,1,1.7,1.7c0.4,0.7,0.6,1.5,0.6,2.5V22z M196.6,16.9
			c-0.6,0.4-1.4,0.6-2.3,0.7c-0.9,0.1-1.8,0.2-2.7,0.4c-0.4,0.1-0.8,0.2-1.3,0.3c-0.4,0.1-0.8,0.3-1.1,0.5c-0.3,0.2-0.6,0.5-0.7,0.9
			c-0.2,0.4-0.3,0.8-0.3,1.3c0,0.5,0.1,0.8,0.4,1.1c0.3,0.3,0.6,0.6,0.9,0.7c0.4,0.2,0.8,0.3,1.2,0.4c0.4,0.1,0.8,0.1,1.2,0.1
			c0.5,0,0.9-0.1,1.5-0.2s1-0.3,1.5-0.6c0.5-0.3,0.9-0.6,1.2-1.1c0.3-0.4,0.5-1,0.5-1.6V16.9z" />
      <path class="st0" d="M204.9,7.7h3.9v2.5h0.1c0.6-1.1,1.4-1.8,2.4-2.3c1-0.5,2.1-0.7,3.3-0.7c1.5,0,2.7,0.3,3.8,0.8
			c1.1,0.5,2,1.2,2.7,2.1c0.7,0.9,1.3,1.9,1.6,3.1c0.4,1.2,0.5,2.5,0.5,3.8c0,1.2-0.2,2.4-0.5,3.6c-0.3,1.2-0.8,2.2-1.5,3.1
			c-0.7,0.9-1.5,1.6-2.5,2.1c-1,0.5-2.2,0.8-3.5,0.8c-0.6,0-1.2-0.1-1.8-0.2c-0.6-0.1-1.2-0.3-1.7-0.5c-0.5-0.2-1.1-0.5-1.5-0.9
			c-0.5-0.4-0.9-0.8-1.2-1.3h-0.1V33h-4.1V7.7z M219.1,16.9c0-0.8-0.1-1.6-0.3-2.4c-0.2-0.8-0.5-1.5-1-2.1c-0.4-0.6-1-1.1-1.6-1.5
			c-0.6-0.4-1.4-0.6-2.2-0.6c-1.7,0-3,0.6-3.9,1.8c-0.9,1.2-1.3,2.8-1.3,4.8c0,0.9,0.1,1.8,0.3,2.6c0.2,0.8,0.6,1.5,1,2.1
			c0.5,0.6,1,1,1.6,1.4c0.6,0.3,1.4,0.5,2.2,0.5c0.9,0,1.7-0.2,2.4-0.6c0.6-0.4,1.2-0.9,1.6-1.5c0.4-0.6,0.7-1.3,0.9-2.1
			C219,18.5,219.1,17.7,219.1,16.9z" />
      <path class="st0" d="M226.3,0.6h4.1v9.5h0.1c0.5-0.8,1.2-1.5,2.2-2.1c1-0.6,2.1-0.8,3.3-0.8c2,0,3.6,0.5,4.8,1.6
			c1.2,1,1.8,2.6,1.8,4.7v12.7h-4.1V14.5c0-1.5-0.4-2.5-0.9-3.2c-0.6-0.7-1.5-1-2.7-1c-0.7,0-1.3,0.1-1.9,0.4c-0.5,0.3-1,0.6-1.4,1
			c-0.4,0.4-0.7,1-0.9,1.6c-0.2,0.6-0.3,1.2-0.3,1.9v10.9h-4.1V0.6z" />
    </g>
    <g>
      <rect x="9.8" y="1.3" class="st0" width="5.3" height="25.5" />
    </g>
    <g>
      <rect x="9.8" y="1.1" transform="matrix(0.5 -0.866 0.866 0.5 -5.8004 17.7696)" class="st0" width="5.3"
        height="25.5" />
    </g>
    <g>
      <rect x="9.7" y="1" transform="matrix(-0.5 -0.866 0.866 -0.5 6.6214 31.4279)" class="st0" width="5.3"
        height="25.5" />
    </g>
  </g>
</svg>
