<!-- Generator: Adobe Illustrator 24.1.0, SVG Export Plug-In  -->
<svg version="1.1" xmlns="http://www.w3.org/2000/svg" xmlns:xlink="http://www.w3.org/1999/xlink" x="0px" y="0px"
  width="243px" height="30.3px" viewBox="0 0 243 30.3" style="enable-background:new 0 0 243 30.3;" xml:space="preserve">
  <style type="text/css">
    .st0 {
      fill: #484848;
    }
  </style>
  <defs>
  </defs>
  <g>
    <g id="g3005_1_" transform="translate(-215.30001,-205)">
      <path id="path3007_2_" class="st0"
        d="M262,218c4.9,1.1,7.2,2.9,7.2,6.3c0,3.8-3.1,6.3-7.5,6.3c-3.5,0-6.4-1.2-9-3.5l1.5-1.8
			c2.3,2.1,4.5,3.1,7.6,3.1c3,0,4.9-1.5,4.9-3.8c0-2.1-1.1-3.2-5.7-4.2c-5.1-1.1-7.4-2.7-7.4-6.4c0-3.5,3.1-6.1,7.3-6.1
			c3.2,0,5.5,0.9,7.8,2.7l-1.5,1.9c-2-1.7-4.1-2.4-6.4-2.4c-2.9,0-4.7,1.6-4.7,3.6C256,215.8,257.2,216.9,262,218L262,218z" />
      <path id="path3009_2_" class="st0" d="M282.1,230.6c-4.9,0-8.5-3.9-8.5-8.5c0-4.6,3.6-8.6,8.5-8.6c4.9,0,8.5,3.9,8.5,8.5
			C290.7,226.7,287.1,230.6,282.1,230.6z M282.1,215.7c-3.5,0-6,2.8-6,6.3s2.6,6.4,6,6.4c3.5,0,6-2.8,6-6.3
			C288.2,218.5,285.6,215.7,282.1,215.7z" />
      <path id="path3011_2_" class="st0" d="M307.4,213.9h2.4v16.3h-2.4v-2.8c-1.1,1.8-2.8,3.2-5.6,3.2c-4,0-6.2-2.7-6.2-6.5v-10.1h2.4
			v9.5c0,3,1.6,4.9,4.5,4.9c2.8,0,4.9-2,4.9-5.1V213.9L307.4,213.9z" />
      <path id="path3013_2_" class="st0" d="M318.5,230.2h-2.4v-16.3h2.4v4.3c1.2-2.7,3.6-4.7,6.7-4.5v2.6H325c-3.6,0-6.5,2.6-6.5,7.5
			V230.2z" />
      <path id="path3015_2_" class="st0" d="M337,230.6c-4.8,0-8.4-3.9-8.4-8.5c0-4.6,3.6-8.6,8.4-8.6c3.1,0,5,1.3,6.5,2.9l-1.6,1.7
			c-1.3-1.4-2.7-2.5-4.9-2.5c-3.3,0-5.8,2.8-5.8,6.3c0,3.6,2.6,6.4,6,6.4c2.1,0,3.7-1,5-2.4l1.5,1.5
			C342,229.3,340.1,230.6,337,230.6z" />
      <path id="path3017_2_" class="st0" d="M355.7,228.5c2.3,0,3.8-0.9,5.2-2.3l1.5,1.4c-1.6,1.8-3.6,3.1-6.7,3.1
			c-4.5,0-8.2-3.4-8.2-8.5c0-4.7,3.3-8.5,7.8-8.5c4.8,0,7.6,3.9,7.6,8.6c0,0.2,0,0.5,0,0.8h-12.9
			C350.3,226.5,352.8,228.5,355.7,228.5L355.7,228.5z M360.4,221.2c-0.2-3-1.9-5.6-5.2-5.6c-2.8,0-5,2.4-5.3,5.6H360.4L360.4,221.2z
			" />
      <path id="path3019_2_" class="st0" d="M375.2,235.3c-2.7,0-5.2-0.8-7.4-2.3l1.1-1.9c1.9,1.4,4,2.1,6.3,2.1c3.6,0,5.9-2,5.9-5.8
			v-1.9c-1.4,1.9-3.4,3.4-6.4,3.4c-3.9,0-7.7-2.9-7.7-7.7c0-4.8,3.8-7.7,7.7-7.7c3.1,0,5.1,1.5,6.4,3.3v-2.9h2.4v13.5
			C383.5,232.7,380.2,235.3,375.2,235.3L375.2,235.3z M375.1,215.7c-3.1,0-5.7,2.1-5.7,5.5c0,3.3,2.6,5.6,5.7,5.6c3.1,0,6-2.2,6-5.6
			C381.2,217.9,378.2,215.7,375.1,215.7z" />
      <path id="path3021_2_" class="st0" d="M392.1,230.2h-2.4v-16.3h2.4v4.3c1.2-2.7,3.6-4.7,6.7-4.5v2.6h-0.2c-3.6,0-6.5,2.6-6.5,7.5
			V230.2z" />
      <path id="path3023_2_" class="st0" d="M404.2,217l-0.7-2c1.8-0.8,3.6-1.4,5.9-1.4c4.4,0,6.9,2.3,6.9,6.6v10H414v-2.5
			c-1.1,1.5-3,2.8-5.9,2.8c-3,0-6.1-1.7-6.1-5.1c0-3.5,2.8-5.3,7-5.3c2.1,0,3.6,0.3,5,0.7v-0.6c0-2.9-1.8-4.4-4.8-4.4
			C407.2,215.9,405.7,216.3,404.2,217z M404.5,225.4c0,2.1,1.9,3.3,4.1,3.3c3,0,5.5-1.8,5.5-4.4v-1.6c-1.2-0.3-2.8-0.7-4.8-0.7
			C406.2,222,404.5,223.3,404.5,225.4z" />
      <path id="path3025_2_" class="st0" d="M431,230.6c-3,0-5-1.6-6.2-3.5v8.2h-2.4v-21.4h2.4v3.3c1.3-1.9,3.2-3.6,6.2-3.6
			c3.9,0,7.8,3.1,7.8,8.5C438.8,227.4,434.9,230.6,431,230.6z M430.6,215.7c-3,0-5.9,2.5-5.9,6.3c0,3.8,2.9,6.3,5.9,6.3
			c3.1,0,5.7-2.3,5.7-6.3C436.3,218.2,433.6,215.7,430.6,215.7z" />
      <path id="path3027_2_" class="st0" d="M446.5,230.2h-2.4v-23h2.4v9.6c1.1-1.8,2.8-3.2,5.6-3.2c4,0,6.2,2.7,6.2,6.5v10.1h-2.4v-9.5
			c0-3-1.6-4.9-4.5-4.9c-2.8,0-4.9,2-4.9,5.1V230.2z" />
    </g>
    <g>
      <rect x="10.9" class="st0" width="5.8" height="28.3" />
      <rect x="10.9" y="-0.2" transform="matrix(0.5 -0.866 0.866 0.5 -5.1983 18.9707)" class="st0" width="5.8"
        height="28.3" />
      <rect x="10.8" y="-0.3" transform="matrix(-0.5 -0.866 0.866 -0.5 8.5575 32.6812)" class="st0" width="5.8"
        height="28.3" />
    </g>
  </g>
</svg>
