<?xml version="1.0" encoding="utf-8"?>
<!-- Generator: Adobe Illustrator 24.1.0, SVG Export Plug-In . SVG Version: 6.00 Build 0)  -->
<svg version="1.1" id="Layer_1" xmlns="http://www.w3.org/2000/svg" xmlns:xlink="http://www.w3.org/1999/xlink" x="0px"
  y="0px" viewBox="0 0 262.3 41.9" style="enable-background:new 0 0 262.3 41.9;" xml:space="preserve">
  <style type="text/css">
    @import url(https://fonts.googleapis.com/css2?family=Source+Code+Pro:ital,wght@0,200;0,400;0,600;0,700;1,200;1,400;1,600;1,700&amp;family=Source+Sans+Pro:ital,wght@0,200;0,400;0,600;0,700;1,200;1,400;1,600;1,700&amp;display=swap);

    .st0 {
      fill: none;
      stroke: #242427;
      stroke-width: 0.5;
    }

    .st1 {
      font-family: 'Source Sans Pro', sans-serif;
    }

    .st2 {
      font-size: 22px;
    }

    .st3 {
      fill: #FF5543;
    }

    .st4 {
      fill: #A112FF;
    }

    .st5 {
      fill: #00CBEC;
    }
  </style>
  <polyline class="st0" points="71,5.2 63,5.2 63,36.6 71,36.6 " />
  <text transform="matrix(1 0 0 1 10.5498 27.6527)" class="st1 st2">30px</text>
  <g>
    <path class="st3" d="M94.5,36.4c-1.6,0.3-3.2-0.8-3.5-2.4L86.5,9.5c-0.3-1.6,0.8-3.2,2.4-3.5c1.6-0.3,3.2,0.8,3.5,2.4l4.5,24.4
		C97.2,34.5,96.2,36.1,94.5,36.4" />
    <path class="st4" d="M82.8,32.2c-1,0.2-2.1-0.2-2.9-1c-1.1-1.3-0.9-3.2,0.3-4.3l18.9-16.1c1.3-1.1,3.2-0.9,4.3,0.3s0.9,3.2-0.3,4.3
		L84.2,31.5C83.8,31.9,83.3,32.1,82.8,32.2" />
    <path class="st5" d="M104,28.3c-0.5,0.1-1,0.1-1.6-0.1L79,19.9c-1.6-0.6-2.4-2.3-1.8-3.9c0.6-1.6,2.3-2.4,3.9-1.8l23.4,8.3
		c1.6,0.6,2.4,2.3,1.8,3.9C105.9,27.4,105,28.1,104,28.3" />
    <path d="M123.6,25.4c0-0.6-0.2-1.1-0.6-1.4c-0.4-0.4-1-0.7-1.6-1c-0.6-0.3-1.4-0.6-2.1-0.9c-0.8-0.3-1.5-0.7-2.1-1.2
		c-0.6-0.5-1.2-1-1.6-1.7c-0.4-0.7-0.6-1.6-0.6-2.7c0-0.9,0.2-1.7,0.5-2.4c0.3-0.7,0.8-1.3,1.3-1.7c0.6-0.5,1.3-0.8,2-1
		c0.8-0.2,1.7-0.3,2.6-0.3c1.1,0,2.2,0.1,3.2,0.3c1,0.2,1.8,0.5,2.4,0.8l-1.2,3.2c-0.4-0.3-1-0.5-1.8-0.7c-0.8-0.2-1.7-0.3-2.6-0.3
		c-0.9,0-1.5,0.2-2,0.5c-0.5,0.3-0.7,0.8-0.7,1.4c0,0.5,0.2,1,0.6,1.4c0.4,0.4,1,0.7,1.6,1c0.6,0.3,1.4,0.6,2.1,1
		c0.8,0.3,1.5,0.7,2.1,1.2c0.6,0.5,1.2,1,1.6,1.7c0.4,0.7,0.6,1.5,0.6,2.6s-0.2,1.9-0.5,2.6c-0.3,0.7-0.8,1.4-1.4,1.9
		c-0.6,0.5-1.4,0.9-2.2,1.1c-0.9,0.2-1.8,0.4-2.9,0.4c-1.4,0-2.6-0.1-3.6-0.4c-1-0.3-1.8-0.5-2.3-0.8l1.2-3.2
		c0.2,0.1,0.5,0.2,0.8,0.4c0.3,0.1,0.7,0.2,1.1,0.4c0.4,0.1,0.8,0.2,1.3,0.3c0.4,0.1,0.9,0.1,1.4,0.1c1.1,0,2-0.2,2.6-0.6
		C123.3,26.7,123.6,26.1,123.6,25.4" />
    <path d="M128.9,23.7c0-2.3,0.6-4.1,1.7-5.4c1.1-1.3,2.7-1.9,4.8-1.9c1.1,0,2,0.2,2.8,0.5c0.8,0.3,1.5,0.8,2,1.5
		c0.5,0.6,0.9,1.4,1.2,2.3c0.3,0.9,0.4,1.9,0.4,3c0,2.3-0.6,4.1-1.7,5.4c-1.1,1.3-2.7,1.9-4.8,1.9c-1.1,0-2-0.2-2.9-0.5
		c-0.8-0.3-1.5-0.8-2-1.5c-0.5-0.6-0.9-1.4-1.2-2.3C129,25.7,128.9,24.7,128.9,23.7 M132.6,23.7c0,0.6,0.1,1.2,0.2,1.7
		c0.1,0.5,0.3,1,0.5,1.3c0.2,0.4,0.5,0.7,0.9,0.9c0.4,0.2,0.8,0.3,1.3,0.3c0.9,0,1.6-0.3,2.1-1c0.5-0.7,0.7-1.7,0.7-3.2
		c0-1.3-0.2-2.3-0.6-3.1c-0.4-0.8-1.1-1.2-2.1-1.2c-0.9,0-1.6,0.3-2.1,1C132.8,21.1,132.6,22.2,132.6,23.7" />
    <path d="M147.1,16.8v7.8c0,1.1,0.1,1.9,0.4,2.4c0.3,0.5,0.8,0.7,1.5,0.7c0.7,0,1.2-0.2,1.7-0.6c0.4-0.4,0.8-0.9,1-1.5v-8.9h3.6v9.5
		c0,0.8,0,1.5,0.1,2.2c0.1,0.7,0.2,1.4,0.3,2h-2.7l-0.6-2h-0.1c-0.4,0.7-1,1.3-1.8,1.7c-0.7,0.5-1.6,0.7-2.7,0.7
		c-0.7,0-1.3-0.1-1.9-0.3c-0.5-0.2-1-0.5-1.4-0.9c-0.4-0.4-0.6-1-0.8-1.7c-0.2-0.7-0.3-1.6-0.3-2.7v-8.5H147.1z" />
    <path d="M165.7,20.1c-0.6-0.2-1.1-0.3-1.5-0.3c-0.6,0-1.2,0.2-1.6,0.5c-0.4,0.3-0.7,0.8-0.9,1.3v8.9h-3.6V16.8h2.8l0.4,1.8h0.1
		c0.3-0.7,0.7-1.2,1.3-1.6c0.5-0.4,1.1-0.5,1.9-0.5c0.5,0,1.4,0.2,2,0.5L165.7,20.1z" />
    <path d="M177.2,29.7c-0.5,0.4-1.2,0.7-2,0.9c-0.8,0.2-1.6,0.3-2.4,0.3c-1.1,0-2-0.2-2.8-0.5c-0.8-0.3-1.4-0.8-1.9-1.5
		c-0.5-0.6-0.8-1.4-1-2.3c-0.2-0.9-0.3-1.9-0.3-3c0-2.3,0.5-4.1,1.6-5.4c1-1.3,2.6-1.9,4.5-1.9c1,0,1.8,0.1,2.4,0.2
		c0.6,0.2,1.2,0.4,1.7,0.6l-0.9,2.9c-0.4-0.2-0.8-0.4-1.2-0.5c-0.4-0.1-0.9-0.2-1.4-0.2c-1,0-1.7,0.3-2.2,1
		c-0.5,0.6-0.8,1.7-0.8,3.1c0,0.6,0.1,1.1,0.2,1.6c0.1,0.5,0.3,0.9,0.6,1.3c0.3,0.4,0.6,0.7,1,0.9c0.4,0.2,0.9,0.3,1.4,0.3
		c0.6,0,1.1-0.1,1.5-0.2c0.4-0.2,0.8-0.3,1.1-0.6L177.2,29.7z" />
    <path d="M189.8,29.3c-0.5,0.4-1.3,0.8-2.2,1.1c-0.9,0.3-1.9,0.5-3,0.5c-2.2,0-3.8-0.6-4.9-1.9c-1-1.3-1.5-3.1-1.5-5.3
		c0-2.4,0.6-4.2,1.7-5.4c1.2-1.2,2.8-1.8,4.9-1.8c0.7,0,1.4,0.1,2,0.3c0.7,0.2,1.2,0.5,1.8,0.9c0.5,0.4,0.9,1,1.2,1.7
		c0.3,0.7,0.5,1.6,0.5,2.7c0,0.4,0,0.8-0.1,1.2c0,0.4-0.1,0.9-0.2,1.4h-8.2c0.1,1.1,0.4,2,0.9,2.6c0.5,0.6,1.4,0.9,2.6,0.9
		c0.7,0,1.4-0.1,2-0.3c0.6-0.2,1-0.5,1.4-0.7L189.8,29.3z M184.7,19.3c-0.9,0-1.6,0.3-2.1,0.8c-0.4,0.6-0.7,1.3-0.8,2.2h5.1
		c0.1-1-0.1-1.7-0.5-2.3C186.1,19.5,185.5,19.3,184.7,19.3" />
    <path
      d="M204,30.5c0,2-0.5,3.5-1.6,4.4c-1.1,0.9-2.6,1.4-4.5,1.4c-1.3,0-2.4-0.1-3.1-0.3c-0.8-0.2-1.3-0.4-1.7-0.6l0.7-2.8
		c0.4,0.2,0.9,0.3,1.5,0.5c0.6,0.2,1.2,0.2,2.1,0.2c1.2,0,2.1-0.3,2.5-0.8c0.4-0.5,0.7-1.3,0.7-2.3v-0.9h-0.1
		c-0.6,0.9-1.8,1.3-3.4,1.3c-1.8,0-3.1-0.5-4-1.6c-0.9-1.1-1.3-2.8-1.3-5.2c0-2.4,0.6-4.3,1.8-5.6c1.2-1.3,2.9-1.9,5.1-1.9
		c1.2,0,2.2,0.1,3.1,0.2c0.9,0.2,1.7,0.4,2.3,0.6V30.5z M198,27.9c0.7,0,1.2-0.2,1.6-0.5c0.4-0.3,0.7-0.8,0.9-1.4v-6.2
		c-0.6-0.2-1.3-0.4-2.1-0.4c-0.9,0-1.6,0.3-2.1,1c-0.5,0.7-0.8,1.8-0.8,3.3c0,1.3,0.2,2.3,0.7,3C196.5,27.5,197.2,27.9,198,27.9" />
    <path d="M214.3,20.1c-0.6-0.2-1.1-0.3-1.5-0.3c-0.6,0-1.2,0.2-1.6,0.5c-0.4,0.3-0.7,0.8-0.9,1.3v8.9h-3.6V16.8h2.8l0.4,1.8h0.1
		c0.3-0.7,0.7-1.2,1.3-1.6c0.5-0.4,1.1-0.5,1.9-0.5c0.5,0,1,0.1,1.6,0.3L214.3,20.1z" />
    <path
      d="M216.1,17.5c0.7-0.3,1.3-0.5,2.3-0.7c1-0.2,2.1-0.3,3.2-0.3c1,0,1.7,0.1,2.4,0.3c0.6,0.2,1.1,0.6,1.5,1
		c0.4,0.4,0.6,0.9,0.8,1.5c0.2,0.6,0.2,1.2,0.2,2c0,0.8,0,1.6-0.1,2.4c-0.1,0.8-0.1,1.6-0.1,2.4c0,0.8,0,1.5,0.1,2.3
		c0.1,0.7,0.2,1.4,0.4,2.1h-2.9l-0.6-1.9h-0.1c-0.4,0.6-0.9,1.1-1.5,1.5c-0.6,0.4-1.5,0.6-2.5,0.6c-0.6,0-1.2-0.1-1.7-0.3
		c-0.5-0.2-0.9-0.5-1.3-0.8c-0.4-0.4-0.6-0.8-0.9-1.3c-0.2-0.5-0.3-1-0.3-1.6c0-0.8,0.2-1.5,0.6-2.1c0.4-0.6,0.9-1,1.6-1.4
		c0.7-0.4,1.5-0.6,2.5-0.7c1-0.1,2.1-0.2,3.3-0.1c0.1-1,0.1-1.8-0.2-2.2c-0.3-0.4-0.9-0.7-1.8-0.7c-0.7,0-1.5,0.1-2.3,0.2
		c-0.8,0.1-1.1,0.2-1.6,0.5L216.1,17.5z M220.3,27.8c0.7,0,1.3-0.2,1.7-0.5c0.4-0.3,0.7-0.7,0.9-1v-1.8c-0.6-0.1-1.1-0.1-1.6,0
		c-0.5,0-1,0.1-1.4,0.2c-0.4,0.1-0.7,0.3-1,0.5s-0.4,0.5-0.4,0.9c0,0.5,0.2,0.9,0.5,1.2C219.3,27.6,219.7,27.8,220.3,27.8" />
    <path
      d="M229,16.8h2.6l0.4,1.6h0.1c0.5-0.7,1-1.2,1.7-1.5c0.6-0.3,1.4-0.5,2.4-0.5c1.7,0,3,0.5,3.9,1.6c0.9,1.1,1.3,2.8,1.3,5.2
		c0,1.2-0.1,2.2-0.4,3.2c-0.3,0.9-0.7,1.7-1.2,2.4c-0.5,0.7-1.2,1.2-2,1.5c-0.8,0.3-1.7,0.5-2.7,0.5c-0.6,0-1,0-1.4-0.1
		c-0.4-0.1-0.7-0.2-1.1-0.4V36H229V16.8z M235.2,19.4c-0.7,0-1.2,0.2-1.6,0.5c-0.4,0.3-0.7,0.9-0.9,1.6v5.7c0.3,0.2,0.5,0.4,0.8,0.5
		c0.3,0.1,0.7,0.2,1.2,0.2c1,0,1.8-0.4,2.3-1.1c0.5-0.7,0.8-1.9,0.8-3.6c0-1.2-0.2-2.1-0.6-2.8C236.7,19.8,236,19.4,235.2,19.4" />
    <path d="M251.8,30.5v-7.8c0-1.1-0.2-1.9-0.5-2.4c-0.3-0.5-0.9-0.7-1.7-0.7c-0.6,0-1.2,0.2-1.7,0.6c-0.5,0.4-0.8,0.9-1,1.6v8.7h-3.6
		V11.3h3.6v7h0.1c0.4-0.6,1-1.1,1.6-1.4c0.6-0.3,1.5-0.5,2.4-0.5c0.7,0,1.3,0.1,1.8,0.3c0.5,0.2,1,0.5,1.3,0.9s0.6,1,0.8,1.7
		c0.2,0.7,0.3,1.6,0.3,2.7v8.5H251.8z" />
  </g>
</svg>
