<!-- Generator: Adobe Illustrator 24.1.0, SVG Export Plug-In  -->
<svg version="1.1" xmlns="http://www.w3.org/2000/svg" xmlns:xlink="http://www.w3.org/1999/xlink" x="0px" y="0px"
  width="242.8px" height="31.7px" viewBox="0 0 242.8 31.7" style="enable-background:new 0 0 242.8 31.7;"
  xml:space="preserve">
  <style type="text/css">
    .st0 {
      fill: #91A3CE;
    }
  </style>
  <defs>
  </defs>
  <g>
    <g id="g3005_1_" transform="translate(-215.30001,-205)">
      <path class="st0" d="M253.2,231.2c-3.8,0-6.9-1.2-9.9-3.7l1.3-1.6c2.8,2.4,5.4,3.4,8.7,3.4c3.6,0,6-1.9,6-4.7
			c0-2.8-1.7-4.1-6.9-5.2c-6-1.3-8.3-3.2-8.3-7c0-3.8,3.4-6.6,8-6.6c3.3,0,5.9,0.9,8.5,2.8l-1.3,1.6c-2.3-1.8-4.6-2.6-7.3-2.6
			c-3.4,0-5.8,1.9-5.8,4.5c0,2.8,1.8,4.2,7.2,5.3c5.7,1.3,8,3.3,8,6.9C261.5,228.4,258.2,231.2,253.2,231.2z" />
      <path class="st0" d="M274.8,231.3c-5.3,0-9.4-4.1-9.4-9.4c0-5.3,4.2-9.5,9.5-9.5c5.3,0,9.4,4.1,9.4,9.4
			C284.4,227.1,280.2,231.3,274.8,231.3z M274.8,214.1c-4.1,0-7.2,3.3-7.2,7.6c0,4.3,3.2,7.7,7.3,7.7c4.1,0,7.3-3.3,7.3-7.6
			c0-2.2-0.8-4.1-2.2-5.6C278.6,214.8,276.8,214.1,274.8,214.1z" />
      <path class="st0" d="M296.1,231.2c-4.2,0-6.8-2.8-6.8-7.2v-11.3h2.1v10.7c0,3.8,2.1,6,5.5,6c2.6,0,6-3.3,6-6.3v-10.4h2.1v18.1
			h-2.1v-4.1l-0.6,1C300.7,230.1,298.7,231.2,296.1,231.2z" />
      <path class="st0" d="M331.7,231.3c-5.1,0-9.3-4.2-9.3-9.4c0-5.2,4.2-9.5,9.3-9.5c3.5,0,5.6,1.6,7.1,3l-1.4,1.4
			c-1.4-1.4-3.1-2.7-5.7-2.7c-4,0-7.1,3.4-7.1,7.6c0,4.3,3.2,7.7,7.3,7.7c2.1,0,4-0.9,5.7-2.7l1.3,1.2
			C336.7,230.3,334.6,231.3,331.7,231.3z" />
      <path class="st0" d="M350.9,231.3c-5.2,0-9.1-4.1-9.1-9.5s3.7-9.5,8.7-9.5c5,0,8.4,3.9,8.4,9.6c0,0.2,0,0.3,0,0.5h-15l0,0.4
			c0.4,4,3.2,6.7,7,6.7c2.3,0,4.2-0.8,6-2.5l1.2,1.1C356.1,230.3,353.9,231.3,350.9,231.3z M350.5,214c-3.4,0-6,2.8-6.5,6.7l0,0.4
			h12.9l0-0.4C356.5,216.6,354,214,350.5,214z" />
      <path class="st0" d="M371.3,236.7c-3,0-5.7-0.8-8.1-2.4l0.9-1.6c2.1,1.5,4.5,2.2,7.1,2.2c4.5,0,7.2-2.6,7.2-7v-3.3l-0.6,0.8
			c-1.9,2.6-4.3,3.8-7.1,3.8c-4.1,0-8.5-3-8.5-8.5c0-5.4,4.3-8.6,8.5-8.6c2.9,0,5.3,1.2,7.1,3.6l0.6,0.9v-4.1h2.1v15.2
			C380.5,233.5,377.1,236.7,371.3,236.7z M371,214.3c-3.9,0-6.7,2.7-6.7,6.5c0,3.8,2.9,6.6,6.7,6.6c3.5,0,7-2.4,7-6.5
			c0-1.7-0.6-3.2-1.8-4.4C374.9,215.1,373,214.3,371,214.3z" />
      <path class="st0" d="M310.1,230.9v-18.1h2.1v4.6l0,0.6c0,0,0.2-0.2,0.4-0.7c1.3-2.9,4.2-4.8,7.3-4.8v2.3c-5.3,0.1-7.7,4.5-7.7,9
			v7.1H310.1z" />
      <path class="st0" d="M386.3,230.9v-18.1h2.1v4.6l0,0.6c0,0,0.2-0.2,0.4-0.7c1.3-2.9,4.2-4.8,7.3-4.8v2.3c-5.3,0.1-7.7,4.5-7.7,9
			v7.1H386.3z" />
      <path class="st0" d="M404.8,231.3c-3.2,0-6.7-1.7-6.7-5.6c0-3.6,2.9-5.8,7.7-5.8c2.5,0,4.2,0.4,5.7,0.8l0.4,0.1v-1.1
			c0-3.5-2.2-5.5-5.9-5.5c-2.3,0-4,0.6-5.5,1.3l-0.6-1.6c2.2-1,4.1-1.4,6.4-1.4c5,0,7.7,2.5,7.7,7.2v11.2h-2v-3.5l-0.6,0.8
			C410.3,229.6,408.3,231.3,404.8,231.3z M406.2,221.3c-3.7,0-5.9,1.6-5.9,4.3c0,2.4,2.1,4.1,5.1,4.1c3.2,0,6.7-3,6.7-5.4v-2.1
			l-0.3-0.1C409.9,221.6,408.1,221.3,406.2,221.3z" />
      <path class="st0" d="M419.3,236.7v-23.9h2.1v4.6l0.6-0.9c1.9-2.7,4.1-4.1,6.9-4.1c4.2,0,8.6,3.3,8.6,9.4c0,3.5-1.4,5.8-2.7,7
			c-1.6,1.6-3.8,2.5-6,2.5c-2.8,0-5.1-1.3-6.9-3.8l-0.6-0.9v10.2H419.3z M428.6,214.3c-3.4,0-7,2.8-7,7.4c0,4.7,3.5,7.5,7,7.5
			c4,0,6.8-3.1,6.8-7.4C435.4,217.5,432.5,214.3,428.6,214.3z" />
      <path class="st0" d="M456,230.9v-10.7c0-3.8-2.1-6-5.5-6c-3.5,0-6,2.6-6,6.3v10.4h-2.1V205h2.1v11.3l0.6-1.1
			c0.9-1.6,3.5-2.9,6.1-2.9c4.2,0,6.8,2.8,6.8,7.2v11.3H456z" />
    </g>
    <g>
      <rect x="9.5" y="1" class="st0" width="4.3" height="24.3" />
    </g>
    <g>
      <rect x="9.5" y="1" transform="matrix(0.5 -0.866 0.866 0.5 -5.6174 16.6653)" class="st0" width="4.3"
        height="24.3" />
    </g>
    <g>
      <rect x="9.5" y="1" transform="matrix(-0.5 -0.866 0.866 -0.5 6.0064 29.8628)" class="st0" width="4.3"
        height="24.3" />
    </g>
  </g>
</svg>
