<!-- Generator: Adobe Illustrator 24.1.0, SVG Export Plug-In  -->
<svg version="1.1" xmlns="http://www.w3.org/2000/svg" xmlns:xlink="http://www.w3.org/1999/xlink" x="0px" y="0px"
  width="243.6px" height="41px" viewBox="0 0 243.6 41" style="enable-background:new 0 0 243.6 41;" xml:space="preserve">
  <style type="text/css">
    .st0 {
      fill: #F56328;
    }

    .st1 {
      fill: #AF25F3;
    }

    .st2 {
      fill: #1EB4EE;
    }

    .st3 {
      fill: #242427;
    }
  </style>
  <defs>
  </defs>
  <g>
    <path class="st0" d="M11.9,5.2L21,37.9c0.6,2.2,3,3.5,5.2,2.9c2.3-0.6,3.6-2.9,3-5.1L20,3c-0.6-2.2-3-3.5-5.2-2.9
		C12.6,0.8,11.3,3,11.9,5.2z" />
    <path class="st1" d="M28.8,5L5.9,30.3c-1.6,1.7-1.4,4.3,0.4,5.9c1.7,1.5,4.4,1.3,5.9-0.4l22.9-25.3c1.6-1.7,1.4-4.3-0.4-5.9
		C33.1,3.1,30.3,3.3,28.8,5z" />
    <path class="st2" d="M2.9,19.1l32.6,10.5c2.2,0.7,4.6-0.5,5.3-2.7c0.7-2.2-0.5-4.5-2.7-5.2L5.5,11.2c-2.2-0.7-4.6,0.5-5.3,2.7
		S0.7,18.4,2.9,19.1z" />
    <path class="st3" d="M64.1,25.3c0-0.8-0.3-1.4-0.9-1.9s-1.2-0.9-2.1-1.2c-0.9-0.4-1.7-0.8-2.7-1.2c-0.9-0.4-1.9-0.9-2.7-1.5
		c-0.9-0.6-1.5-1.4-2.1-2.3c-0.5-0.9-0.8-2-0.8-3.4c0-1.2,0.2-2.3,0.6-3.1c0.4-0.9,0.9-1.6,1.7-2.3s1.6-1,2.7-1.3s2.1-0.4,3.4-0.4
		c1.4,0,2.8,0.2,4.1,0.4s2.3,0.6,3.1,1.1l-1.5,4.1c-0.5-0.3-1.3-0.6-2.3-0.9c-1-0.3-2.2-0.4-3.4-0.4c-1.1,0-2,0.2-2.7,0.7
		c-0.6,0.5-0.9,1-0.9,1.8c0,0.7,0.2,1.3,0.8,1.8c0.5,0.5,1.2,0.9,2.1,1.3s1.8,0.8,2.7,1.2c1,0.4,1.9,0.9,2.7,1.6s1.6,1.3,2.1,2.3
		c0.5,0.9,0.9,2,0.9,3.3c0,1.3-0.2,2.5-0.7,3.4c-0.4,0.9-1,1.7-1.9,2.3c-0.8,0.6-1.7,1.1-2.9,1.4c-1.1,0.3-2.3,0.5-3.7,0.5
		c-1.8,0-3.4-0.2-4.7-0.5c-1.3-0.3-2.3-0.6-3-1l1.6-4.1c0.2,0.2,0.6,0.3,1,0.5c0.4,0.2,0.9,0.3,1.4,0.5c0.5,0.2,1.1,0.2,1.6,0.4
		c0.6,0.1,1.2,0.2,1.8,0.2c1.4,0,2.5-0.2,3.3-0.7C63.7,27.1,64.1,26.3,64.1,25.3z" />
    <path class="st3" d="M87.8,19.3c-0.3-1.2-0.9-2.1-1.5-3c-0.7-0.9-1.6-1.5-2.6-1.9c-1-0.5-2.3-0.7-3.7-0.7c-2.7,0-4.7,0.8-6.2,2.4
		s-2.2,3.9-2.2,6.9c0,1.4,0.2,2.7,0.5,3.8c0.4,1.2,0.9,2.1,1.6,3c0.7,0.8,1.6,1.4,2.7,1.9c1,0.5,2.3,0.7,3.7,0.7
		c2.7,0,4.7-0.8,6.1-2.4c1.5-1.6,2.2-3.9,2.2-6.9C88.3,21.7,88.2,20.4,87.8,19.3z M82.7,27.2c-0.6,0.9-1.5,1.3-2.7,1.3
		c-0.6,0-1.2-0.2-1.6-0.4c-0.5-0.3-0.8-0.7-1.1-1.2c-0.3-0.5-0.5-1.1-0.6-1.7s-0.2-1.4-0.2-2.2c0-2,0.3-3.4,0.9-4.1
		c0.6-0.8,1.5-1.2,2.7-1.2c1.3,0,2.2,0.5,2.7,1.5c0.5,1,0.8,2.3,0.8,3.9C83.6,25,83.3,26.4,82.7,27.2z" />
    <path class="st3" d="M96.4,14.3v10.1c0,1.4,0.2,2.5,0.5,3.1c0.4,0.6,1,0.9,2,0.9c0.9,0,1.6-0.2,2.2-0.8c0.6-0.5,1-1.2,1.3-1.9V14.3
		h4.6v12.3c0,0.9,0.1,2,0.2,2.9s0.2,1.8,0.4,2.5h-3.4l-0.8-2.7h-0.2c-0.5,0.9-1.3,1.6-2.3,2.3c-0.9,0.6-2.1,0.9-3.4,0.9
		c-0.9,0-1.7-0.2-2.4-0.4s-1.3-0.6-1.8-1.2c-0.5-0.5-0.9-1.2-1.1-2.2s-0.4-2.1-0.4-3.4v-11H96.4z" />
    <path class="st3" d="M121.7,18.6c-0.7-0.2-1.4-0.4-2-0.4c-0.9,0-1.5,0.2-2.1,0.7c-0.5,0.4-0.9,1-1.1,1.6v11.4H112V14.3h3.6l0.5,2.3
		h0.2c0.4-0.9,0.9-1.6,1.6-2s1.5-0.7,2.4-0.7c0.6,0,1.3,0.2,2.1,0.4L121.7,18.6z" />
    <path class="st3" d="M137.3,30.8c-0.7,0.5-1.6,0.9-2.6,1.2c-1,0.3-2,0.4-3,0.4c-1.4,0-2.7-0.2-3.6-0.7c-0.9-0.5-1.8-1.1-2.3-1.9
		c-0.6-0.9-1.1-1.8-1.3-3c-0.2-1.2-0.4-2.4-0.4-3.8c0-3,0.7-5.3,2-6.9c1.3-1.6,3.3-2.4,5.9-2.4c1.3,0,2.3,0.1,3.1,0.3
		c0.8,0.2,1.5,0.5,2.2,0.8l-1.1,3.7c-0.5-0.2-1.1-0.5-1.6-0.6c-0.5-0.2-1.1-0.2-1.8-0.2c-1.2,0-2.3,0.4-2.9,1.2c-0.6,0.9-1,2.2-1,4
		c0,0.8,0.1,1.5,0.2,2.1s0.4,1.2,0.8,1.6c0.3,0.5,0.8,0.9,1.2,1.1c0.5,0.2,1.2,0.4,1.9,0.4c0.8,0,1.4-0.1,2-0.3
		c0.5-0.2,1-0.5,1.5-0.8L137.3,30.8z" />
    <path class="st3" d="M154.1,17.5c-0.4-0.9-0.9-1.6-1.6-2.2c-0.6-0.5-1.4-0.9-2.3-1.2c-0.9-0.2-1.7-0.4-2.7-0.4
		c-2.7,0-4.8,0.8-6.2,2.3c-1.5,1.6-2.3,3.9-2.3,7c0,2.9,0.6,5.2,2,6.9c1.3,1.6,3.4,2.5,6.2,2.5c1.4,0,2.7-0.2,3.8-0.5
		c1.2-0.4,2.2-0.9,2.9-1.5l-1.5-3c-0.4,0.3-1,0.6-1.8,0.9s-1.6,0.4-2.6,0.4c-1.6,0-2.7-0.4-3.4-1.1c-0.7-0.8-1.1-1.9-1.1-3.4h10.6
		c0.2-0.6,0.2-1.2,0.2-1.8c0.1-0.5,0.1-1.1,0.1-1.6C154.7,19.6,154.5,18.4,154.1,17.5z M150.5,21.5h-6.6c0.2-1.2,0.5-2.2,1-2.9
		c0.6-0.7,1.5-1.1,2.7-1.1c1,0,1.8,0.3,2.3,1C150.4,19.2,150.5,20.1,150.5,21.5z" />
    <path class="st3" d="M170.7,14.2c-1.2-0.2-2.5-0.3-4.1-0.3c-2.9,0-5.1,0.8-6.6,2.4s-2.3,4-2.3,7.2c0,3,0.5,5.2,1.6,6.6
		c1.1,1.4,2.8,2.1,5.2,2.1c2.1,0,3.6-0.5,4.4-1.6h0.2v1.1c0,1.2-0.3,2.2-0.9,2.9s-1.6,1.1-3.3,1.1c-1.1,0-2-0.1-2.7-0.3
		c-0.7-0.2-1.3-0.4-1.9-0.6l-0.9,3.7c0.5,0.2,1.2,0.5,2.2,0.8c1,0.2,2.3,0.4,4.1,0.4c2.5,0,4.4-0.6,5.9-1.9c1.4-1.2,2.1-3.1,2.1-5.6
		V14.9C172.9,14.7,172,14.4,170.7,14.2z M169.1,26.1c-0.2,0.8-0.6,1.4-1.1,1.8c-0.5,0.4-1.2,0.6-2,0.6c-1.1,0-1.9-0.5-2.4-1.3
		c-0.5-0.9-0.9-2.2-0.9-3.9c0-2,0.3-3.4,1-4.2c0.6-0.9,1.6-1.3,2.7-1.3c1.1,0,2,0.2,2.7,0.5L169.1,26.1L169.1,26.1z" />
    <path class="st3" d="M187.4,18.6c-0.7-0.2-1.4-0.4-2-0.4c-0.9,0-1.5,0.2-2.1,0.7c-0.5,0.4-0.9,1-1.1,1.6v11.4h-4.6V14.3h3.6
		l0.5,2.3h0.2c0.4-0.9,0.9-1.6,1.6-2c0.7-0.5,1.5-0.7,2.4-0.7c0.6,0,1.3,0.2,2.1,0.4L187.4,18.6z" />
    <path class="st3" d="M204.6,29.3c-0.1-0.9-0.1-2-0.1-3c0-1,0.1-2,0.2-3c0.1-1.1,0.1-2.1,0.1-3.1c0-0.9-0.1-1.8-0.3-2.6
		c-0.2-0.8-0.5-1.4-1-2c-0.5-0.5-1.1-0.9-2-1.2c-0.9-0.3-1.9-0.5-3-0.5c-1.4,0-2.7,0.2-4.1,0.4c-1.3,0.2-2.4,0.5-3.4,1l1.1,3.4
		c0.6-0.3,1.5-0.5,2.5-0.8c1-0.2,2-0.3,3-0.3c1.2,0,2,0.3,2.3,0.9c0.4,0.5,0.5,1.5,0.3,2.8c-1.6-0.1-3,0-4.2,0.2
		c-1.2,0.2-2.3,0.5-3.3,0.9c-0.9,0.5-1.6,1-2.1,1.8c-0.5,0.7-0.7,1.6-0.7,2.7c0,0.8,0.2,1.5,0.4,2.1c0.2,0.6,0.6,1.2,1.1,1.6
		c0.5,0.5,1,0.8,1.7,1.1c0.6,0.2,1.4,0.4,2.3,0.4c1.3,0,2.4-0.2,3.2-0.8c0.9-0.5,1.5-1.2,2-1.9h0.2l0.8,2.4h3.7
		C204.9,31.1,204.7,30.3,204.6,29.3z M199.7,26.5c-0.2,0.5-0.6,0.9-1.2,1.3c-0.5,0.4-1.2,0.6-2.2,0.6c-0.7,0-1.2-0.2-1.6-0.5
		c-0.4-0.4-0.5-0.9-0.5-1.6c0-0.5,0.2-0.9,0.5-1.2c0.3-0.3,0.7-0.5,1.2-0.7c0.5-0.2,1.1-0.2,1.8-0.3s1.4,0,2.1,0L199.7,26.5
		L199.7,26.5z" />
    <path class="st3" d="M222.8,15.9c-1.1-1.4-2.7-2.1-5-2.1c-1.2,0-2.3,0.2-3,0.6c-0.9,0.4-1.6,1.1-2.2,2h-0.2l-0.5-2.1h-3.4V39h4.6
		v-7.3c0.5,0.2,0.9,0.4,1.4,0.5c0.5,0.2,1.1,0.2,1.8,0.2c1.3,0,2.4-0.2,3.4-0.7c1-0.5,1.9-1.1,2.6-2c0.7-0.9,1.2-1.9,1.6-3
		c0.4-1.2,0.5-2.6,0.5-4.1C224.5,19.5,224,17.3,222.8,15.9z M218.7,27.2c-0.6,0.9-1.6,1.4-3,1.4c-0.6,0-1.2-0.1-1.6-0.2
		c-0.4-0.2-0.7-0.4-1.1-0.6v-7.3c0.3-0.9,0.7-1.6,1.2-2c0.5-0.5,1.2-0.7,2.1-0.7c1.2,0,2,0.4,2.5,1.2c0.5,0.9,0.8,2,0.8,3.6
		C219.8,24.7,219.4,26.2,218.7,27.2z" />
    <path class="st3" d="M239,32V21.9c0-1.4-0.2-2.5-0.6-3.1c-0.4-0.6-1.1-0.9-2.2-0.9c-0.8,0-1.5,0.2-2.2,0.8c-0.6,0.5-1.1,1.2-1.2,2
		V32h-4.6V7.2h4.6v9.1h0.2c0.5-0.8,1.2-1.3,2.1-1.8c0.9-0.5,1.9-0.7,3.1-0.7c0.9,0,1.7,0.2,2.3,0.4c0.6,0.2,1.2,0.6,1.7,1.2
		s0.8,1.2,1,2.3c0.2,0.9,0.4,2,0.4,3.4v11L239,32z" />
  </g>
</svg>
