<?xml version="1.0" encoding="UTF-8"?><svg id="a" xmlns="http://www.w3.org/2000/svg" xmlns:xlink="http://www.w3.org/1999/xlink" viewBox="0 0 174.5 147.5"><defs><style>.c,.d{fill:none;}.e{fill:#00cbec;}.f{fill:#ff5543;}.g{fill:#fff;}.h{fill:#6c757d;}.i{fill:#a112ff;}.j{clip-path:url(#b);}.d{stroke:#242427;}</style><clipPath id="b"><rect x="7.75" y="7.75" width="84.01" height="14.13" style="fill:none;"/></clipPath></defs><rect width="174.5" height="147.5" style="fill:#fff;"/><rect width="174.5" height="147.5" style="fill:none; stroke:#242427;"/><g style="clip-path:url(#b);"><path d="M16.01,22.09c-.77,.14-1.52-.37-1.66-1.14l-2.12-11.51c-.14-.77,.37-1.52,1.14-1.66,.77-.14,1.52,.37,1.66,1.14l2.12,11.51c.14,.77-.37,1.52-1.14,1.66" style="fill:#ff5543;"/><path d="M10.49,20.13c-.48,.09-1-.08-1.34-.48-.51-.6-.44-1.5,.16-2.01l8.91-7.59c.6-.51,1.5-.44,2.01,.16,.51,.6,.44,1.5-.16,2.01l-8.91,7.59c-.2,.17-.43,.27-.66,.32" style="fill:#a112ff;"/><path d="M20.46,18.3c-.24,.04-.49,.03-.73-.06l-11.03-3.92c-.74-.26-1.13-1.08-.87-1.82,.26-.74,1.08-1.13,1.82-.87l11.03,3.92c.74,.26,1.13,1.08,.87,1.82-.18,.5-.6,.83-1.09,.92" style="fill:#00cbec;"/><path d="M29.69,16.89c0-.27-.1-.5-.3-.67s-.46-.33-.76-.47c-.31-.14-.64-.29-.99-.44s-.69-.34-.99-.55c-.3-.22-.56-.49-.76-.82-.2-.33-.3-.74-.3-1.25,0-.44,.07-.82,.22-1.14,.15-.32,.35-.59,.63-.81,.27-.21,.59-.38,.96-.48,.37-.1,.78-.15,1.24-.15,.52,0,1.02,.04,1.48,.13,.46,.09,.85,.22,1.15,.39l-.55,1.49c-.19-.12-.47-.23-.85-.33-.38-.1-.79-.15-1.23-.15-.41,0-.73,.08-.95,.25-.22,.16-.33,.38-.33,.66,0,.26,.1,.47,.3,.64,.2,.17,.46,.33,.76,.48,.31,.15,.64,.3,.99,.45,.36,.15,.69,.34,.99,.56,.3,.22,.56,.49,.76,.81,.2,.32,.3,.73,.3,1.21s-.08,.9-.24,1.25c-.16,.35-.38,.64-.67,.87-.29,.23-.64,.4-1.04,.52-.41,.11-.86,.17-1.35,.17-.65,0-1.21-.06-1.7-.18-.49-.12-.85-.24-1.08-.36l.57-1.51c.1,.05,.22,.11,.37,.17,.15,.06,.32,.12,.51,.17,.19,.05,.39,.09,.6,.13,.21,.03,.43,.05,.65,.05,.52,0,.93-.09,1.21-.26,.28-.18,.42-.45,.42-.81"/><path d="M32.2,16.09c0-1.09,.27-1.93,.8-2.52,.53-.59,1.28-.88,2.25-.88,.52,0,.96,.08,1.34,.25,.38,.16,.69,.39,.94,.69,.25,.3,.44,.66,.56,1.08,.12,.42,.19,.89,.19,1.39,0,1.09-.26,1.93-.79,2.52-.53,.59-1.28,.88-2.24,.88-.52,0-.96-.08-1.34-.25-.38-.16-.7-.39-.95-.69-.25-.3-.44-.66-.57-1.08-.12-.42-.19-.89-.19-1.39m1.73,0c0,.28,.03,.55,.08,.79,.05,.24,.13,.45,.23,.63,.1,.18,.24,.32,.41,.42,.17,.1,.37,.15,.6,.15,.44,0,.77-.16,.98-.48,.21-.32,.32-.82,.32-1.51,0-.59-.1-1.07-.3-1.44-.2-.37-.53-.55-1.01-.55-.41,0-.74,.15-.97,.46-.23,.31-.35,.82-.35,1.52"/><path d="M40.79,12.87v3.67c0,.52,.06,.9,.19,1.14,.12,.23,.37,.35,.73,.35,.32,0,.58-.09,.79-.28,.21-.19,.37-.42,.47-.7v-4.17h1.68v4.49c0,.35,.02,.7,.05,1.04s.09,.65,.15,.92h-1.26l-.3-.95h-.05c-.2,.33-.47,.6-.83,.81-.35,.21-.77,.32-1.25,.32-.33,0-.62-.04-.88-.13-.26-.08-.47-.23-.65-.43-.17-.2-.3-.46-.39-.8-.09-.34-.13-.76-.13-1.27v-4.01h1.68Z"/><path d="M49.54,14.44c-.27-.09-.51-.14-.72-.14-.3,0-.55,.08-.76,.24-.2,.16-.34,.36-.41,.61v4.17h-1.68v-6.45h1.3l.19,.85h.05c.15-.32,.34-.56,.59-.73,.25-.17,.54-.26,.88-.26,.22,0,.68,.11,.94,.22l-.4,1.49Z"/><path d="M54.97,18.92c-.26,.19-.57,.33-.94,.43-.37,.1-.74,.15-1.13,.15-.52,0-.95-.08-1.31-.24-.36-.16-.65-.39-.87-.69-.22-.3-.39-.66-.49-1.08-.1-.42-.15-.89-.15-1.39,0-1.09,.25-1.93,.74-2.52,.49-.59,1.2-.89,2.14-.89,.47,0,.85,.04,1.14,.12,.29,.08,.55,.18,.78,.3l-.4,1.37c-.2-.1-.39-.17-.59-.22-.19-.05-.42-.08-.67-.08-.46,0-.82,.15-1.06,.46-.24,.31-.36,.79-.36,1.46,0,.28,.03,.53,.09,.76,.06,.23,.15,.43,.27,.61,.12,.17,.28,.31,.47,.41,.19,.1,.42,.15,.68,.15,.28,0,.52-.04,.72-.11,.2-.07,.37-.16,.53-.27l.39,1.28Z"/><path d="M60.88,18.77c-.26,.21-.61,.38-1.05,.52-.44,.14-.92,.21-1.41,.21-1.04,0-1.8-.3-2.28-.91-.48-.61-.72-1.44-.72-2.5,0-1.14,.27-1.99,.81-2.55,.54-.57,1.3-.85,2.28-.85,.33,0,.65,.04,.96,.13s.58,.23,.83,.43,.43,.46,.58,.8c.15,.34,.22,.75,.22,1.25,0,.18-.01,.38-.03,.58s-.05,.42-.1,.65h-3.87c.03,.54,.17,.95,.42,1.23,.25,.27,.66,.41,1.23,.41,.35,0,.67-.05,.95-.16,.28-.11,.49-.22,.64-.33l.55,1.1Zm-2.4-4.74c-.44,0-.76,.13-.98,.39-.21,.26-.34,.61-.38,1.05h2.4c.03-.46-.04-.82-.21-1.07-.18-.25-.45-.37-.83-.37"/><path d="M67.59,19.32c0,.94-.25,1.63-.76,2.07-.51,.44-1.22,.66-2.13,.66-.62,0-1.11-.04-1.47-.13-.36-.09-.63-.18-.81-.27l.35-1.33c.2,.08,.43,.15,.69,.23,.26,.08,.59,.12,.97,.12,.59,0,.98-.13,1.19-.38,.21-.25,.32-.61,.32-1.07v-.41h-.05c-.3,.4-.83,.61-1.6,.61-.83,0-1.46-.26-1.86-.77-.41-.52-.61-1.33-.61-2.43s.27-2.03,.83-2.62c.55-.59,1.35-.89,2.4-.89,.55,0,1.04,.04,1.48,.12,.43,.08,.79,.17,1.07,.27v6.22Zm-2.84-1.24c.33,0,.58-.07,.75-.22,.18-.15,.31-.37,.41-.66v-2.9c-.27-.11-.6-.17-.99-.17-.43,0-.77,.16-1.01,.48-.24,.32-.36,.84-.36,1.54,0,.63,.1,1.1,.31,1.43,.21,.33,.5,.49,.89,.49"/><path d="M72.45,14.44c-.27-.09-.51-.14-.72-.14-.3,0-.55,.08-.76,.24-.2,.16-.34,.36-.41,.61v4.17h-1.68v-6.45h1.3l.19,.85h.05c.15-.32,.34-.56,.59-.73,.25-.17,.54-.26,.88-.26,.22,0,.48,.05,.76,.14l-.22,1.57Z"/><path d="M73.27,13.19c.34-.15,.59-.22,1.06-.31,.47-.09,.97-.14,1.48-.14,.45,0,.82,.05,1.12,.16,.3,.11,.54,.26,.72,.46,.18,.2,.3,.43,.38,.71,.07,.28,.11,.59,.11,.93,0,.38-.01,.76-.04,1.14-.03,.38-.04,.76-.05,1.13,0,.37,0,.73,.03,1.08,.03,.35,.09,.68,.19,.99h-1.37l-.27-.89h-.07c-.17,.27-.41,.5-.72,.69-.31,.19-.7,.29-1.18,.29-.3,0-.57-.04-.81-.14-.24-.09-.45-.22-.62-.39s-.31-.36-.4-.59c-.1-.23-.14-.48-.14-.77,0-.4,.09-.73,.26-1,.18-.27,.43-.49,.76-.66,.33-.17,.73-.28,1.19-.35,.46-.07,.97-.08,1.54-.06,.06-.48,.03-.83-.1-1.04-.13-.21-.42-.32-.86-.32-.34,0-.69,.04-1.07,.1-.37,.07-.52,.11-.76,.22l-.4-1.25Zm1.97,4.86c.34,0,.6-.07,.8-.23,.2-.15,.34-.31,.44-.48v-.84c-.27-.02-.52-.03-.77-.01-.24,.02-.46,.06-.65,.12-.19,.06-.34,.15-.45,.26-.11,.11-.17,.25-.17,.43,0,.24,.07,.43,.21,.56s.34,.2,.59,.2"/><path d="M79.38,12.87h1.23l.19,.77h.05c.22-.33,.49-.57,.79-.72,.3-.15,.68-.23,1.12-.23,.81,0,1.41,.26,1.82,.77,.4,.51,.61,1.34,.61,2.47,0,.55-.06,1.05-.19,1.49-.13,.44-.32,.82-.58,1.13s-.56,.55-.93,.71c-.37,.16-.78,.25-1.26,.25-.27,0-.49-.02-.66-.06-.17-.04-.34-.1-.52-.19v2.65h-1.68V12.87Zm2.88,1.24c-.33,0-.58,.08-.77,.25-.18,.16-.33,.41-.43,.74v2.68c.12,.1,.25,.17,.39,.23s.33,.08,.56,.08c.48,0,.84-.17,1.08-.51,.24-.34,.36-.9,.36-1.68,0-.57-.1-1.01-.28-1.32-.19-.31-.5-.47-.92-.47"/><path d="M90.08,19.32v-3.67c0-.52-.07-.9-.22-1.14-.15-.23-.41-.35-.8-.35-.28,0-.54,.1-.78,.29-.24,.19-.39,.44-.47,.74v4.12h-1.68V10.29h1.68v3.3h.05c.21-.27,.46-.49,.76-.66,.3-.16,.68-.25,1.15-.25,.33,0,.62,.04,.87,.13,.25,.09,.46,.23,.63,.43,.17,.2,.29,.47,.37,.81s.12,.76,.12,1.26v4.01h-1.68Z"/></g><rect x="8.75" y="52.17" width="113" height="39.4" style="fill:#6c757d;"/><rect x="8.75" y="99.11" width="141" height="8.25" style="fill:#6c757d;"/><rect x="8.75" y="113.42" width="113" height="8.25" style="fill:#6c757d;"/></svg>