<svg id="Layer_1" data-name="Layer 1" xmlns="http://www.w3.org/2000/svg" xmlns:xlink="http://www.w3.org/1999/xlink" viewBox="0 0 335 398">
  <defs>
    <style>
      @import url(https://fonts.googleapis.com/css2?family=Source+Code+Pro:ital,wght@0,200;0,400;0,600;0,700;1,200;1,400;1,600;1,700&amp;family=Source+Sans+Pro:ital,wght@0,200;0,400;0,600;0,700;1,200;1,400;1,600;1,700&amp;display=swap);

      .cls-1, .cls-18, .cls-26, .cls-3, .cls-6, .cls-9 {
        fill: none;
      }

      .cls-2 {
        clip-path: url(#clip-path);
      }

      .cls-3 {
        stroke: #b114f7;
      }

      .cls-3, .cls-6, .cls-9 {
        stroke-miterlimit: 10;
        stroke-width: 0.58px;
      }

      .cls-4, .cls-7 {
        font-size: 4.62px;
      }

      .cls-13, .cls-4, .cls-5 {
        fill: #b114f7;
      }

      .cls-10, .cls-11, .cls-12, .cls-13, .cls-14, .cls-15, .cls-4, .cls-5, .cls-7, .cls-8 {
        font-family: 'Source Sans Pro', sans-serif;
      }

      .cls-10, .cls-11, .cls-12, .cls-13, .cls-14, .cls-15, .cls-24, .cls-4, .cls-5, .cls-7, .cls-8 {
        font-weight: 700;
      }

      .cls-5 {
        font-size: 4.62px;
      }

      .cls-6 {
        stroke: #0fb6f2;
      }

      .cls-11, .cls-14, .cls-7, .cls-8 {
        fill: #0fb6f2;
      }

      .cls-8 {
        font-size: 4.62px;
      }

      .cls-9 {
        stroke: #ff5543;
      }

      .cls-10 {
        font-size: 4.62px;
      }

      .cls-10, .cls-12, .cls-15, .cls-21 {
        fill: #ff5543;
      }

      .cls-11 {
        font-size: 4.62px;
      }

      .cls-12 {
        font-size: 4.62px;
      }

      .cls-13 {
        font-size: 4.62px;
      }

      .cls-14 {
        font-size: 4.62px;
      }

      .cls-15 {
        font-size: 4.62px;
      }

      .cls-16 {
        fill: #fff;
      }

      .cls-17 {
        clip-path: url(#clip-path-26);
      }

      .cls-18 {
        stroke: #a7a9ac;
      }

      .cls-18, .cls-26 {
        stroke-width: 0.5px;
      }

      .cls-19, .cls-24, .cls-25 {
        fill: #5033e1;
      }

      .cls-20 {
        clip-path: url(#clip-path-27);
      }

      .cls-22 {
        fill: #a112ff;
      }

      .cls-23 {
        fill: #00cbec;
      }

      .cls-24, .cls-25 {
        font-size: 36.27px;
      }

      .cls-24 {
        font-family: 'Source Sans Pro', sans-serif;
      }

      .cls-25 {
        font-family: 'Source Sans Pro', sans-serif;
      }

      .cls-26 {
        stroke: #899197;
      }

      .cls-27 {
        fill: #242427;
      }
    </style>
    <clipPath id="clip-path">
      <rect class="cls-1" x="-278.75" y="62.22" width="235.34" height="250.25"/>
    </clipPath>
    <clipPath id="clip-path-26">
      <rect class="cls-1" x="15.92" y="62.13" width="300.5" height="331.5"/>
    </clipPath>
    <clipPath id="clip-path-27">
      <rect class="cls-1" x="38.34" y="85.38" width="124.83" height="21"/>
    </clipPath>
  </defs>
  <g>
    <g class="cls-2">
      <path d="M17.74,258.62-28.55,254a1.39,1.39,0,0,1-1.24-1.51l3.25-32.64A1.39,1.39,0,0,1-25,218.62l46.29,4.61a1.39,1.39,0,0,1,1.24,1.52l-3.25,32.63a1.39,1.39,0,0,1-1.52,1.24"/>
      <path class="cls-3" d="M17.74,258.62-28.55,254a1.39,1.39,0,0,1-1.24-1.51l3.25-32.64A1.39,1.39,0,0,1-25,218.62l46.29,4.61a1.39,1.39,0,0,1,1.24,1.52l-3.25,32.63A1.39,1.39,0,0,1,17.74,258.62Z"/>
    </g>
    <g class="cls-2">
      <text class="cls-4" transform="matrix(1, 0.1, -0.1, 1, -24.39, 226.38)">case-studies-quant</text>
      <text class="cls-4" transform="matrix(1, 0.1, -0.1, 1, 12.77, 230.08)">-</text>
      <text class="cls-4" transform="matrix(1, 0.1, -0.1, 1, -17.21, 232.66)">-large-scale-re</text>
      <text class="cls-4" transform="matrix(1, 0.1, -0.1, 1, 11.62, 235.53)">-</text>
      <text class="cls-4" transform="matrix(1, 0.1, -0.1, 1, -18.16, 238.13)">oring-tsx</text>
      <text class="cls-4" transform="matrix(1, 0.1, -0.1, 1, -0.28, 239.91)">&quot;</text>
      <text class="cls-4" transform="matrix(1, 0.1, -0.1, 1, 0.97, 240.04)">,17:&quot;</text>
      <text class="cls-4" transform="matrix(1, 0.1, -0.1, 1, 10.3, 240.97)">-</text>
      <text class="cls-4" transform="matrix(1, 0.1, -0.1, 1, -2.98, 250.78)">-pages-ca</text>
      <path d="M50,235.14,3.58,232.78a1.38,1.38,0,0,1-1.31-1.45l1.66-32.76a1.38,1.38,0,0,1,1.45-1.31l46.46,2.36a1.38,1.38,0,0,1,1.31,1.45l-1.66,32.76A1.38,1.38,0,0,1,50,235.14"/>
      <path class="cls-3" d="M50,235.14,3.58,232.78a1.38,1.38,0,0,1-1.31-1.45l1.66-32.76a1.38,1.38,0,0,1,1.45-1.31l46.46,2.36a1.38,1.38,0,0,1,1.31,1.45l-1.66,32.76A1.38,1.38,0,0,1,50,235.14Z"/>
      <text class="cls-5" transform="translate(5.17 205.01) rotate(2.9)"><tspan xml:space="preserve">  </tspan></text>
      <text class="cls-5" transform="translate(7.51 205.13) rotate(2.9)"> </text>
      <text class="cls-5" transform="translate(8.35 205.17) rotate(2.9)">.</text>
      <text class="cls-5" transform="translate(9.58 205.23) rotate(2.9)">ancho</text>
      <text class="cls-5" transform="translate(21.36 205.83) rotate(2.9)">r</text>
      <text class="cls-5" transform="translate(22.7 205.9) rotate(2.9)">.</text>
      <text class="cls-5" transform="translate(23.93 205.96) rotate(2.9)">a</text>
      <text class="cls-5" transform="translate(26.22 206.08) rotate(2.9)">f</text>
      <text class="cls-5" transform="translate(27.66 206.15) rotate(2.9)">t</text>
      <text class="cls-5" transform="translate(29.24 206.23) rotate(2.9)">er {</text>
      <text class="cls-5" transform="translate(4.89 210.54) rotate(2.9)"><tspan xml:space="preserve">      display: </tspan></text>
      <text class="cls-5" transform="translate(4.61 216.07) rotate(2.9)">inline-block;</text>
      <text class="cls-5" transform="translate(4.33 221.6) rotate(2.9)"><tspan xml:space="preserve">      padding-le</tspan></text>
      <text class="cls-5" transform="translate(32.65 223.04) rotate(2.9)">f</text>
      <text class="cls-5" transform="translate(34.1 223.11) rotate(2.9)">t: 4</text>
      <text class="cls-5" transform="translate(40.72 223.45) rotate(2.9)">p</text>
      <text class="cls-5" transform="translate(43.1 223.57) rotate(2.9)">x;</text>
      <text class="cls-5" transform="translate(4.05 227.14) rotate(2.9)"><tspan xml:space="preserve">    }</tspan></text>
    </g>
    <g class="cls-2">
      <path d="M12.55,147l-46.29-4.62A1.38,1.38,0,0,1-35,140.89l3.25-32.64A1.4,1.4,0,0,1-30.21,107l46.29,4.61a1.4,1.4,0,0,1,1.24,1.52l-3.25,32.64A1.4,1.4,0,0,1,12.55,147"/>
      <path class="cls-6" d="M12.55,147l-46.29-4.62A1.38,1.38,0,0,1-35,140.89l3.25-32.64A1.4,1.4,0,0,1-30.21,107l46.29,4.61a1.4,1.4,0,0,1,1.24,1.52l-3.25,32.64A1.4,1.4,0,0,1,12.55,147Z"/>
    </g>
    <g class="cls-2">
      <text class="cls-7" transform="matrix(1, 0.1, -0.1, 1, -0.49, 134.32)">em</text>
      <text class="cls-7" transform="matrix(1, 0.1, -0.1, 1, 5.53, 134.92)">-</text>
    </g>
    <g class="cls-2">
      <path d="M39.76,203.27l-46.25,5A1.4,1.4,0,0,1-8,207l-3.52-32.61a1.39,1.39,0,0,1,1.23-1.53l46.25-5a1.39,1.39,0,0,1,1.52,1.23L41,201.74a1.4,1.4,0,0,1-1.23,1.53"/>
      <path class="cls-6" d="M39.76,203.27l-46.25,5A1.4,1.4,0,0,1-8,207l-3.52-32.61a1.39,1.39,0,0,1,1.23-1.53l46.25-5a1.39,1.39,0,0,1,1.52,1.23L41,201.74A1.4,1.4,0,0,1,39.76,203.27Z"/>
    </g>
    <g class="cls-2">
      <text class="cls-8" transform="translate(-2.7 179.63) rotate(-6.17)">earn h</text>
      <text class="cls-8" transform="translate(9.68 178.3) rotate(-6.17)">o</text>
      <text class="cls-8" transform="translate(12.11 178.03) rotate(-6.17)">w</text>
      <text class="cls-8" transform="translate(15.31 177.69) rotate(-6.17)"><tspan xml:space="preserve"> cus</tspan></text>
      <text class="cls-8" transform="translate(22.86 176.87) rotate(-6.17)">t</text>
      <text class="cls-8" transform="translate(24.44 176.7) rotate(-6.17)">om</text>
      <text class="cls-8" transform="translate(30.59 176.04) rotate(-6.17)">-</text>
      <text class="cls-8" transform="translate(-6.73 185.64) rotate(-6.17)">ers &lt;br/&gt; use Sour</text>
      <text class="cls-8" transform="translate(29.13 181.76) rotate(-6.17)">c</text>
      <text class="cls-8" transform="translate(31.04 181.56) rotate(-6.17)">e</text>
      <text class="cls-8" transform="translate(33.37 181.31) rotate(-6.17)">-</text>
      <text class="cls-8" transform="translate(-6.13 191.15) rotate(-6.17)">graph&lt;/div&gt;&lt;/a&gt;&lt;/div</text>
      <text class="cls-8" transform="translate(-5.54 196.65) rotate(-6.17)">&gt;&lt;/div&gt;&lt;di</text>
      <text class="cls-8" transform="translate(15.61 194.37) rotate(-6.17)">v</text>
      <text class="cls-8" transform="translate(17.64 194.15) rotate(-6.17)"><tspan xml:space="preserve"> class=&quot;</tspan></text>
      <text class="cls-8" transform="translate(32.55 192.54) rotate(-6.17)">-</text>
      <text class="cls-8" transform="translate(-3.03 201.95) rotate(-6.17)">ontainer&quot;&gt;&lt;hr </text>
    </g>
    <g class="cls-2">
      <path d="M23.22,176.5l-46.29-4.61a1.38,1.38,0,0,1-1.24-1.51l3.25-32.64a1.38,1.38,0,0,1,1.51-1.24l46.29,4.61A1.39,1.39,0,0,1,28,142.62l-3.26,32.64a1.37,1.37,0,0,1-1.51,1.24"/>
      <path class="cls-3" d="M23.22,176.5l-46.29-4.61a1.38,1.38,0,0,1-1.24-1.51l3.25-32.64a1.38,1.38,0,0,1,1.51-1.24l46.29,4.61A1.39,1.39,0,0,1,28,142.62l-3.26,32.64A1.37,1.37,0,0,1,23.22,176.5Z"/>
      <text class="cls-4" transform="matrix(1, 0.1, -0.1, 1, -10.99, 144.25)">en.doc</text>
      <text class="cls-4" transform="matrix(1, 0.1, -0.1, 1, 1.91, 145.54)">t</text>
      <text class="cls-4" transform="matrix(1, 0.1, -0.1, 1, 3.41, 145.69)">ype</text>
      <text class="cls-4" transform="matrix(1, 0.1, -0.1, 1, 10.42, 146.38)">,</text>
      <text class="cls-4" transform="matrix(1, 0.1, -0.1, 1, 11.52, 146.49)">.</text>
      <text class="cls-4" transform="matrix(1, 0.1, -0.1, 1, 12.61, 146.6)">t</text>
      <text class="cls-4" transform="matrix(1, 0.1, -0.1, 1, 14.19, 146.76)">o</text>
      <text class="cls-4" transform="matrix(1, 0.1, -0.1, 1, 16.64, 147)">-</text>
      <text class="cls-4" transform="matrix(1, 0.1, -0.1, 1, -10.63, 149.85)">prolog</text>
      <text class="cls-4" transform="matrix(1, 0.1, -0.1, 1, 2.21, 151.13)">{</text>
      <text class="cls-4" transform="matrix(1, 0.1, -0.1, 1, 3.84, 151.29)">c</text>
      <text class="cls-4" transform="matrix(1, 0.1, -0.1, 1, 5.75, 151.49)">ol</text>
      <text class="cls-4" transform="matrix(1, 0.1, -0.1, 1, 9.57, 151.86)">-</text>
      <text class="cls-4" transform="matrix(1, 0.1, -0.1, 1, -0.92, 156.39)">on</text>
      <text class="cls-4" transform="matrix(1, 0.1, -0.1, 1, 4.05, 156.88)">t</text>
      <text class="cls-4" transform="matrix(1, 0.1, -0.1, 1, 5.58, 157.03)">-s</text>
      <text class="cls-4" transform="matrix(1, 0.1, -0.1, 1, 9.17, 157.39)">t</text>
      <text class="cls-4" transform="matrix(1, 0.1, -0.1, 1, 10.68, 157.54)">yle:i</text>
      <text class="cls-4" transform="matrix(1, 0.1, -0.1, 1, 19.02, 158.37)">-</text>
      <text class="cls-4" transform="matrix(1, 0.1, -0.1, 1, -12.27, 166.39)">namespa</text>
      <text class="cls-4" transform="matrix(1, 0.1, -0.1, 1, 5.23, 168.13)">c</text>
      <text class="cls-4" transform="matrix(1, 0.1, -0.1, 1, 7.15, 168.32)">e</text>
      <text class="cls-4" transform="matrix(1, 0.1, -0.1, 1, 9.48, 168.55)">{</text>
      <text class="cls-4" transform="matrix(1, 0.1, -0.1, 1, 11.11, 168.72)">opaci</text>
      <path d="M-3,205l-46.46-2.35a1.4,1.4,0,0,1-1.32-1.46l1.66-32.75a1.4,1.4,0,0,1,1.46-1.32l46.46,2.36A1.38,1.38,0,0,1,.1,170.92l-1.66,32.76A1.38,1.38,0,0,1-3,205"/>
      <path class="cls-9" d="M-3,205l-46.46-2.35a1.4,1.4,0,0,1-1.32-1.46l1.66-32.75a1.4,1.4,0,0,1,1.46-1.32l46.46,2.36A1.38,1.38,0,0,1,.1,170.92l-1.66,32.76A1.38,1.38,0,0,1-3,205Z"/>
    </g>
    <g class="cls-2">
      <path d="M63.45,258.77l-46.39,3.45a1.4,1.4,0,0,1-1.49-1.28l-2.43-32.71a1.39,1.39,0,0,1,1.28-1.48l46.39-3.45a1.4,1.4,0,0,1,1.49,1.28l2.43,32.71a1.39,1.39,0,0,1-1.28,1.48"/>
      <path class="cls-9" d="M63.45,258.77l-46.39,3.45a1.4,1.4,0,0,1-1.49-1.28l-2.43-32.71a1.39,1.39,0,0,1,1.28-1.48l46.39-3.45a1.4,1.4,0,0,1,1.49,1.28l2.43,32.71A1.39,1.39,0,0,1,63.45,258.77Z"/>
      <text class="cls-10" transform="translate(16.67 233.86) rotate(-4.25)">var scroll</text>
      <text class="cls-10" transform="translate(34.66 232.53) rotate(-4.25)">T</text>
      <text class="cls-10" transform="translate(36.69 232.38) rotate(-4.25)">op =</text>
      <text class="cls-10" transform="translate(45.23 231.74) rotate(-4.25)"> </text>
      <text class="cls-10" transform="translate(46.34 231.66) rotate(-4.25)">win</text>
      <text class="cls-10" transform="translate(53.4 231.13) rotate(-4.25)">-</text>
      <text class="cls-10" transform="translate(17.08 239.39) rotate(-4.25)">d</text>
      <text class="cls-10" transform="translate(19.56 239.2) rotate(-4.25)">o</text>
      <text class="cls-10" transform="translate(22 239.02) rotate(-4.25)">w</text>
      <text class="cls-10" transform="translate(25.06 238.79) rotate(-4.25)">.</text>
      <text class="cls-10" transform="translate(26.28 238.7) rotate(-4.25)">page</text>
      <text class="cls-10" transform="translate(35.86 237.99) rotate(-4.25)">Y</text>
      <text class="cls-10" transform="translate(38.37 237.8) rotate(-4.25)">Offset || </text>
      <text class="cls-10" transform="translate(17.49 244.91) rotate(-4.25)">documen</text>
      <text class="cls-10" transform="translate(35.47 243.57) rotate(-4.25)">t</text>
      <text class="cls-10" transform="translate(37.12 243.45) rotate(-4.25)">.documen</text>
      <text class="cls-10" transform="translate(56.23 242.03) rotate(-4.25)">-</text>
      <text class="cls-10" transform="translate(17.9 250.43) rotate(-4.25)">tElemen</text>
      <text class="cls-10" transform="translate(34.16 249.23) rotate(-4.25)">t</text>
      <text class="cls-10" transform="translate(35.8 249.1) rotate(-4.25)">.</text>
      <text class="cls-10" transform="translate(37.02 249.01) rotate(-4.25)">scroll</text>
      <text class="cls-10" transform="translate(47.75 248.21) rotate(-4.25)">T</text>
      <text class="cls-10" transform="translate(49.78 248.06) rotate(-4.25)">op || </text>
      <text class="cls-10" transform="translate(18.31 255.96) rotate(-4.25)">docu</text>
      <text class="cls-10" transform="translate(27.74 255.26) rotate(-4.25)">-</text>
      <path d="M4,229.12l-46.29-4.61A1.39,1.39,0,0,1-43.49,223l3.25-32.64a1.39,1.39,0,0,1,1.52-1.24l46.29,4.61a1.39,1.39,0,0,1,1.24,1.51L5.56,227.88A1.39,1.39,0,0,1,4,229.12"/>
      <path class="cls-6" d="M4,229.12l-46.29-4.61A1.39,1.39,0,0,1-43.49,223l3.25-32.64a1.39,1.39,0,0,1,1.52-1.24l46.29,4.61a1.39,1.39,0,0,1,1.24,1.51L5.56,227.88A1.39,1.39,0,0,1,4,229.12Z"/>
      <text class="cls-7" transform="matrix(1, 0.1, -0.1, 1, -38.93, 213.69)">languages&lt;/h3&gt;&lt;ul </text>
    </g>
    <g class="cls-2">
      <path d="M41.16,316.72l-46.14,6a1.39,1.39,0,0,1-1.55-1.19L-10.73,289a1.38,1.38,0,0,1,1.19-1.55l46.14-6a1.39,1.39,0,0,1,1.55,1.19l4.2,32.53a1.38,1.38,0,0,1-1.19,1.55"/>
      <path class="cls-6" d="M41.16,316.72l-46.14,6a1.39,1.39,0,0,1-1.55-1.19L-10.73,289a1.38,1.38,0,0,1,1.19-1.55l46.14-6a1.39,1.39,0,0,1,1.55,1.19l4.2,32.53A1.38,1.38,0,0,1,41.16,316.72Z"/>
    </g>
    <g class="cls-2">
      <text class="cls-11" transform="matrix(0.99, -0.13, 0.13, 0.99, -5.81, 295.16)">C9.5,20.7</text>
      <text class="cls-11" transform="matrix(0.99, -0.13, 0.13, 0.99, 13.02, 292.73)">7</text>
      <text class="cls-11" transform="matrix(0.99, -0.13, 0.13, 0.99, 15.38, 292.42)"><tspan xml:space="preserve"> 9.5,20.14 </tspan></text>
      <text class="cls-11" transform="matrix(0.99, -0.13, 0.13, 0.99, -5.1, 300.65)">9.5,19.31C6.73,19.91 </text>
      <text class="cls-11" transform="matrix(0.99, -0.13, 0.13, 0.99, -4.39, 306.15)">6.14,1</text>
      <text class="cls-11" transform="matrix(0.99, -0.13, 0.13, 0.99, 8.16, 304.52)">7</text>
      <text class="cls-11" transform="matrix(0.99, -0.13, 0.13, 0.99, 10.21, 304.26)">.9</text>
      <text class="cls-11" transform="matrix(0.99, -0.13, 0.13, 0.99, 13.93, 303.78)">7</text>
      <text class="cls-11" transform="matrix(0.99, -0.13, 0.13, 0.99, 16.29, 303.47)"> </text>
      <text class="cls-11" transform="matrix(0.99, -0.13, 0.13, 0.99, -3.68, 311.64)">6.14,1</text>
      <text class="cls-11" transform="matrix(0.99, -0.13, 0.13, 0.99, 8.87, 310.02)">7</text>
      <text class="cls-11" transform="matrix(0.99, -0.13, 0.13, 0.99, 10.92, 309.75)">.9</text>
      <text class="cls-11" transform="matrix(0.99, -0.13, 0.13, 0.99, 14.64, 309.27)">7</text>
      <text class="cls-11" transform="matrix(0.99, -0.13, 0.13, 0.99, 17.11, 308.95)">C5.68,16.8</text>
      <text class="cls-11" transform="matrix(0.99, -0.13, 0.13, 0.99, -2.97, 317.13)">1 5.03,16.5 </text>
    </g>
    <g class="cls-2">
      <path d="M87.17,332.55H40.65a1.39,1.39,0,0,1-1.39-1.38v-32.8A1.4,1.4,0,0,1,40.65,297H87.17a1.39,1.39,0,0,1,1.38,1.39v32.8a1.38,1.38,0,0,1-1.38,1.38"/>
      <rect class="cls-9" x="39.26" y="296.98" width="49.29" height="35.57" rx="1.38"/>
      <text class="cls-12" transform="translate(43.33 304.6)">{</text>
      <text class="cls-12" transform="translate(43.33 310.14)"><tspan xml:space="preserve">     </tspan></text>
      <text class="cls-12" transform="translate(49.16 310.14)"> </text>
      <text class="cls-12" transform="translate(50.24 310.14)">visibili</text>
      <text class="cls-12" transform="translate(63.19 310.14)">t</text>
    </g>
    <g class="cls-2">
      <text class="cls-12" transform="translate(64.7 310.14)">y: hidden;</text>
    </g>
    <g class="cls-2">
      <text class="cls-12" transform="translate(43.33 315.68)"><tspan xml:space="preserve">    }</tspan></text>
      <text class="cls-12" transform="translate(43.33 321.21)"><tspan xml:space="preserve">    h1:h</tspan></text>
      <text class="cls-12" transform="translate(56.89 321.21)">o</text>
      <text class="cls-12" transform="translate(59.31 321.21)">v</text>
      <text class="cls-12" transform="translate(61.49 321.21)">er</text>
      <text class="cls-12" transform="translate(65.45 321.21)"> </text>
      <text class="cls-12" transform="translate(66.3 321.21)">.</text>
    </g>
    <g class="cls-2">
      <text class="cls-12" transform="translate(67.53 321.21)">anchor </text>
    </g>
    <g class="cls-2">
      <text class="cls-12" transform="translate(43.33 326.75)">s</text>
      <text class="cls-12" transform="translate(45.27 326.75)">v</text>
      <text class="cls-12" transform="translate(47.44 326.75)">g,</text>
      <path d="M78.23,309.45l-46-7.05a1.4,1.4,0,0,1-1.16-1.58l5-32.42a1.4,1.4,0,0,1,1.58-1.16l46,7.05a1.39,1.39,0,0,1,1.16,1.58l-5,32.42a1.38,1.38,0,0,1-1.58,1.16"/>
      <path class="cls-3" d="M78.23,309.45l-46-7.05a1.4,1.4,0,0,1-1.16-1.58l5-32.42a1.4,1.4,0,0,1,1.58-1.16l46,7.05a1.39,1.39,0,0,1,1.16,1.58l-5,32.42A1.38,1.38,0,0,1,78.23,309.45Z"/>
      <text class="cls-13" transform="matrix(0.99, 0.15, -0.15, 0.99, 38.23, 274.65)"><tspan xml:space="preserve"> documen</tspan></text>
      <text class="cls-13" transform="matrix(0.99, 0.15, -0.15, 0.99, 57.2, 277.56)">t</text>
    </g>
    <g class="cls-2">
      <text class="cls-13" transform="matrix(0.99, 0.15, -0.15, 0.99, 58.83, 277.81)">.documen</text>
    </g>
    <g class="cls-2">
      <text class="cls-13" transform="matrix(0.99, 0.15, -0.15, 0.99, 37.39, 280.13)">tElemen</text>
      <text class="cls-13" transform="matrix(0.99, 0.15, -0.15, 0.99, 53.5, 282.6)">t</text>
      <text class="cls-13" transform="matrix(0.99, 0.15, -0.15, 0.99, 55.13, 282.85)">.client</text>
      <text class="cls-13" transform="matrix(0.99, 0.15, -0.15, 0.99, 67.19, 284.7)">T</text>
    </g>
    <g class="cls-2">
      <text class="cls-13" transform="matrix(0.99, 0.15, -0.15, 0.99, 69.2, 285)">op || </text>
    </g>
    <g class="cls-2">
      <text class="cls-13" transform="matrix(0.99, 0.15, -0.15, 0.99, 36.55, 285.6)">documen</text>
      <text class="cls-13" transform="matrix(0.99, 0.15, -0.15, 0.99, 54.36, 288.33)">t</text>
      <text class="cls-13" transform="matrix(0.99, 0.15, -0.15, 0.99, 56, 288.58)">.bod</text>
      <text class="cls-13" transform="matrix(0.99, 0.15, -0.15, 0.99, 64.48, 289.88)">y</text>
      <text class="cls-13" transform="matrix(0.99, 0.15, -0.15, 0.99, 66.33, 290.17)">.cli</text>
      <text class="cls-13" transform="matrix(0.99, 0.15, -0.15, 0.99, 72, 291.04)">-</text>
      <text class="cls-13" transform="matrix(0.99, 0.15, -0.15, 0.99, 35.71, 291.07)">ent</text>
      <text class="cls-13" transform="matrix(0.99, 0.15, -0.15, 0.99, 42.11, 292.06)">T</text>
      <text class="cls-13" transform="matrix(0.99, 0.15, -0.15, 0.99, 44.12, 292.36)">op || 0</text>
      <text class="cls-13" transform="matrix(0.99, 0.15, -0.15, 0.99, 34.87, 296.55)"><tspan xml:space="preserve">         </tspan></text>
      <text class="cls-13" transform="matrix(0.99, 0.15, -0.15, 0.99, 45.26, 298.14)"> </text>
      <text class="cls-13" transform="matrix(0.99, 0.15, -0.15, 0.99, 46.33, 298.31)">var </text>
      <text class="cls-13" transform="matrix(0.99, 0.15, -0.15, 0.99, 53.52, 299.41)">o</text>
      <text class="cls-13" transform="matrix(0.99, 0.15, -0.15, 0.99, 55.92, 299.78)">ffset = </text>
    </g>
    <g class="cls-2">
      <path d="M73.53,282.55l-46.18-5.68a1.39,1.39,0,0,1-1.2-1.54l4-32.56a1.4,1.4,0,0,1,1.55-1.2l46.17,5.68a1.38,1.38,0,0,1,1.2,1.54l-4,32.56a1.39,1.39,0,0,1-1.54,1.2"/>
      <path class="cls-6" d="M73.53,282.55l-46.18-5.68a1.39,1.39,0,0,1-1.2-1.54l4-32.56a1.4,1.4,0,0,1,1.55-1.2l46.17,5.68a1.38,1.38,0,0,1,1.2,1.54l-4,32.56A1.39,1.39,0,0,1,73.53,282.55Z"/>
      <text class="cls-14" transform="translate(32.63 248.92) rotate(7.01)">pla</text>
      <text class="cls-14" transform="translate(38.72 249.67) rotate(7.01)">t</text>
      <text class="cls-14" transform="translate(40.3 249.87) rotate(7.01)">e__post </text>
      <text class="cls-14" transform="translate(31.95 254.42) rotate(7.01)">h3</text>
      <text class="cls-14" transform="translate(37.05 255.05) rotate(7.01)">,</text>
      <text class="cls-14" transform="translate(38.15 255.18) rotate(7.01)">.</text>
      <text class="cls-14" transform="translate(39.37 255.33) rotate(7.01)">pos</text>
      <text class="cls-14" transform="translate(46.23 256.18) rotate(7.01)">t</text>
      <text class="cls-14" transform="translate(47.76 256.36) rotate(7.01)">-</text>
      <text class="cls-14" transform="translate(49.41 256.57) rotate(7.01)">t</text>
      <text class="cls-14" transform="translate(50.99 256.76) rotate(7.01)">em</text>
      <text class="cls-14" transform="translate(57 257.5) rotate(7.01)">-</text>
      <text class="cls-14" transform="translate(31.28 259.92) rotate(7.01)">pla</text>
      <text class="cls-14" transform="translate(37.37 260.67) rotate(7.01)">t</text>
      <text class="cls-14" transform="translate(38.95 260.86) rotate(7.01)">e__post </text>
      <text class="cls-14" transform="translate(30.6 265.41) rotate(7.01)">h4</text>
      <text class="cls-14" transform="translate(35.7 266.04) rotate(7.01)">,</text>
      <text class="cls-14" transform="translate(36.8 266.18) rotate(7.01)">.</text>
      <text class="cls-14" transform="translate(38.01 266.33) rotate(7.01)">pos</text>
      <text class="cls-14" transform="translate(44.88 267.17) rotate(7.01)">t</text>
      <text class="cls-14" transform="translate(46.41 267.36) rotate(7.01)">-</text>
      <text class="cls-14" transform="translate(48.06 267.56) rotate(7.01)">t</text>
      <text class="cls-14" transform="translate(49.64 267.76) rotate(7.01)">em</text>
      <text class="cls-14" transform="translate(55.65 268.49) rotate(7.01)">-</text>
      <text class="cls-14" transform="translate(29.93 270.91) rotate(7.01)">pla</text>
      <text class="cls-14" transform="translate(36.02 271.66) rotate(7.01)">t</text>
      <text class="cls-14" transform="translate(37.6 271.86) rotate(7.01)">e__post </text>
    </g>
    <g class="cls-2">
      <path d="M36.69,286.79l-46.3,4.46A1.39,1.39,0,0,1-11.12,290l-3.14-32.65A1.37,1.37,0,0,1-13,255.84l46.31-4.45a1.37,1.37,0,0,1,1.51,1.24l3.14,32.65a1.39,1.39,0,0,1-1.25,1.51"/>
      <path class="cls-9" d="M36.69,286.79l-46.3,4.46A1.39,1.39,0,0,1-11.12,290l-3.14-32.65A1.37,1.37,0,0,1-13,255.84l46.31-4.45a1.37,1.37,0,0,1,1.51,1.24l3.14,32.65A1.39,1.39,0,0,1,36.69,286.79Z"/>
      <text class="cls-15" transform="translate(-4.48 262.58) rotate(-5.49)"><tspan xml:space="preserve"> id=&quot;</tspan></text>
      <text class="cls-15" transform="translate(4.66 261.7) rotate(-5.49)">&quot;</text>
      <text class="cls-15" transform="translate(6.1 261.57) rotate(-5.49)"><tspan xml:space="preserve"> class=&quot;&quot;&gt;&lt;</tspan></text>
      <text class="cls-15" transform="translate(27.7 259.49) rotate(-5.49)">-</text>
      <text class="cls-15" transform="translate(-5.44 268.24) rotate(-5.49)">ction class=</text>
      <text class="cls-15" transform="translate(17.44 266.04) rotate(-5.49)">&quot;</text>
      <text class="cls-15" transform="translate(18.82 265.91) rotate(-5.49)">c</text>
      <text class="cls-15" transform="translate(20.73 265.72) rotate(-5.49)">on</text>
      <text class="cls-15" transform="translate(25.69 265.24) rotate(-5.49)">-</text>
      <text class="cls-15" transform="translate(-1.2 273.4) rotate(-5.49)">-s</text>
      <text class="cls-15" transform="translate(2.39 273.05) rotate(-5.49)">e</text>
      <text class="cls-15" transform="translate(4.7 272.83) rotate(-5.49)">ction </text>
      <text class="cls-15" transform="translate(15.66 271.77) rotate(-5.49)">c</text>
      <text class="cls-15" transform="translate(17.58 271.59) rotate(-5.49)">ontainer </text>
      <text class="cls-15" transform="translate(-3.4 279.17) rotate(-5.49)">-5 mb-6&quot;&gt;&lt;di</text>
      <text class="cls-15" transform="translate(22.84 276.65) rotate(-5.49)">v</text>
      <text class="cls-15" transform="translate(24.88 276.45) rotate(-5.49)"> </text>
      <text class="cls-15" transform="translate(-8.1 285.19) rotate(-5.49)">class=</text>
      <text class="cls-15" transform="translate(3.82 284.04) rotate(-5.49)">&quot;</text>
      <text class="cls-15" transform="translate(5.33 283.9) rotate(-5.49)">r</text>
      <text class="cls-15" transform="translate(6.95 283.74) rotate(-5.49)">o</text>
      <text class="cls-15" transform="translate(9.38 283.51) rotate(-5.49)">w&quot;&gt;&lt;di</text>
      <text class="cls-15" transform="translate(23.09 282.19) rotate(-5.49)">v</text>
      <text class="cls-15" transform="translate(25.12 281.99) rotate(-5.49)"> </text>
      <path d="M6.58,314l-46.46-2.36a1.4,1.4,0,0,1-1.32-1.45l1.66-32.76a1.39,1.39,0,0,1,1.46-1.31L8.38,278.5A1.38,1.38,0,0,1,9.69,280L8,312.71A1.38,1.38,0,0,1,6.58,314"/>
      <path class="cls-3" d="M6.58,314l-46.46-2.36a1.4,1.4,0,0,1-1.32-1.45l1.66-32.76a1.39,1.39,0,0,1,1.46-1.31L8.38,278.5A1.38,1.38,0,0,1,9.69,280L8,312.71A1.38,1.38,0,0,1,6.58,314Z"/>
      <text class="cls-5" transform="translate(-27.95 284.03) rotate(2.9)">,35:&quot;017810f796</text>
      <text class="cls-5" transform="translate(-12.09 290.38) rotate(2.9)">,36:&quot;310</text>
      <text class="cls-5" transform="translate(-1.06 302.03) rotate(2.9)">&quot;</text>
      <text class="cls-5" transform="translate(0.19 302.09) rotate(2.9)">,3</text>
      <text class="cls-5" transform="translate(-0.82 307.59) rotate(2.9)">f</text>
      <text class="cls-5" transform="translate(0.64 307.66) rotate(2.9)">c9</text>
    </g>
    <g class="cls-2">
      <path d="M-6.29,346.85l-45.94-7.33a1.4,1.4,0,0,1-1.15-1.59l5.18-32.39a1.39,1.39,0,0,1,1.58-1.15l45.94,7.34a1.39,1.39,0,0,1,1.15,1.59L-4.7,345.71a1.39,1.39,0,0,1-1.59,1.14"/>
      <path class="cls-6" d="M-6.29,346.85l-45.94-7.33a1.4,1.4,0,0,1-1.15-1.59l5.18-32.39a1.39,1.39,0,0,1,1.58-1.15l45.94,7.34a1.39,1.39,0,0,1,1.15,1.59L-4.7,345.71A1.39,1.39,0,0,1-6.29,346.85Z"/>
    </g>
    <g class="cls-2">
      <path d="M42.63,347.93H-3.89a1.39,1.39,0,0,1-1.38-1.39v-32.8a1.38,1.38,0,0,1,1.38-1.38H42.63A1.39,1.39,0,0,1,44,313.74v32.8a1.4,1.4,0,0,1-1.39,1.39"/>
      <rect class="cls-9" x="-5.27" y="312.36" width="49.29" height="35.57" rx="1.38"/>
    </g>
    <g class="cls-2">
      <text class="cls-12" transform="translate(-1.33 320.03)">f</text>
      <text class="cls-12" transform="translate(0.13 320.03)">on</text>
      <text class="cls-12" transform="translate(5.12 320.03)">t</text>
      <text class="cls-12" transform="translate(6.66 320.03)">-</text>
      <text class="cls-12" transform="translate(8.32 320.03)">w</text>
      <text class="cls-12" transform="translate(11.61 320.03)">eight:400;</text>
      <text class="cls-12" transform="translate(32.22 320.03)">-</text>
      <text class="cls-12" transform="translate(-1.33 325.57)">f</text>
      <text class="cls-12" transform="translate(0.13 325.57)">on</text>
      <text class="cls-12" transform="translate(5.12 325.57)">t</text>
      <text class="cls-12" transform="translate(6.66 325.57)">-si</text>
      <text class="cls-12" transform="translate(11.51 325.57)">z</text>
      <text class="cls-12" transform="translate(13.59 325.57)">e:1em;line-he</text>
    </g>
    <g class="cls-2">
      <text class="cls-12" transform="translate(-1.33 331.11)">ight:1.5em;b</text>
      <text class="cls-12" transform="translate(23.99 331.11)">o</text>
      <text class="cls-12" transform="translate(26.36 331.11)">x</text>
      <text class="cls-12" transform="translate(28.62 331.11)">-siz</text>
      <text class="cls-12" transform="translate(35.57 331.11)">-</text>
    </g>
  </g>
  <g>
    <rect class="cls-16" x="16.17" y="62.38" width="300" height="250"/>
    <g class="cls-17">
      <rect class="cls-18" x="16.17" y="62.38" width="300" height="250"/>
    </g>
    <rect class="cls-19" x="16.17" y="275.38" width="300" height="37"/>
    <g class="cls-20">
      <path class="cls-21" d="M50.6,106.69a2.11,2.11,0,0,1-2.46-1.7L45,87.88a2.12,2.12,0,0,1,4.17-.76l3.14,17.11a2.11,2.11,0,0,1-1.7,2.46"/>
      <path class="cls-22" d="M42.41,103.78a2.12,2.12,0,0,1-1.76-3.7L53.9,88.8A2.12,2.12,0,0,1,56.64,92L43.4,103.31a2.16,2.16,0,0,1-1,.47"/>
      <path class="cls-23" d="M57.22,101.05a2.05,2.05,0,0,1-1.09-.09L39.74,95.13a2.12,2.12,0,0,1,1.42-4L57.55,97a2.13,2.13,0,0,1,1.29,2.71,2.11,2.11,0,0,1-1.62,1.37"/>
      <path d="M70.93,99a1.26,1.26,0,0,0-.45-1,5.21,5.21,0,0,0-1.13-.7c-.45-.21-.95-.43-1.48-.65a7.5,7.5,0,0,1-1.47-.82,4.24,4.24,0,0,1-1.13-1.22,3.42,3.42,0,0,1-.46-1.86,4,4,0,0,1,.33-1.7,3.24,3.24,0,0,1,.93-1.2,3.92,3.92,0,0,1,1.43-.71,7,7,0,0,1,1.84-.23,12,12,0,0,1,2.21.2,5.53,5.53,0,0,1,1.7.59l-.82,2.2a4.6,4.6,0,0,0-1.27-.49,7.5,7.5,0,0,0-1.82-.22,2.3,2.3,0,0,0-1.41.37,1.17,1.17,0,0,0-.49,1,1.19,1.19,0,0,0,.45.95,4.87,4.87,0,0,0,1.13.71c.46.22,1,.45,1.48.68a7.92,7.92,0,0,1,1.48.83,4.35,4.35,0,0,1,1.13,1.21,3.33,3.33,0,0,1,.45,1.79,4.52,4.52,0,0,1-.35,1.85,3.57,3.57,0,0,1-1,1.3,4.24,4.24,0,0,1-1.55.76,7.48,7.48,0,0,1-2,.25,11.19,11.19,0,0,1-2.53-.26,7.57,7.57,0,0,1-1.61-.54l.84-2.25a4.28,4.28,0,0,0,.55.25,5.21,5.21,0,0,0,.76.25,7.33,7.33,0,0,0,.89.19,5.08,5.08,0,0,0,1,.08,3.4,3.4,0,0,0,1.79-.39,1.31,1.31,0,0,0,.62-1.2"/>
      <path d="M74.67,97.78A5.38,5.38,0,0,1,75.86,94a4.24,4.24,0,0,1,3.33-1.31,5.1,5.1,0,0,1,2,.36,3.73,3.73,0,0,1,1.4,1,4.27,4.27,0,0,1,.83,1.6,7.15,7.15,0,0,1,.28,2.07,5.42,5.42,0,0,1-1.18,3.75,4.24,4.24,0,0,1-3.33,1.31,5.05,5.05,0,0,1-2-.36,3.85,3.85,0,0,1-1.41-1,4.3,4.3,0,0,1-.85-1.6,7.41,7.41,0,0,1-.27-2.07m2.57,0A5.41,5.41,0,0,0,77.35,99a3.17,3.17,0,0,0,.35.94,1.56,1.56,0,0,0,.6.62,1.7,1.7,0,0,0,.89.22,1.62,1.62,0,0,0,1.46-.71,4.07,4.07,0,0,0,.48-2.24,4.57,4.57,0,0,0-.44-2.14,1.57,1.57,0,0,0-1.5-.81,1.71,1.71,0,0,0-1.44.69,3.87,3.87,0,0,0-.51,2.26"/>
      <path d="M87.44,93v5.44a3.71,3.71,0,0,0,.28,1.69,1.09,1.09,0,0,0,1.08.52,1.71,1.71,0,0,0,1.18-.42,2.59,2.59,0,0,0,.7-1V93h2.49v6.67a15.4,15.4,0,0,0,.08,1.54,9.91,9.91,0,0,0,.23,1.38H91.6l-.44-1.42h-.08A3.45,3.45,0,0,1,88,102.84a4.1,4.1,0,0,1-1.31-.19,2.15,2.15,0,0,1-1-.63,2.94,2.94,0,0,1-.58-1.19A7.11,7.11,0,0,1,85,99V93Z"/>
      <path d="M100.43,95.33a3.1,3.1,0,0,0-1.08-.22,1.75,1.75,0,0,0-1.12.36,1.71,1.71,0,0,0-.6.91v6.2h-2.5V93h1.94l.29,1.26h.08a2.54,2.54,0,0,1,.88-1.09,2.2,2.2,0,0,1,1.3-.39,4.55,4.55,0,0,1,1.41.33Z"/>
      <path d="M108.5,102a4.05,4.05,0,0,1-1.39.64,6.25,6.25,0,0,1-1.68.22,4.63,4.63,0,0,1-1.94-.36,3.16,3.16,0,0,1-1.3-1,4.28,4.28,0,0,1-.72-1.6,8.82,8.82,0,0,1-.22-2.07A5.72,5.72,0,0,1,102.34,94a3.93,3.93,0,0,1,3.19-1.31,6.6,6.6,0,0,1,1.7.17,6.35,6.35,0,0,1,1.16.44l-.6,2a4.37,4.37,0,0,0-.87-.32,3.73,3.73,0,0,0-1-.12,1.89,1.89,0,0,0-1.57.68,3.53,3.53,0,0,0-.54,2.18,4.94,4.94,0,0,0,.13,1.13,2.66,2.66,0,0,0,.41.9,1.88,1.88,0,0,0,.7.61,2.14,2.14,0,0,0,1,.22,3.37,3.37,0,0,0,1.08-.16,3.9,3.9,0,0,0,.79-.4Z"/>
      <path d="M117.28,101.75a4.73,4.73,0,0,1-1.56.78,6.88,6.88,0,0,1-2.1.31,4.09,4.09,0,0,1-3.4-1.35,5.85,5.85,0,0,1-1.07-3.71,5.3,5.3,0,0,1,1.21-3.8,4.46,4.46,0,0,1,3.39-1.26,5.18,5.18,0,0,1,1.42.19,3.42,3.42,0,0,1,1.23.63,3.15,3.15,0,0,1,.86,1.19,4.62,4.62,0,0,1,.33,1.86c0,.27,0,.56,0,.86s-.08.63-.14,1h-5.76a2.88,2.88,0,0,0,.62,1.83,2.4,2.4,0,0,0,1.84.61,4.08,4.08,0,0,0,2.36-.73Zm-3.57-7a1.76,1.76,0,0,0-1.45.59,2.88,2.88,0,0,0-.56,1.56h3.57a2.43,2.43,0,0,0-.32-1.59,1.42,1.42,0,0,0-1.24-.56"/>
      <path d="M127.26,102.58a3.86,3.86,0,0,1-1.13,3.07,4.67,4.67,0,0,1-3.17,1,9.54,9.54,0,0,1-2.17-.19,5.71,5.71,0,0,1-1.2-.4l.51-2c.3.12.64.23,1,.35a5.39,5.39,0,0,0,1.45.17,2.21,2.21,0,0,0,1.77-.57,2.35,2.35,0,0,0,.47-1.58v-.61h-.07a2.79,2.79,0,0,1-2.38.9,3.3,3.3,0,0,1-2.77-1.15,5.79,5.79,0,0,1-.91-3.61,5.52,5.52,0,0,1,1.22-3.89,4.64,4.64,0,0,1,3.57-1.32,12.22,12.22,0,0,1,2.2.17,9.23,9.23,0,0,1,1.58.4ZM123,100.73a1.68,1.68,0,0,0,1.12-.32,2.06,2.06,0,0,0,.61-1V95.11a4,4,0,0,0-1.48-.25,1.8,1.8,0,0,0-1.5.72,3.88,3.88,0,0,0-.53,2.3,4,4,0,0,0,.46,2.13,1.46,1.46,0,0,0,1.32.72"/>
      <path d="M134.47,95.33a3,3,0,0,0-1.07-.22,1.73,1.73,0,0,0-1.12.36,1.78,1.78,0,0,0-.61.91v6.2h-2.49V93h1.94l.28,1.26h.08a2.61,2.61,0,0,1,.88-1.09,2.23,2.23,0,0,1,1.31-.39,3.4,3.4,0,0,1,1.13.22Z"/>
      <path d="M135.7,93.46a6.44,6.44,0,0,1,1.58-.47,12.08,12.08,0,0,1,2.2-.2,5,5,0,0,1,1.67.24,2.56,2.56,0,0,1,1.07.68,2.5,2.5,0,0,1,.55,1.06,5.32,5.32,0,0,1,.17,1.38c0,.56,0,1.13-.06,1.7s-.06,1.13-.07,1.68,0,1.08.05,1.6a5.9,5.9,0,0,0,.29,1.47h-2l-.4-1.33h-.09a3.41,3.41,0,0,1-1.07,1,3.2,3.2,0,0,1-1.75.43,3.53,3.53,0,0,1-1.21-.2,2.63,2.63,0,0,1-.92-.58,2.55,2.55,0,0,1-.6-.88,3,3,0,0,1-.21-1.14,2.71,2.71,0,0,1,.39-1.49,2.9,2.9,0,0,1,1.14-1,5.44,5.44,0,0,1,1.76-.51,12,12,0,0,1,2.29-.09,2.48,2.48,0,0,0-.15-1.54c-.19-.32-.62-.47-1.28-.47a9.06,9.06,0,0,0-1.59.15,3.84,3.84,0,0,0-1.13.32Zm2.92,7.22a1.87,1.87,0,0,0,1.19-.34,2.29,2.29,0,0,0,.65-.72V98.37a7.25,7.25,0,0,0-1.14,0,3.91,3.91,0,0,0-1,.17,1.73,1.73,0,0,0-.67.38.9.9,0,0,0-.25.64,1.1,1.1,0,0,0,.32.83,1.21,1.21,0,0,0,.87.3"/>
      <path d="M144.78,93h1.82l.29,1.15H147a3.25,3.25,0,0,1,1.18-1.08,3.67,3.67,0,0,1,1.66-.34,3.25,3.25,0,0,1,2.71,1.14,5.94,5.94,0,0,1,.9,3.67,8,8,0,0,1-.29,2.22,4.7,4.7,0,0,1-.85,1.67,3.66,3.66,0,0,1-1.38,1.06,4.62,4.62,0,0,1-1.87.36,4.43,4.43,0,0,1-1-.08,3.41,3.41,0,0,1-.77-.28v3.93h-2.49Zm4.27,1.84a1.69,1.69,0,0,0-1.14.36,2.39,2.39,0,0,0-.64,1.09v4a2.26,2.26,0,0,0,.58.34,2.45,2.45,0,0,0,.84.12,1.85,1.85,0,0,0,1.61-.75,4.45,4.45,0,0,0,.54-2.51,3.77,3.77,0,0,0-.42-2,1.49,1.49,0,0,0-1.37-.69"/>
      <path d="M160.68,102.58V97.13a3.28,3.28,0,0,0-.33-1.69,1.31,1.31,0,0,0-1.19-.52,1.83,1.83,0,0,0-1.16.43,2,2,0,0,0-.7,1.11v6.12h-2.49V89.15h2.49v4.91h.08a3.33,3.33,0,0,1,1.13-1,3.58,3.58,0,0,1,1.71-.36,3.87,3.87,0,0,1,1.28.19,2.14,2.14,0,0,1,.93.63,3,3,0,0,1,.56,1.2,8.28,8.28,0,0,1,.18,1.87v6Z"/>
    </g>
    <text class="cls-24" transform="translate(36.17 181.51)">Universal</text>
    <text class="cls-24" transform="translate(188.78 181.51)"> </text>
    <text class="cls-25" transform="translate(36.17 217.78)">code search</text>
    <path class="cls-16" d="M39.61,288.45H40.8v8.33h4.07v1H39.61Zm9.6,9.51a3.3,3.3,0,0,1-3.31-3.62c0-2.25,1.51-3.64,3.1-3.64,1.77,0,2.76,1.27,2.76,3.25a4,4,0,0,1,0,.66H47.05a2.3,2.3,0,0,0,2.3,2.42,3,3,0,0,0,1.72-.56l.42.77a4,4,0,0,1-2.28.72Zm1.52-4.18c0-1.39-.62-2.14-1.71-2.14a2.12,2.12,0,0,0-2,2.14ZM53,296c0-1.5,1.3-2.26,4.25-2.58,0-.89-.3-1.74-1.43-1.74a3.82,3.82,0,0,0-2.06.74l-.46-.8a5.08,5.08,0,0,1,2.72-.91c1.68,0,2.4,1.13,2.4,2.85v4.24h-1l-.1-.83h0a3.67,3.67,0,0,1-2.28,1A1.88,1.88,0,0,1,53,296Zm4.25.11v-1.92c-2.32.28-3.1.85-3.1,1.73s.53,1.11,1.21,1.11A2.85,2.85,0,0,0,57.28,296.1Zm3.34-5.22h1l.1,1.25h0a2.4,2.4,0,0,1,2-1.43,1.53,1.53,0,0,1,.74.15l-.22,1a2,2,0,0,0-.67-.11c-.58,0-1.28.42-1.75,1.59v4.44H60.62Zm4.94,0h1l.1,1h0A3.3,3.3,0,0,1,69,290.7c1.46,0,2.11.94,2.11,2.71v4.38H69.92v-4.23c0-1.29-.39-1.84-1.3-1.84a2.61,2.61,0,0,0-1.89,1.06v5H65.56Zm10.61,0h1l.1,1h0a3.05,3.05,0,0,1,2.15-1.18A1.83,1.83,0,0,1,81.34,292a3.3,3.3,0,0,1,2.28-1.32c1.42,0,2.1.94,2.1,2.71v4.38H84.55v-4.23c0-1.29-.41-1.84-1.29-1.84a2.54,2.54,0,0,0-1.73,1.06v5H80.36v-4.23c0-1.29-.41-1.84-1.28-1.84a2.58,2.58,0,0,0-1.74,1.06v5H76.17Zm11.27,3.46c0-2.31,1.51-3.64,3.21-3.64s3.2,1.33,3.2,3.64a3.23,3.23,0,1,1-6.41,0Zm5.2,0c0-1.58-.8-2.66-2-2.66s-2,1.08-2,2.66.81,2.65,2,2.65S92.64,295.93,92.64,294.34Zm3-3.46h1l.1,1.25h0a2.38,2.38,0,0,1,2-1.43,1.53,1.53,0,0,1,.74.15l-.22,1a2,2,0,0,0-.67-.11c-.58,0-1.28.42-1.75,1.59v4.44H95.66Zm7.73,7.08a3.66,3.66,0,0,1-.2-7.26C105,290.7,106,292,106,294a3.92,3.92,0,0,1-.06.66h-4.65a2.3,2.3,0,0,0,2.29,2.42,3,3,0,0,0,1.72-.56l.42.77a4,4,0,0,1-2.28.72Zm1.52-4.18c0-1.39-.62-2.14-1.7-2.14a2.12,2.12,0,0,0-2,2.14Zm5.15,2.21c0-1.5,1.3-2.26,4.24-2.58,0-.89-.29-1.74-1.42-1.74a3.82,3.82,0,0,0-2.06.74l-.46-.8a5,5,0,0,1,2.71-.91c1.69,0,2.4,1.13,2.4,2.85v4.24h-1l-.1-.83h0a3.67,3.67,0,0,1-2.29,1A1.88,1.88,0,0,1,110.06,296Zm4.24.11v-1.92c-2.31.28-3.1.85-3.1,1.73s.54,1.11,1.22,1.11A2.85,2.85,0,0,0,114.3,296.1Zm3.56-.45v-3.82h-1v-.89l1.08-.06.14-1.94h1v1.94h1.88v.95H119v3.84c0,.85.28,1.34,1.07,1.34a2.35,2.35,0,0,0,.79-.19l.23.88a4.23,4.23,0,0,1-1.29.26C118.35,298,117.86,297,117.86,295.65Z"/>
    <path class="cls-16" d="M124.73,295.83c0-1.49,1.18-2.29,4-2.58a1,1,0,0,0-1.12-1,3.82,3.82,0,0,0-1.86.63l-.75-1.37a5.78,5.78,0,0,1,3-.93c1.8,0,2.8,1,2.8,3.19v4h-1.71l-.15-.72h-.05a3.1,3.1,0,0,1-2,.89A2,2,0,0,1,124.73,295.83Zm4-.09v-1.23c-1.49.2-2,.62-2,1.15s.31.68.81.68A1.59,1.59,0,0,0,128.7,295.74Zm5.7,1.3h-.05l-.17.75h-1.64v-10h2.09v2.43l0,1.08a2.87,2.87,0,0,1,1.87-.78c1.71,0,2.76,1.41,2.76,3.58,0,2.43-1.44,3.82-3,3.82A2.58,2.58,0,0,1,134.4,297Zm2.67-2.87c0-1.26-.39-1.9-1.23-1.9a1.61,1.61,0,0,0-1.21.63v2.9a1.69,1.69,0,0,0,1.13.45C136.49,296.25,137.07,295.63,137.07,294.17Zm3.21.09a3.44,3.44,0,1,1,3.43,3.7A3.46,3.46,0,0,1,140.28,294.26Zm4.73,0c0-1.22-.43-2-1.3-2s-1.29.79-1.29,2,.43,2,1.29,2S145,295.48,145,294.26Zm3.5.85v-4.38h2.09v4.12c0,1,.27,1.33.87,1.33a1.45,1.45,0,0,0,1.26-.78v-4.67h2.09v7.06h-1.71l-.15-1h-.05A2.76,2.76,0,0,1,150.7,298C149.16,298,148.51,296.88,148.51,295.11Zm8.42.11v-2.85h-1v-1.56l1.08-.08.24-1.87H159v1.87h1.69v1.64H159v2.83c0,.8.36,1.12.91,1.12a2.05,2.05,0,0,0,.68-.14l.33,1.52a5,5,0,0,1-1.57.26C157.62,298,156.93,296.86,156.93,295.22Zm5.12,1.43a1.26,1.26,0,1,1,1.26,1.31A1.26,1.26,0,0,1,162.05,296.65Zm3.68.32.94-1.3a3.08,3.08,0,0,0,1.82.74c.63,0,.89-.23.89-.6s-.69-.68-1.42-1-1.83-.91-1.83-2.08,1.06-2.21,2.69-2.21a4,4,0,0,1,2.49.9l-.94,1.25a2.66,2.66,0,0,0-1.48-.6c-.54,0-.81.21-.81.56s.63.62,1.36.89c.89.33,1.9.83,1.9,2.12s-1,2.28-2.9,2.28A4.55,4.55,0,0,1,165.73,297Zm6.51-2.71a3.45,3.45,0,1,1,3.44,3.7A3.46,3.46,0,0,1,172.24,294.26Zm4.73,0c0-1.22-.43-2-1.29-2s-1.29.79-1.29,2,.43,2,1.29,2S177,295.48,177,294.26Zm3.5.85v-4.38h2.1v4.12c0,1,.27,1.33.87,1.33a1.45,1.45,0,0,0,1.26-.78v-4.67h2.09v7.06h-1.71l-.15-1h-.05a2.77,2.77,0,0,1-2.22,1.15C181.13,298,180.47,296.88,180.47,295.11Zm8.15-4.38h1.7l.15,1.24h.05a2.39,2.39,0,0,1,2-1.41,2,2,0,0,1,.84.14l-.35,1.81a3,3,0,0,0-.76-.12,1.75,1.75,0,0,0-1.55,1.31v4.09h-2.09Zm5.24,3.53a3.56,3.56,0,0,1,3.68-3.7,3.07,3.07,0,0,1,2.06.76l-1,1.35a1.42,1.42,0,0,0-1-.42c-1,0-1.66.79-1.66,2s.68,2,1.59,2a2.13,2.13,0,0,0,1.27-.52l.82,1.37a3.56,3.56,0,0,1-2.33.84A3.4,3.4,0,0,1,193.86,294.26Zm6.64,0a3.46,3.46,0,0,1,3.33-3.7c2,0,3,1.46,3,3.39a4.77,4.77,0,0,1-.08.92h-4.22a1.69,1.69,0,0,0,1.83,1.5,2.94,2.94,0,0,0,1.52-.47l.69,1.26a4.57,4.57,0,0,1-2.5.8A3.44,3.44,0,0,1,200.5,294.26Zm4.55-.77c0-.78-.34-1.33-1.17-1.33a1.4,1.4,0,0,0-1.38,1.33Zm2.79,5.51a1.63,1.63,0,0,1,1-1.42v-.06a1.36,1.36,0,0,1-.64-1.2A1.72,1.72,0,0,1,209,295V295a2.28,2.28,0,0,1-.94-1.83,2.62,2.62,0,0,1,2.91-2.56,3.43,3.43,0,0,1,1.1.17h2.58v1.53h-1.14a1.87,1.87,0,0,1,.24.93c0,1.62-1.23,2.37-2.78,2.37a3.2,3.2,0,0,1-.86-.14.61.61,0,0,0-.24.52c0,.35.28.52,1.05.52h1.15c1.73,0,2.69.53,2.69,1.79,0,1.47-1.53,2.54-4,2.54C209.15,300.79,207.84,300.25,207.84,299Zm4.9-.39c0-.44-.38-.55-1.08-.55h-.73a3.47,3.47,0,0,1-1-.09.9.9,0,0,0-.38.7c0,.53.62.81,1.56.81S212.74,299.1,212.74,298.61Zm-.82-5.49c0-.76-.41-1.15-1-1.15s-1,.39-1,1.15.41,1.17,1,1.17S211.92,293.89,211.92,293.12Zm3.94-2.39h1.71l.15,1.24h.05a2.38,2.38,0,0,1,2-1.41,2,2,0,0,1,.84.14l-.35,1.81a3,3,0,0,0-.76-.12A1.77,1.77,0,0,0,218,293.7v4.09h-2.09Zm5.34,5.1c0-1.49,1.18-2.29,4-2.58a1,1,0,0,0-1.12-1,3.82,3.82,0,0,0-1.86.63l-.75-1.37a5.78,5.78,0,0,1,3-.93c1.8,0,2.8,1,2.8,3.19v4h-1.71l-.15-.72h-.05a3.1,3.1,0,0,1-2,.89A2,2,0,0,1,221.2,295.83Zm4-.09v-1.23c-1.49.2-2,.62-2,1.15s.31.68.81.68A1.59,1.59,0,0,0,225.17,295.74Zm3.84-5h1.71l.15.7h0a3.09,3.09,0,0,1,2-.87c1.71,0,2.75,1.41,2.75,3.59,0,2.42-1.44,3.81-3,3.81a2.49,2.49,0,0,1-1.68-.74l.07,1.12v2.07H229Zm4.53,3.44c0-1.26-.39-1.9-1.23-1.9a1.61,1.61,0,0,0-1.21.63v2.9a1.69,1.69,0,0,0,1.13.45C233,296.25,233.54,295.63,233.54,294.17Zm3.62-6.34h2.09v2.43l-.1,1.28a3.21,3.21,0,0,1,2.18-1c1.53,0,2.19,1.08,2.19,2.85v4.38h-2.09v-4.11c0-1-.27-1.34-.88-1.34a1.8,1.8,0,0,0-1.3.69v4.76h-2.09Zm8.07,8.82a1.26,1.26,0,1,1,1.26,1.31A1.26,1.26,0,0,1,245.23,296.65Zm3.9-2.39a3.55,3.55,0,0,1,3.67-3.7,3.05,3.05,0,0,1,2.06.76l-1,1.35a1.42,1.42,0,0,0-1-.42c-1,0-1.65.79-1.65,2s.67,2,1.58,2a2.11,2.11,0,0,0,1.27-.52l.82,1.37a3.56,3.56,0,0,1-2.33.84A3.4,3.4,0,0,1,249.13,294.26Zm6.63,0a3.45,3.45,0,1,1,3.44,3.7A3.47,3.47,0,0,1,255.76,294.26Zm4.74,0c0-1.22-.43-2-1.3-2s-1.29.79-1.29,2,.43,2,1.29,2S260.5,295.48,260.5,294.26Zm3.56-3.53h1.71l.15.91H266a3,3,0,0,1,2.14-1.08,2,2,0,0,1,1.95,1.19,3.05,3.05,0,0,1,2.21-1.19c1.53,0,2.21,1.08,2.21,2.85v4.38h-2.09v-4.11c0-1-.28-1.34-.87-1.34a1.76,1.76,0,0,0-1.2.69v4.76h-2.09v-4.11c0-1-.28-1.34-.88-1.34a1.8,1.8,0,0,0-1.2.69v4.76h-2.09Z"/>
    <line class="cls-26" x1="57.54" y1="383.63" x2="57.54" y2="308.63"/>
    <line class="cls-26" x1="179.04" y1="371.63" x2="179.04" y2="299.63"/>
    <path class="cls-27" d="M60.52,369.13l.6-.72a2.34,2.34,0,0,0,1.54.67c.66,0,1-.3,1-.76s-.38-.64-.91-.86l-.81-.35a1.69,1.69,0,0,1-1.19-1.56,1.79,1.79,0,0,1,2-1.66,2.57,2.57,0,0,1,1.82.75l-.54.66a1.88,1.88,0,0,0-1.28-.51c-.56,0-.92.26-.92.69s.45.64.94.84l.79.33a1.64,1.64,0,0,1,1.19,1.59A1.87,1.87,0,0,1,62.64,370,3,3,0,0,1,60.52,369.13Zm4.92-1.46a2.11,2.11,0,1,1,2.1,2.32A2.14,2.14,0,0,1,65.44,367.67Zm3.14,0c0-.88-.39-1.47-1-1.47s-1,.59-1,1.47.39,1.47,1,1.47S68.58,368.56,68.58,367.67Zm2,.56v-2.77h1v2.64c0,.73.21,1,.69,1s.64-.18,1-.61v-3h1v4.42h-.85l-.08-.65h0A1.81,1.81,0,0,1,72,370C71,370,70.62,369.35,70.62,368.23Zm5.06-2.77h.85l.08.79h0a1.5,1.5,0,0,1,1.25-.9,1.12,1.12,0,0,1,.5.09l-.18.9a1.57,1.57,0,0,0-.45-.07c-.35,0-.78.24-1,.91v2.7h-1Zm3.06,2.21A2.19,2.19,0,0,1,81,365.35a1.89,1.89,0,0,1,1.29.5l-.5.67a1.1,1.1,0,0,0-.73-.32c-.72,0-1.21.59-1.21,1.47s.49,1.47,1.17,1.47a1.47,1.47,0,0,0,.92-.38l.42.69a2.21,2.21,0,0,1-1.44.54A2.11,2.11,0,0,1,78.74,367.67Zm4.16,0a2.16,2.16,0,0,1,2-2.32c1.2,0,1.83.87,1.83,2.1a2.77,2.77,0,0,1,0,.5H83.91a1.27,1.27,0,0,0,1.31,1.24,1.86,1.86,0,0,0,1-.32l.36.64a2.8,2.8,0,0,1-1.52.48A2.14,2.14,0,0,1,82.9,367.67Zm3-.42c0-.68-.3-1.1-.91-1.1a1.12,1.12,0,0,0-1.06,1.1Zm1.58,3.43a1.13,1.13,0,0,1,.64-.94v0a.82.82,0,0,1-.4-.73,1.08,1.08,0,0,1,.49-.83v0a1.5,1.5,0,0,1-.58-1.17,1.61,1.61,0,0,1,1.74-1.59,1.86,1.86,0,0,1,.66.11h1.58v.77h-.81A1.14,1.14,0,0,1,91,367a1.52,1.52,0,0,1-1.69,1.51,1.59,1.59,0,0,1-.59-.12.51.51,0,0,0-.22.43c0,.25.18.4.72.4H90c1.06,0,1.62.32,1.62,1.09s-.91,1.56-2.36,1.56C88.24,371.84,87.45,371.46,87.45,370.68Zm3.2-.23c0-.35-.27-.45-.78-.45h-.6a2.13,2.13,0,0,1-.6-.06.73.73,0,0,0-.34.59c0,.4.43.63,1.12.63S90.65,370.83,90.65,370.45Zm-.54-3.51a.77.77,0,1,0-1.53,0,.77.77,0,1,0,1.53,0Zm2.33-1.48h.85l.08.79h0a1.52,1.52,0,0,1,1.26-.9,1.12,1.12,0,0,1,.5.09l-.18.9a1.57,1.57,0,0,0-.45-.07c-.35,0-.78.24-1,.91v2.7h-1Zm3.12,3.23c0-.94.78-1.44,2.6-1.63,0-.48-.21-.87-.81-.87a2.41,2.41,0,0,0-1.24.43l-.38-.69a3.38,3.38,0,0,1,1.81-.58c1.11,0,1.65.68,1.65,1.91v2.62h-.85l-.08-.49h0a2.14,2.14,0,0,1-1.38.6A1.24,1.24,0,0,1,95.56,368.69Zm2.6,0v-1c-1.2.15-1.6.47-1.6.91s.26.57.63.57A1.43,1.43,0,0,0,98.16,368.7Zm2.28-3.24h.85l.08.47h0a2.12,2.12,0,0,1,1.33-.58c1.1,0,1.74.89,1.74,2.25s-.91,2.39-1.89,2.39a1.78,1.78,0,0,1-1.14-.49l0,.74v1.39h-1Zm3,2.15c0-.88-.29-1.4-1-1.4a1.41,1.41,0,0,0-1,.5v2.06a1.37,1.37,0,0,0,.89.36C103,369.13,103.4,368.61,103.4,367.61Zm2.11-4.09h1v1.65l0,.85a2,2,0,0,1,1.41-.67c1,0,1.36.64,1.36,1.76v2.77h-1v-2.64c0-.73-.21-1-.69-1a1.38,1.38,0,0,0-1,.55v3.09h-1Z"/>
    <path class="cls-27" d="M60.92,376H62.8c1.21,0,2.1.37,2.1,1.45a1.32,1.32,0,0,1-.82,1.28v0a1.34,1.34,0,0,1,1.13,1.4c0,1.18-1,1.73-2.26,1.73h-2Zm1.79,2.43c.82,0,1.17-.32,1.17-.83s-.39-.79-1.15-.79H62v1.62Zm.14,2.64c.86,0,1.34-.31,1.34-1s-.47-.89-1.34-.89H62v1.86Zm3.35-.32v-5.22h1v5.27c0,.26.11.35.22.35l.16,0,.13.78a1.43,1.43,0,0,1-.54.09C66.47,382,66.2,381.51,66.2,380.74Zm2.39-.51v-2.77h1v2.64c0,.72.21,1,.68,1s.65-.18,1-.62v-3h1v4.42h-.85l-.08-.65h0A1.79,1.79,0,0,1,70,382C69,382,68.59,381.35,68.59,380.23Zm5-2.77h.85l.08.78h0a1.53,1.53,0,0,1,1.26-.89,1.15,1.15,0,0,1,.5.09l-.18.9a1.63,1.63,0,0,0-.45-.07c-.36,0-.78.24-1,.91v2.7h-1Zm3.36,0h.85l.08.47h0a2.14,2.14,0,0,1,1.33-.58c1.11,0,1.74.88,1.74,2.25s-.9,2.39-1.89,2.39A1.76,1.76,0,0,1,78,381.5l0,.73v1.4H77Zm3,2.15c0-.88-.29-1.4-1-1.4a1.4,1.4,0,0,0-1,.49v2.06a1.39,1.39,0,0,0,.88.37C79.52,381.13,80,380.61,80,379.61Zm2.11,1.13v-5.22h1v5.27c0,.26.12.35.23.35l.16,0,.13.78a1.49,1.49,0,0,1-.55.09C82.35,382,82.08,381.51,82.08,380.74Zm2.14-1.07a2.15,2.15,0,0,1,2-2.32c1.2,0,1.83.86,1.83,2.1a2.14,2.14,0,0,1,0,.5h-2.8a1.25,1.25,0,0,0,1.3,1.23,1.92,1.92,0,0,0,1-.32l.35.65a2.77,2.77,0,0,1-1.52.48A2.14,2.14,0,0,1,84.22,379.67Zm3-.42c0-.68-.3-1.1-.91-1.1a1.11,1.11,0,0,0-1,1.1Z"/>
    <path class="cls-27" d="M182.67,364h1.86c1.3,0,2.27.46,2.27,1.82s-1,1.91-2.24,1.91h-.85v2.16h-1Zm1.8,2.89c.88,0,1.3-.35,1.3-1.07s-.46-1-1.33-1h-.73v2.05Zm3.3,1.35v-2.77h1v2.64c0,.73.2,1,.68,1s.65-.18,1-.61v-3h1v4.42h-.85l-.08-.65h0a1.81,1.81,0,0,1-1.42.76C188.18,370,187.77,369.35,187.77,368.23Zm5-2.77h.85l.08.79h0a1.51,1.51,0,0,1,1.26-.9,1.18,1.18,0,0,1,.5.09l-.18.9a1.64,1.64,0,0,0-.46-.07c-.35,0-.77.24-1,.91v2.7h-1Zm3.07,2.21a2.16,2.16,0,0,1,2-2.32c1.19,0,1.82.87,1.82,2.1a3,3,0,0,1,0,.5H196.9a1.26,1.26,0,0,0,1.3,1.24,1.9,1.9,0,0,0,1-.32l.35.64a2.76,2.76,0,0,1-1.51.48A2.14,2.14,0,0,1,195.89,367.67Zm3-.42c0-.68-.31-1.1-.91-1.1a1.11,1.11,0,0,0-1.06,1.1Zm4.26-3.26.51,3c.1.62.2,1.25.29,1.88h0c.12-.63.25-1.26.38-1.88l.72-3H206l.72,3c.13.61.26,1.25.39,1.88h0c.09-.63.19-1.27.28-1.88l.52-3h1l-1.13,5.89h-1.3l-.73-3.1c-.1-.46-.18-.91-.26-1.35h0q-.12.66-.27,1.35l-.71,3.1h-1.27L202.05,364Zm6.62-.47h1v1.65l0,.85a2,2,0,0,1,1.41-.67c.95,0,1.36.64,1.36,1.76v2.77h-1v-2.64c0-.73-.21-1-.69-1a1.38,1.38,0,0,0-1,.55v3.09h-1Zm4.92.57a.63.63,0,1,1,.63.6A.58.58,0,0,1,214.66,364.09Zm.1,1.37h1v4.42h-1Zm2.52,2.93v-2.11h-.63v-.77l.68-.05.12-1.21h.86v1.21h1.13v.82h-1.13v2.11c0,.52.21.77.63.77a1.4,1.4,0,0,0,.46-.1l.18.77a2.86,2.86,0,0,1-.91.16C217.66,370,217.28,369.34,217.28,368.39Zm2.8-.72a2.16,2.16,0,0,1,2-2.32c1.19,0,1.82.87,1.82,2.1a3,3,0,0,1,0,.5h-2.81a1.27,1.27,0,0,0,1.31,1.24,1.89,1.89,0,0,0,1-.32l.35.64a2.76,2.76,0,0,1-1.51.48A2.14,2.14,0,0,1,220.08,367.67Zm3-.42c0-.68-.31-1.1-.91-1.1a1.11,1.11,0,0,0-1.06,1.1Z"/>
    <rect class="cls-19" x="60.17" y="346.13" width="12" height="12"/>
    <rect class="cls-16" x="182.17" y="346.38" width="12" height="12"/>
    <rect class="cls-18" x="182.17" y="346.38" width="12" height="12"/>
  </g>
</svg>
