<svg id="Layer_1" data-name="Layer 1" xmlns="http://www.w3.org/2000/svg" xmlns:xlink="http://www.w3.org/1999/xlink" viewBox="0 0 243 112">
  <defs>
    <style>
      @import url(https://fonts.googleapis.com/css2?family=Source+Code+Pro:ital,wght@0,200;0,400;0,600;0,700;1,200;1,400;1,600;1,700&amp;family=Source+Sans+Pro:ital,wght@0,200;0,400;0,600;0,700;1,200;1,400;1,600;1,700&amp;display=swap);

      .cls-1, .cls-4, .cls-5, .cls-8 {
        fill: none;
      }

      .cls-2 {
        fill: #fff;
      }

      .cls-3 {
        clip-path: url(#clip-path);
      }

      .cls-4 {
        stroke: #a7a9ac;
        stroke-width: 0.5px;
      }

      .cls-5 {
        stroke: #00cbec;
      }

      .cls-6 {
        fill: #00cbec;
      }

      .cls-7 {
        fill: #ed2e20;
      }

      .cls-8 {
        stroke: #fff;
        stroke-miterlimit: 10;
      }
    </style>
    <clipPath id="clip-path">
      <rect class="cls-1" x="-8.85" y="-235.5" width="762.95" height="347.58"/>
    </clipPath>
  </defs>
  <rect class="cls-2" x="0.35" y="0.17" width="243" height="111.67"/>
  <g class="cls-3">
    <rect class="cls-5" x="32.1" y="41.7" width="83.7" height="28.6" rx="2.93"/>
  </g>
  <path class="cls-6" d="M57.33,58.32l.8-.93a3,3,0,0,0,2,.87c.86,0,1.33-.39,1.33-1s-.49-.83-1.19-1.13l-1.05-.45a2.21,2.21,0,0,1-1.55-2,2.33,2.33,0,0,1,2.58-2.16,3.35,3.35,0,0,1,2.36,1l-.7.86a2.48,2.48,0,0,0-1.66-.66c-.73,0-1.2.34-1.2.9s.58.83,1.22,1.09l1,.43a2.14,2.14,0,0,1,1.55,2.07c0,1.25-1,2.29-2.75,2.29A4,4,0,0,1,57.33,58.32ZM64,51.76a.81.81,0,1,1,.81.77A.75.75,0,0,1,64,51.76Zm.13,1.78h1.35v5.77H64.14Zm2.68,6.81a1.48,1.48,0,0,1,.83-1.23v0a1.1,1.1,0,0,1-.52-1A1.37,1.37,0,0,1,67.77,57v0A1.9,1.9,0,0,1,67,55.47a2.1,2.1,0,0,1,2.27-2.07,2.76,2.76,0,0,1,.86.14H72.2v1H71.14a1.48,1.48,0,0,1,.33,1,2,2,0,0,1-2.19,2,2.24,2.24,0,0,1-.78-.15.65.65,0,0,0-.28.55c0,.32.24.52.93.52h1c1.38,0,2.11.43,2.11,1.42s-1.19,2-3.07,2C67.84,61.85,66.82,61.36,66.82,60.35ZM71,60c0-.44-.36-.58-1-.58h-.79a3,3,0,0,1-.78-.08,1,1,0,0,0-.45.77c0,.52.57.83,1.47.83S71,60.54,71,60Zm-.71-4.57a1,1,0,1,0-2,0,1,1,0,1,0,2,0Zm3-1.93h1.11l.11.78h0a2.72,2.72,0,0,1,1.89-.92c1.24,0,1.78.84,1.78,2.29v3.62H76.88V55.86c0-.94-.28-1.3-.9-1.3a1.79,1.79,0,0,0-1.31.72v4H73.31Zm8.79-1.78a.75.75,0,0,1,.81-.77.77.77,0,1,1,0,1.54A.75.75,0,0,1,82.1,51.76Zm.13,1.78h1.35v5.77H82.23Zm3.08,0h1.11l.1.78h0a2.68,2.68,0,0,1,1.89-.92c1.23,0,1.77.84,1.77,2.29v3.62H88.87V55.86c0-.94-.27-1.3-.9-1.3a1.81,1.81,0,0,0-1.31.72v4H85.31Z"/>
  <g class="cls-3">
    <rect class="cls-6" x="122.35" y="41.7" width="83.7" height="28.6" rx="2.93"/>
  </g>
  <path class="cls-2" d="M136.55,55.49c0-2.51,1.59-4,3.64-4a3.15,3.15,0,0,1,2.31,1l-.72.88a2.08,2.08,0,0,0-1.55-.67c-1.36,0-2.28,1.06-2.28,2.78s.81,2.81,2.35,2.81a1.78,1.78,0,0,0,1.1-.33V56.27H140V55.15h2.67v3.39a3.51,3.51,0,0,1-2.45.91C138.1,59.45,136.55,58,136.55,55.49Zm7.28.94a2.81,2.81,0,0,1,2.66-3c1.55,0,2.37,1.13,2.37,2.74a3.65,3.65,0,0,1-.05.65h-3.66a1.64,1.64,0,0,0,1.7,1.61,2.46,2.46,0,0,0,1.33-.42l.46.84a3.55,3.55,0,0,1-2,.63A2.79,2.79,0,0,1,143.83,56.43Zm3.87-.56c0-.88-.4-1.42-1.19-1.42a1.45,1.45,0,0,0-1.38,1.42Zm2.66,1.49V54.62h-.82v-1l.89-.06.16-1.57h1.12v1.57h1.47v1.08h-1.47v2.74c0,.68.27,1,.82,1a1.69,1.69,0,0,0,.6-.13l.23,1a3.54,3.54,0,0,1-1.18.22C150.85,59.45,150.36,58.61,150.36,57.36Zm5.81,1.28.63-.86a2.55,2.55,0,0,0,1.59.65c.63,0,.92-.3.92-.69s-.62-.7-1.23-.94c-.76-.28-1.59-.71-1.59-1.68s.81-1.72,2.1-1.72a3.12,3.12,0,0,1,1.91.69l-.62.83a2.18,2.18,0,0,0-1.26-.5c-.58,0-.85.28-.85.64s.54.63,1.17.86c.78.29,1.65.66,1.65,1.74s-.78,1.79-2.24,1.79A3.56,3.56,0,0,1,156.17,58.64ZM162,57.36V54.62h-.82v-1l.89-.06.16-1.57h1.12v1.57h1.47v1.08h-1.47v2.74c0,.68.27,1,.82,1a1.69,1.69,0,0,0,.6-.13l.23,1a3.49,3.49,0,0,1-1.18.22C162.5,59.45,162,58.61,162,57.36Zm3.73.4c0-1.24,1-1.88,3.39-2.13,0-.62-.27-1.14-1.05-1.14a3.2,3.2,0,0,0-1.62.57l-.5-.9a4.51,4.51,0,0,1,2.37-.76c1.44,0,2.15.89,2.15,2.49v3.42h-1.11l-.1-.64h0a2.81,2.81,0,0,1-1.79.78A1.61,1.61,0,0,1,165.73,57.76Zm3.39,0V56.47c-1.57.19-2.09.6-2.09,1.18s.35.74.83.74A1.82,1.82,0,0,0,169.12,57.76Zm3-4.22h1.11l.1,1h0A2,2,0,0,1,175,53.4a1.45,1.45,0,0,1,.65.12l-.23,1.17a1.87,1.87,0,0,0-.59-.09c-.46,0-1,.31-1.37,1.19v3.52h-1.35Zm4.58,3.82V54.62h-.82v-1l.89-.06L176.9,52H178v1.57h1.47v1.08H178v2.74c0,.68.27,1,.82,1a1.69,1.69,0,0,0,.6-.13l.23,1a3.49,3.49,0,0,1-1.18.22C177.16,59.45,176.67,58.61,176.67,57.36Zm3.66-.93a2.81,2.81,0,0,1,2.65-3c1.56,0,2.38,1.13,2.38,2.74a3.51,3.51,0,0,1-.06.65h-3.65a1.63,1.63,0,0,0,1.69,1.61,2.47,2.47,0,0,0,1.34-.42l.46.84a3.58,3.58,0,0,1-2,.63A2.78,2.78,0,0,1,180.33,56.43Zm3.86-.56c0-.88-.39-1.42-1.18-1.42a1.45,1.45,0,0,0-1.38,1.42Zm2.11.56c0-1.88,1.18-3,2.45-3a2.12,2.12,0,0,1,1.51.63l-.06-.93V51h1.36v8.29h-1.11l-.1-.63h0a2.42,2.42,0,0,1-1.64.77C187.23,59.45,186.3,58.33,186.3,56.43Zm3.9,1.25V55a1.65,1.65,0,0,0-1.17-.48c-.73,0-1.34.69-1.34,1.89s.48,1.92,1.31,1.92A1.52,1.52,0,0,0,190.2,57.68Z"/>
  <g class="cls-3">
    <path class="cls-7" d="M233.25,15.3a6,6,0,1,0-6-6,6,6,0,0,0,6,6"/>
  </g>
  <path class="cls-8" d="M236.77,12.7l-6.84-6.84m6.84,0-6.84,6.84"/>
</svg>
