<svg viewBox="0 0 71 67" fill="none" xmlns="http://www.w3.org/2000/svg">
  <circle cx="35.246" cy="34.996" r="28.5" fill="#000"/>
  <path d="M63 33.43v3.055c-.017.148-.043.295-.05.444-.07 1.557-.264 3.1-.662 4.607-2.244 8.503-7.24 14.782-15.201 18.603-3.408 1.635-7.012 2.578-10.825 2.608-2.258.018-4.5-.024-6.723-.523-4.885-1.095-9.247-3.21-12.939-6.61-5.544-5.104-8.616-11.416-9.045-18.958-.112-1.974-.097-3.956.232-5.923.98-5.856 3.499-10.92 7.683-15.15 4.896-4.955 10.847-7.692 17.756-8.254a26.908 26.908 0 018.54.686c8.857 2.146 16.258 8.639 19.462 17.138.797 2.113 1.408 4.276 1.621 6.534.056.58.1 1.162.151 1.742zm-1.235 5.658c.535-1.635.716-6.89-.582-11.376-1.216-4.2-3.305-7.898-6.311-11.098l-.117.165c-.508-.926-1.264-1.588-2.081-2.254-.085.371.028.636.169.893.081.149.182.288.259.437.146.283.074.414-.231.36-.48-.087-.965-.183-1.424-.342-.616-.215-.922-.7-1.027-1.34a2.133 2.133 0 01.2-1.344c.133-.265-.094-.348-.254-.448-.171-.107-.307-.017-.36.142-.098.298-.22.604-.232.91-.02.534.036 1.07.061 1.604.013.267.019.58.293.689.378.15.786.226 1.187.313.154.034.32.015.479.021.222.01.268.154.282.346.015.22-.114.236-.28.256-.138.017-.269.082-.406.116-.079.02-.184.06-.24.026-.184-.109-.306-.005-.43.096-.206.165-.401.343-.608.506-.156.124-.293.118-.375-.092-.02-.052-.04-.114-.078-.148-.073-.064-.185-.172-.235-.151-.082.034-.177.157-.176.242.001.261.05.522.072.784.01.113.002.228.002.433-.155-.136-.256-.201-.325-.29a2.26 2.26 0 01-.252-.409c-.238-.501-.62-.786-1.178-.849a4.456 4.456 0 01-.716-.159c-.204-.059-.367-.162-.43-.4-.024-.09-.163-.177-.267-.207a1.311 1.311 0 00-.448-.034c-.779.047-1.335.517-1.88 1.003a1.29 1.29 0 00-.42.78 8.943 8.943 0 01-.22.963c-.212.762-.538 1.446-1.274 1.855-.392.218-.543.566-.432 1.007.06.236.121.476.22.697.186.416.44.466.795.177.121-.098.232-.21.37-.333.32.437.49.89.51 1.393.51.05.602-.012.78-.464.091-.236.162-.503.321-.686.292-.335.215-.622.012-.947-.087-.137-.188-.32-.167-.463a4.59 4.59 0 01.85-2.038c.04-.054.152-.099.213-.082.063.018.145.114.147.178.002.156-.02.317-.063.468-.076.262-.192.512-.262.775-.127.482.043.787.52.934.215.066.443.088.665.13.212.04.427.072.637.125.062.016.16.102.153.137-.014.069-.08.158-.145.178-.17.05-.347.084-.525.1-.537.048-.542.045-.488.587.017.177-.011.31-.211.318-.298.011-.354.2-.349.44.009.383-.187.637-.537.74-.45.133-.91.239-1.37.328-.388.075-.684-.14-.762-.527-.032-.156-.033-.318-.055-.476-.008-.063-.034-.124-.052-.186l-.088.005c-.021.202-.024.407-.07.604-.049.215-.084.468-.22.62-.339.375-.723.71-1.107 1.041-.139.12-.23.22-.227.417.002.13-.042.297-.129.383-.39.38-.773.788-1.387.778-.05-.001-.098.04-.184.076.086.091.148.172.224.235.116.096.247.174.363.27.193.155.332.343.264.61a.57.57 0 01-.513.456c-.28.035-.56.079-.842.101-.292.024-.506.147-.603.429-.089.258-.161.52-.24.781-.145.477-.008.825.419 1.108.46.305.492.57.214 1.057-.066.114-.151.217-.217.331-.233.406-.458.817-.695 1.222-.075.128-.151.276-.268.357-.664.466-1.003 1.16-1.345 1.855-.123.254-.176.506-.1.791.052.198.059.41.062.617.008.48-.008.962.003 1.442.008.329.122.612.363.861.278.287.512.616.77.923.096.112.193.229.309.317.24.186.489.363.743.528.108.07.238.152.358.152.518.001 1.037-.028 1.556-.04.462-.012.902-.093 1.274-.389.145-.115.26-.087.401.005.383.247.789.44 1.26.454.203.006.346.119.347.334.001.253.034.524-.044.754-.158.464-.04.857.206 1.231.212.323.453.627.688.933.18.234.27.476.226.786-.031.216.047.446.047.67 0 .174.01.385-.078.52-.398.612-.426 1.246-.204 1.92.158.481.297.97.448 1.455.145.467.295.932.44 1.4.13.42.27.837.383 1.263.07.265.217.415.485.431.158.01.32 0 .479-.02 1.427-.173 2.157-1.18 2.788-2.316.157-.283.327-.57.547-.804.277-.294.389-.598.24-.973-.115-.29-.03-.507.18-.71.306-.293.597-.603.91-.89.45-.412.593-.922.52-1.51-.051-.43-.09-.862-.16-1.29-.068-.419.013-.775.31-1.092.4-.427.804-.853 1.162-1.314a42.177 42.177 0 001.661-2.282c.171-.253.221-.592.305-.898.02-.071-.031-.186-.087-.245-.023-.025-.147.034-.219.068-.11.051-.21.145-.323.166-.406.076-.817.158-1.228.174-.118.004-.265-.194-.354-.329-.022-.033.114-.198.203-.271.076-.062.189-.081.288-.111 1.182-.357 2.212-.996 3.178-1.743.353-.273.628-.629.763-1.066.073-.234.083-.452-.15-.634a2.604 2.604 0 01-.526-.532c-.153-.216-.325-.269-.558-.193-.17.056-.334.133-.506.179-.216.058-.417.098-.511-.214-.04-.133-.22-.222-.328-.338-.2-.21-.403-.417-.584-.64-.06-.075-.06-.198-.088-.298l.072-.062c.112.067.243.115.331.206.403.41.903.556 1.458.588.204.012.408.058.61.1.27.055.535.144.807.177.251.03.51.009.764.006.773-.006 1.369.368 1.884.895.105.107.13.286.214.418.058.09.149.212.234.219.422.034.633.29.773.648.285.752.683 1.481.727 2.328zm-43.174 2.48c.569.14 1.003 1.051.765 1.618-.112.267-.304.5-.417.766-.07.168-.126.391-.073.553.143.442.187.883.13 1.338-.028.224.046.397.21.555.232.22.485.434.66.695.573.865 1.342 1.492 2.236 1.994a2.76 2.76 0 011.24 1.387c.145.357.248.73.373 1.095.292.853.589 1.704.877 2.558.093.276.218.557.226.84.015.454.144.837.406 1.205.153.216.316.494.31.739-.012.473.206.766.557 1 .158.104.235.202.229.405a.927.927 0 00.133.474c.377.64.854 1.208 1.328 1.776.38.458.92.518 1.472.62-.008-.086-.003-.118-.014-.14-.037-.067-.072-.136-.121-.191a2.761 2.761 0 01-.685-1.551.917.917 0 00-.285-.525c-.19-.172-.275-.346-.245-.59.02-.16.003-.331.058-.477.132-.351.118-.602-.284-.774-.19-.082-.142-.224.05-.313.075-.034.137-.136.166-.22.028-.083.007-.183.007-.295.35-.013.561-.195.587-.515a1.575 1.575 0 00-.093-.627c-.06-.17-.055-.26.114-.333.085-.037.155-.106.236-.156.22-.138.303-.309.2-.573-.037-.092.005-.234.05-.334.241-.532.41-1.068.229-1.656a.583.583 0 01.262-.657c.136-.083.257-.19.396-.265.162-.089.329-.201.503-.223.274-.033.41-.172.456-.419.049-.268.087-.538.115-.81.117-1.12.07-2.267.566-3.323.111-.237-.013-.424-.169-.582-.467-.477-1.022-.84-1.683-.919-.823-.097-1.528-.462-2.232-.837-.168-.09-.294-.3-.387-.484-.306-.606-.718-1.04-1.416-1.22-.842-.217-1.595-.597-1.814-1.565-.007-.031-.043-.056-.038-.05-.267.096-.505.204-.753.262-.218.05-.45.043-.676.062-.22.018-.4-.032-.547-.22a.714.714 0 00-.321-.213c-.212-.074-.439-.108-.654-.174-.193-.058-.35-.022-.486.127-.197.215-.39.437-.6.64a.457.457 0 01-.286.127c-.424 0-.85-.01-1.273-.04-.619-.043-.773-.213-.821-.845-.027-.355-.058-.71-.087-1.06-.397-.046-.773-.072-1.143-.138-.322-.058-.385-.216-.24-.509.05-.102.112-.196.166-.295a1.59 1.59 0 00.165-1.036c-.491.048-.88.202-1.048.719-.093.288-.34.417-.646.409-.636-.017-1.095-.37-1.247-.994-.196-.803-.026-1.571.272-2.318.15-.376.453-.548.842-.558.31-.009.623.01.934.019.227.007.41-.04.565-.242.09-.117.274-.203.426-.222.462-.059 1 .328 1.193.778.147.343.331.671.522.992.046.077.183.1.278.147.034-.102.112-.213.094-.305a6.003 6.003 0 00-.255-.95c-.254-.666-.217-.916.335-1.382.316-.268.675-.484.995-.746.137-.114.295-.277.32-.437.113-.721.514-1.289.935-1.843.106-.14.317-.24.496-.27.21-.038.348-.12.44-.301.072-.143.145-.285.214-.43.234-.487.43-.622.937-.423.393.154.682.04 1.009-.109.196-.089.405-.15.61-.221.322-.111.387-.333.138-.571-.168-.162-.374-.283-.57-.414-.162-.108-.255-.219-.122-.414.099-.144.04-.233-.11-.308-.13-.064-.242-.164-.36-.247l.017-.107c.195 0 .406-.048.583.009.518.165.973.07 1.424-.209.216-.133.47-.203.707-.302l.074.088-1.002 1.329c.287.14.534.223.733.37.165.124.309.258.525.198.236-.065.344-.255.384-.48a.953.953 0 000-.392c-.023-.092-.11-.218-.19-.234-.22-.047-.262-.185-.268-.369-.015-.414-.03-.829-.05-1.243-.022-.437-.073-.856-.41-1.198a.845.845 0 01-.206-.51c-.024-.42.007-.845.008-1.268.001-.18-.018-.358-.028-.538l-.09-.016c-.055.092-.101.192-.17.274-.155.186-.298.393-.49.532-.121.089-.322.07-.487.098-.01-.169-.056-.346-.02-.505.04-.17.167-.316.233-.48.06-.15.112-.346-.117-.388-.221-.04-.305-.164-.39-.35-.158-.347-.514-.356-.826-.38-.278-.02-.35.232-.398.44-.137.586-.364 1.11-.905 1.425.414.845.414.845-.314 1.433l-.021.018a2.012 2.012 0 00-.754 1.033 1.887 1.887 0 01-.233.48c-.06.09-.184.136-.278.2-.048-.105-.14-.21-.136-.314.011-.31.076-.616.087-.926a.55.55 0 00-.123-.361c-.36-.387-.736-.76-1.113-1.127-.227-.221-.275-.476-.216-.776.13-.67.483-1.195 1.002-1.625.406-.336.795-.694 1.204-1.028.306-.25.63-.479.951-.71.075-.054.169-.08.297-.14-.147.53-.483.937-.471 1.455.32-.046.61-.081.897-.131.38-.068.447-.25.22-.574-.1-.145-.205-.287-.363-.506.344-.036.613-.052.875-.1.098-.018.233-.09.266-.171.25-.62.481-1.247.714-1.873.14-.375.45-.454.744-.184.514.474.567 1.359.107 1.873-.158.175-.316.35-.484.516-.158.157-.303.312-.583.19-.2-.086-.43.117-.457.348-.033.277.15.28.357.31a.74.74 0 01.412.211c.25.267.483.554.692.853.093.132.167.145.302.108.694-.19.93-.58.77-1.28-.008-.036-.03-.076-.022-.11.034-.137.078-.272.117-.409.093.091.189.18.278.274.069.07.118.19.197.212.166.046.73-.617.683-.782-.008-.027-.032-.048-.04-.074-.048-.192-.09-.385-.142-.577-.028-.102-.046-.223-.111-.299-.196-.23-.203-.339-.004-.584.216-.265.341-.615.193-.891-.137-.253-.352-.459-.477-.75-.076-.177-.166-.33-.153-.526.012-.17.037-.338.048-.507.026-.41-.191-.654-.606-.68-.121-.008-.243-.002-.381-.002-.025-.233-.2-.28-.38-.197-.71.33-1.382.708-1.574 1.565a.84.84 0 01-.134.277c-.195.281-.2.282.102.43.138.067.191.155.106.29a3.46 3.46 0 01-1.055 1.044c-.02-.047-.03-.064-.032-.082-.002-.027-.006-.06.007-.083.156-.282.157-.539-.063-.805-.058-.071-.038-.257.011-.359.106-.22.264-.416.383-.63.18-.329.318-.686.53-.99.118-.171.336-.311.54-.375.287-.09.487-.257.697-.496-.25-.078-.487-.116-.689-.222-.466-.242-.784-.102-1.047.317-.293.468-.66.897-.894 1.391-.182.387-.372.726-.707.995-.24.192-.483.397-.668.64-.362.474-.94.49-1.267-.011-.058-.089-.101-.295-.073-.312.134-.08.327-.187.441-.142.258.101.47.131.74.021.177-.073.276-.132.266-.324-.024-.479.186-.873.438-1.258.294-.449.58-.903.864-1.36.054-.086.077-.193.114-.29l-.058-.065c-.152.054-.315.092-.455.169-.273.148-.531.322-.8.476-.149.085-.303.13-.422-.116l.205-.1c-.399-.437.176-.578.201-.878-.171-.191-.367-.201-.56-.07a36.1 36.1 0 00-1.43 1.013c-.075.056-.108.219-.1.329.028.377-.035.73-.328.979-.198.168-.258.344-.25.589.003.134-.072.271-.113.407-.151-.057-.331-.08-.448-.18-.13-.11-.208-.285-.3-.437-.056-.094-.095-.199-.156-.329-.197.158-.38.289-.544.44-3.528 3.275-6.07 7.18-7.52 11.78a25.93 25.93 0 00-1.129 5.583c-.065.752-.051 1.489.22 2.249.22.617.443 1.21.808 1.748.082.121.201.217.304.324.035-.021.07-.044.107-.065l-.88-2.426.115-.056c.098.13.209.255.294.393.41.666.833 1.326 1.214 2.008.209.374.33.796.514 1.185.082.171.19.374.344.457.51.275 1.033.543 1.576.74.751.273 1.528.472 2.289.717.489.159.876.461 1.186.876.467.624 1.169.899 1.852 1.194.03.013.071-.002.108-.005.037-.105.067-.2.096-.294zM29.505 13.11c.19-.026.356-.05.522-.071.412-.055.742.191.76.597.031.778-.03 1.543-.363 2.266-.102.22-.2.456-.23.693-.024.191.002.434.106.585.147.216.123.349-.046.508-.117.11-.22.233-.334.347-.38.379-.568.836-.55 1.372.014.442.025.886.066 1.326.047.502.14.988.55 1.352.35.313.413.314.643-.084.304-.526.572-1.075.92-1.57.192-.274.496-.484.783-.675.492-.328 1.008-.619 1.516-.92a.462.462 0 01.212-.07c.82-.028 1.405-.486 1.941-1.04.396-.408.632-.829.266-1.404-.198-.31-.054-.753.225-.847a.763.763 0 00.51-.526c.088-.287.117-.59.194-.88.098-.37.27-.726.32-1.1.103-.766.39-1.451.793-2.096.074-.118.232-.18.328-.29.148-.17.309-.344.402-.545.084-.18-.027-.303-.242-.295-.198.008-.397.025-.593.01-.102-.007-.2-.075-.301-.115.05-.096.082-.206.152-.282.288-.317.307-.502-.011-.783a1.435 1.435 0 00-.582-.319c-.626-.15-1.25-.172-1.832.19-.119.073-.25.14-.384.175-.161.04-.334.042-.501.06l-.022-.081-.345.519c-.17-.404-.17-.402-.58-.375-.106.006-.213 0-.337 0 .24-.427.19-.509-.282-.526-.028-.001-.057-.002-.085-.001-1.564.11-3.105.37-4.62.773-.137.036-.304.122-.37.235-.287.492-.541 1.001-.847 1.58l.667-.061.044.06c-.074.054-.152.104-.221.164-.228.198-.457.395-.677.6-.23.216-.22.377.037.547.19.125.404.213.593.34.398.268.478.237.775-.16.217-.289.49-.54.747-.798.158-.16.381-.275.492-.46.471-.796 1.389-.885 2.068-1.35.016-.01.05.006.072.01-.115.27-.209.542-.346.79-.06.11-.199.2-.32.246a6.17 6.17 0 01-.761.216c-.242.057-.36.2-.417.438-.05.207-.096.448-.231.595-.308.336-.28.717-.274 1.13zm9.59 13.848l.11.055c.154-.132.298-.28.465-.39.228-.151.463-.319.72-.398.31-.095.397-.152.332-.476a1.35 1.35 0 00-.156-.417c-.214-.365-.445-.718-.668-1.077-.093-.152-.18-.288-.075-.492.095-.187-.078-.57-.26-.632-.276-.096-.39.116-.495.304-.22.395-.133.767.25 1.133.331.317.32.383.068.756-.337.502-.327 1.07-.29 1.634zm15.076 19.757l-.07-.028c-.097.144-.189.29-.291.429-.25.34-.445.76-.773.994-.373.265-.528.607-.693.983-.105.24-.24.468-.356.705-.036.073-.079.157-.078.235.002.202.375.542.625.594.287.06.451-.084.539-.333.337-.946.677-1.891.993-2.845.077-.23.072-.488.104-.734zm-29.95-35.944l-.055-.071c-.142.078-.282.16-.428.23-.09.045-.19.113-.279.102-.369-.041-1.214.348-1.38.658-.134.249-.027.503.244.475.703-.071 1.507.067 1.912-.763.004-.005.017-.006.082-.029.157.544.307 1.104.8 1.55.049-.17.13-.317.123-.46-.02-.39.1-.719.35-1.012.046-.053.069-.124.117-.213-.39-.145-.737-.341-1.142-.08-.12.078-.295.075-.504.123.07-.216.115-.363.16-.51zm19.325 1.705c.103.074.158.137.225.156.126.036.26.045.39.065-.02-.111-.038-.223-.064-.332-.007-.035-.035-.066-.052-.1-.343-.632-.448-.549.222-1.03.282-.203.267-.375-.034-.552-.322-.19-.829-.066-1.057.3-.153.245-.314.399-.62.401-.096.001-.267.136-.273.218-.025.388.095.756.384 1.019.12.107.163.18.177.332.008.088.13.193.226.232.048.02.18-.068.221-.139.096-.17.162-.356.255-.57zm-6.07 7.018l-1.823-.16c-.182-.015-.24.112-.223.253.035.298.075.598.154.886.029.103.162.213.272.254.863.314 1.683.013 1.62-1.088-.002-.046 0-.093 0-.145zm-10.912-7.5c-.03-.064-.063-.245-.141-.267-.094-.027-.257.053-.336.137-.16.169-.303.361-.414.564a.537.537 0 00.088.656c.271.288.613.439 1.011.415.277-.017.507-.14.643-.398.202-.383.126-.543-.294-.622-.083-.016-.167-.036-.25-.042-.234-.02-.383-.107-.307-.444zm-6.629 25.72c-.043-.051-.065-.1-.102-.118-.598-.295-1.192-.603-1.804-.87-.302-.133-.876.062-1.052.31.13.02.248.056.366.054.536-.008.99.164 1.372.553.253.26.845.286 1.22.071zM37.9 25.327c.019.158.024.319.06.473.083.352.266.406.538.168.273-.241.475-.994.348-1.338-.017-.044-.088-.099-.135-.1-.455-.01-.8.338-.811.797zm-11.091-15.24l.068.073-.19.274-.19.263c.291.143.745-.043.812-.311.015-.061-.006-.17-.05-.2-.213-.146-.265-.349-.264-.586 0-.161-.092-.178-.228-.143-.519.137-.835.68-.687 1.26.255-.218.491-.424.729-.63zM19.72 38.353c.642.269 1.245.036 1.864-.002-.322-.667-1.538-.648-1.864.002zm-.325-2.299l-.12.082.354.573.103-.06-.337-.595zm2.45 2.43l.571-.104c-.174-.258-.255-.243-.572.104zm-2.656.077l-.022-.137c-.124.01-.247.022-.371.033l.043.191c.116-.03.233-.058.35-.087zm11.46 21.54l-.019-.078c-.115 0-.234-.011-.348.006-.043.006-.076.078-.114.12.048.035.106.107.141.098.119-.034.228-.096.34-.147z" fill="#fff"/>
  <path d="M49.956 31.24c.207.59.031 1.09-.447 1.427-.577.407-1.195.46-1.858.288a35.504 35.504 0 00-1.484-.35c-.407-.087-.486-.001-.467.413.006.151-.032.305-.05.458-.165-.047-.332-.088-.494-.145a.603.603 0 01-.186-.128c-.393-.351-.815-.64-1.374-.61l-.066-.984c-.015-.222-.117-.347-.353-.35-1.1-.018-2.21-.102-3.222.488-.192.112-.418.165-.628.245l-.035-.079c.137-.074.273-.152.412-.224.375-.195.602-.494.787-.88.19-.397.494-.747.787-1.084.091-.104.304-.121.466-.144.338-.049.7.126 1.019-.158.063-.056.29.027.415.095.29.156.56.348.844.513.211.123.253.304.244.527-.01.204-.142.267-.301.322-.21.073-.276.222-.193.423.088.213.41.324.598.197a1.6 1.6 0 00.654-.894c.08-.27.152-.309.355-.122.213.197.408.416.583.648.157.208.82.305.988.107.15-.176.095-.356-.057-.504-.174-.168-.358-.326-.547-.498.046-.05.072-.09.108-.12.314-.263.467-.227.573.17.112.422.345.74.697.993.456.328.937.418 1.469.228l.763-.268zm-6.97-.927c-.048-.296.003-.551-.274-.624-.132-.034-.33.319-.255.527.056.155.22.272.336.405.076-.12.152-.242.192-.308zM50.031 33.998c.19.217.386.383.51.595.492.852.977 1.71 1.435 2.58.185.352.303.74.43 1.12.026.076-.03.256-.076.267a.39.39 0 01-.3-.079c-.432-.357-.672-.847-.912-1.34-.27-.555-.573-1.094-.857-1.643-.13-.249-.264-.498-.363-.758-.086-.226-.076-.461.133-.742zM50.452 29.529c-.321-.102-.65-.184-.96-.31-.281-.111-.535-.143-.808.016-.136.079-.296.132-.45.157-.108.016-.283-.001-.324-.068-.068-.11-.112-.302-.06-.407.093-.187.253-.347.406-.498.12-.118.248-.122.39.022.284.29.828.191 1.003-.174.035-.07.014-.177-.007-.26-.015-.059-.091-.102-.108-.162a1.634 1.634 0 01-.062-.365c-.001-.03.113-.093.12-.087.09.088.215.173.242.284.137.53.546.763.993.966.185.084.319.206.282.434-.037.238-.19.357-.417.394-.074.012-.15.012-.225.017a.474.474 0 00-.015.04zM48.291 20.09c-.421-.124-.686-.627-.593-.97.023-.086.104-.192.185-.223.234-.093.478-.169.725-.221.202-.043.289.06.207.262-.049.121-.097.249-.175.35-.04.054-.145.069-.223.082-.08.014-.212-.024-.237.014a.405.405 0 00-.04.28c.031.146.099.285.151.427zM43.788 28.51c.537.23 1.017.451 1.344.912-.367.177-1.21-.377-1.343-.912zM18.722 28.934c-.037-.279-.08-.514-.093-.752-.003-.06.098-.18.142-.176.107.008.255.046.304.123.12.193-.063.64-.353.805zM16.015 17.276c-.28-.035-.325-.195-.293-.378.02-.11.103-.208.159-.312l.4.473-.266.217zM17.374 29.69c-.062-.378.042-.66.218-.945.18.264.094.657-.218.944zM17.828 27.47c.14-.088.277-.178.416-.267l.08.072c-.05.08-.084.19-.157.234-.084.05-.203.043-.307.06l-.032-.099zM28.759 10.607c-.266-.045-.32-.166-.236-.325.026-.048.112-.063.17-.094l.066.419z" fill="#fff"/>
  <circle cx="35.246" cy="34.996" r="27.5" stroke="#000" stroke-width="2"/>
  <path fill-rule="evenodd" clip-rule="evenodd" d="M63.746 34.85v.146c0 2.117-.23 4.18-.669 6.165.942 1.058 1.634 2.05 2.099 2.945.823 1.586.796 2.564.63 3.128-.165.563-.671 1.4-2.222 2.289-1.58.905-3.958 1.677-7.14 2.091-6.348.826-14.934.1-24.136-2.604-9.201-2.703-16.816-6.736-21.709-10.864-2.452-2.07-4.034-4.005-4.874-5.622-.823-1.585-.796-2.563-.63-3.127.165-.564.671-1.401 2.222-2.29.198-.113.41-.224.633-.334a28.34 28.34 0 012.682-6.153C5.147 21.872 1.36 24.372.297 27.988c-2.513 8.556 11.188 20.115 30.602 25.82 19.415 5.703 37.19 3.39 39.704-5.165 1.24-4.221-1.466-9.173-6.857-13.792z" fill="#00B4F2"/>
  <path fill-rule="evenodd" clip-rule="evenodd" d="M25.038 28.262c5.554-7.819 11.847-13.704 17.344-16.985 2.755-1.645 5.1-2.51 6.902-2.777 1.768-.263 2.683.082 3.163.422.479.34 1.105 1.091 1.44 2.847.105.548.173 1.162.199 1.842a28.657 28.657 0 014.611 5.185c1.061-6.436.036-11.542-3.355-13.95-7.27-5.164-22.663 4.024-34.38 20.521C9.245 41.864 5.64 59.424 12.91 64.587c3.583 2.545 9.138 1.605 15.254-1.978a28.311 28.311 0 01-6.33-2.46c-1.065.405-2.025.66-2.866.785-1.768.262-2.683-.082-3.163-.423-.479-.34-1.106-1.09-1.44-2.846-.341-1.79-.297-4.29.348-7.432 1.288-6.27 4.772-14.152 10.325-21.97z" fill="#B200F8"/>
  <path fill-rule="evenodd" clip-rule="evenodd" d="M48.686 28.418c4.35 8.548 6.642 16.854 6.998 23.245.178 3.204-.144 5.684-.743 7.403-.588 1.688-1.318 2.339-1.842 2.605-.523.267-1.48.474-3.19-.044a13.252 13.252 0 01-2.277-.956 28.293 28.293 0 01-5.983 2.103c5.138 3.815 10.057 5.216 13.718 3.354 7.948-4.044 6.952-21.943-2.224-39.977C43.967 8.116 30.085-3.226 22.137.818c-3.548 1.805-5.313 6.37-5.365 12.476a28.555 28.555 0 015.318-3.586c.126-.683.286-1.293.473-1.829.588-1.687 1.317-2.338 1.841-2.605.524-.266 1.48-.473 3.19.045 1.743.528 3.937 1.728 6.422 3.758 4.957 4.05 10.321 10.793 14.67 19.341z" fill="#F96216"/>
</svg>
