<svg id="Layer_1" data-name="Layer 1" xmlns="http://www.w3.org/2000/svg" xmlns:xlink="http://www.w3.org/1999/xlink" viewBox="0 0 243 112">
  <defs>
    <style>
      @import url(https://fonts.googleapis.com/css2?family=Source+Code+Pro:ital,wght@0,200;0,400;0,600;0,700;1,200;1,400;1,600;1,700&amp;family=Source+Sans+Pro:ital,wght@0,200;0,400;0,600;0,700;1,200;1,400;1,600;1,700&amp;display=swap);

      .cls-1, .cls-13, .cls-3, .cls-5 {
        fill: none;
      }

      .cls-2 {
        clip-path: url(#clip-path);
      }

      .cls-3, .cls-5 {
        stroke: #a7a9ac;
      }

      .cls-3 {
        stroke-width: 0.4px;
      }

      .cls-4 {
        fill: #820dde;
      }

      .cls-13, .cls-5 {
        stroke-miterlimit: 10;
      }

      .cls-5 {
        stroke-width: 0.5px;
      }

      .cls-6 {
        clip-path: url(#clip-path-3);
      }

      .cls-7 {
        fill: #ff5543;
      }

      .cls-8 {
        fill: #a112ff;
      }

      .cls-9 {
        fill: #00cbec;
      }

      .cls-10, .cls-11 {
        font-size: 19.24px;
        fill: #fff;
      }

      .cls-10 {
        font-family: 'Source Sans Pro', sans-serif;
        font-weight: 700;
      }

      .cls-11 {
        font-family: 'Source Sans Pro', sans-serif;
      }

      .cls-12 {
        fill: #ed2e20;
      }

      .cls-13 {
        stroke: #fff;
      }
    </style>
    <clipPath id="clip-path">
      <rect class="cls-1" x="-518.85" y="-235.5" width="762.95" height="347.58"/>
    </clipPath>
    <clipPath id="clip-path-3">
      <rect class="cls-1" x="17.9" y="18.25" width="98.87" height="16.63"/>
    </clipPath>
  </defs>
  <rect class="cls-4" x="0.35" y="-0.5" width="242.8" height="112"/>
  <g class="cls-6">
    <path class="cls-7" d="M27.62,35.13a1.68,1.68,0,0,1-1.95-1.35L23.18,20.23a1.68,1.68,0,1,1,3.3-.6L29,33.18a1.69,1.69,0,0,1-1.35,2"/>
    <path class="cls-8" d="M21.13,32.82a1.68,1.68,0,0,1-1.39-2.93L30.23,21a1.67,1.67,0,0,1,2.17,2.55L21.91,32.45a1.61,1.61,0,0,1-.78.37"/>
    <path class="cls-9" d="M32.87,30.66a1.62,1.62,0,0,1-.87-.07L19,26a1.68,1.68,0,1,1,1.12-3.16l13,4.61a1.68,1.68,0,0,1-.25,3.23"/>
    <path d="M43.72,29a1,1,0,0,0-.35-.79,4.21,4.21,0,0,0-.9-.55c-.36-.17-.75-.34-1.17-.52a5.56,5.56,0,0,1-1.17-.65,3.34,3.34,0,0,1-.9-1,2.81,2.81,0,0,1-.35-1.47,3.24,3.24,0,0,1,.25-1.34,2.58,2.58,0,0,1,.74-.95A3.07,3.07,0,0,1,41,21.21,5.11,5.11,0,0,1,42.46,21a9.73,9.73,0,0,1,1.75.16,4.25,4.25,0,0,1,1.35.47l-.65,1.74a3.63,3.63,0,0,0-1-.38,5.46,5.46,0,0,0-1.44-.18,1.84,1.84,0,0,0-1.11.29.91.91,0,0,0-.39.77,1,1,0,0,0,.35.76,4.23,4.23,0,0,0,.9.57l1.17.53a6.08,6.08,0,0,1,1.17.66,3.43,3.43,0,0,1,.9,1,2.67,2.67,0,0,1,.35,1.42,3.46,3.46,0,0,1-.28,1.46,2.76,2.76,0,0,1-.79,1,3.37,3.37,0,0,1-1.23.6,5.65,5.65,0,0,1-1.58.2,8.62,8.62,0,0,1-2-.21,5.67,5.67,0,0,1-1.28-.43l.67-1.77c.11.06.26.12.43.19a6,6,0,0,0,.6.2c.23.06.46.11.71.15a4.9,4.9,0,0,0,.77.06A2.65,2.65,0,0,0,43.23,30a1,1,0,0,0,.49-.95"/>
    <path d="M46.68,28.07a4.29,4.29,0,0,1,.94-3,3.4,3.4,0,0,1,2.64-1,4,4,0,0,1,1.58.29,2.86,2.86,0,0,1,1.11.81,3.27,3.27,0,0,1,.66,1.27,5.66,5.66,0,0,1,.22,1.64,4.3,4.3,0,0,1-.93,3,3.34,3.34,0,0,1-2.64,1,3.88,3.88,0,0,1-1.58-.29A3,3,0,0,1,47.57,31a3.43,3.43,0,0,1-.67-1.27,5.61,5.61,0,0,1-.22-1.64m2,0a3.9,3.9,0,0,0,.1.93,2.58,2.58,0,0,0,.27.74,1.36,1.36,0,0,0,.48.5,1.42,1.42,0,0,0,.7.17,1.31,1.31,0,0,0,1.16-.56,3.29,3.29,0,0,0,.38-1.78,3.57,3.57,0,0,0-.35-1.69,1.24,1.24,0,0,0-1.19-.65,1.35,1.35,0,0,0-1.14.55,3,3,0,0,0-.41,1.79"/>
    <path d="M56.8,24.27v4.32A3,3,0,0,0,57,29.93a.87.87,0,0,0,.85.41,1.37,1.37,0,0,0,.94-.34,2,2,0,0,0,.55-.82V24.27h2v5.29a12.16,12.16,0,0,0,.06,1.22,7.74,7.74,0,0,0,.18,1.09H60.09l-.35-1.12h-.06a2.85,2.85,0,0,1-1,.95,2.73,2.73,0,0,1-1.47.38,3.35,3.35,0,0,1-1-.15,1.77,1.77,0,0,1-.76-.5,2.43,2.43,0,0,1-.46-.94A5.7,5.7,0,0,1,54.82,29V24.27Z"/>
    <path d="M67.08,26.13a2.56,2.56,0,0,0-.85-.17,1.33,1.33,0,0,0-1.36,1v4.91h-2v-7.6h1.53l.23,1h.06a2.13,2.13,0,0,1,.7-.87,1.82,1.82,0,0,1,1-.3,3.48,3.48,0,0,1,1.11.26Z"/>
    <path d="M73.48,31.4a3.55,3.55,0,0,1-1.11.51,5.33,5.33,0,0,1-1.33.17,3.59,3.59,0,0,1-1.54-.29,2.56,2.56,0,0,1-1-.81,3.15,3.15,0,0,1-.57-1.27,6.92,6.92,0,0,1-.18-1.64,4.53,4.53,0,0,1,.87-3,3.11,3.11,0,0,1,2.52-1,5.42,5.42,0,0,1,1.35.14,4.65,4.65,0,0,1,.91.35l-.47,1.61a3.88,3.88,0,0,0-.69-.26,3.1,3.1,0,0,0-.78-.09,1.5,1.5,0,0,0-1.25.54,2.81,2.81,0,0,0-.42,1.72,3.22,3.22,0,0,0,.11.9,2.19,2.19,0,0,0,.31.71,1.63,1.63,0,0,0,.56.48,1.69,1.69,0,0,0,.8.18,2.66,2.66,0,0,0,.85-.13,2.78,2.78,0,0,0,.62-.32Z"/>
    <path d="M80.43,31.22a4,4,0,0,1-1.24.61,5.34,5.34,0,0,1-1.66.25A3.21,3.21,0,0,1,74.84,31,4.57,4.57,0,0,1,74,28.07a4.22,4.22,0,0,1,1-3,3.54,3.54,0,0,1,2.68-1,4.28,4.28,0,0,1,1.13.15,2.64,2.64,0,0,1,1,.5,2.52,2.52,0,0,1,.68.95,3.52,3.52,0,0,1,.26,1.47,5.49,5.49,0,0,1,0,.68,7,7,0,0,1-.11.76H76a2.25,2.25,0,0,0,.5,1.45,1.9,1.9,0,0,0,1.45.48A3,3,0,0,0,79,30.31a3.14,3.14,0,0,0,.76-.38ZM77.6,25.64a1.37,1.37,0,0,0-1.14.47A2.24,2.24,0,0,0,76,27.34h2.82a1.92,1.92,0,0,0-.25-1.26,1.11,1.11,0,0,0-1-.44"/>
    <path d="M88.33,31.87a3.1,3.1,0,0,1-.89,2.44,3.72,3.72,0,0,1-2.51.78,7.74,7.74,0,0,1-1.72-.15,4.3,4.3,0,0,1-.95-.32l.41-1.56q.35.13.81.27a4.19,4.19,0,0,0,1.15.13A1.75,1.75,0,0,0,86,33a1.91,1.91,0,0,0,.37-1.26v-.48h-.06a2.21,2.21,0,0,1-1.88.71,2.65,2.65,0,0,1-2.2-.91,4.61,4.61,0,0,1-.72-2.86,4.38,4.38,0,0,1,1-3.08,3.64,3.64,0,0,1,2.82-1.05,10,10,0,0,1,1.74.14,7.22,7.22,0,0,1,1.25.32ZM85,30.41a1.31,1.31,0,0,0,.89-.26,1.59,1.59,0,0,0,.48-.77V26a3.11,3.11,0,0,0-1.17-.2,1.41,1.41,0,0,0-1.19.57,3.11,3.11,0,0,0-.42,1.82,3.18,3.18,0,0,0,.36,1.68,1.18,1.18,0,0,0,1,.58"/>
    <path d="M94.05,26.13A2.66,2.66,0,0,0,93.2,26a1.35,1.35,0,0,0-1.37,1v4.91h-2v-7.6h1.54l.23,1h.06a2,2,0,0,1,.7-.87,1.76,1.76,0,0,1,1-.3,2.85,2.85,0,0,1,.89.16Z"/>
    <path d="M95,24.65a5,5,0,0,1,1.25-.37A9.81,9.81,0,0,1,98,24.12a4.19,4.19,0,0,1,1.32.19,2.11,2.11,0,0,1,.84.54,2,2,0,0,1,.44.84,4.07,4.07,0,0,1,.13,1.09c0,.45,0,.89,0,1.34s0,.9,0,1.33,0,.86,0,1.27a4.5,4.5,0,0,0,.23,1.17H99.31L99,30.84h-.08a2.72,2.72,0,0,1-.84.81,2.53,2.53,0,0,1-1.39.34,2.61,2.61,0,0,1-1-.16,2,2,0,0,1-1.2-1.15,2.38,2.38,0,0,1-.17-.91,2.06,2.06,0,0,1,.32-1.17,2.2,2.2,0,0,1,.89-.78,4.52,4.52,0,0,1,1.4-.41,9.55,9.55,0,0,1,1.81-.07,1.86,1.86,0,0,0-.12-1.22c-.15-.25-.49-.37-1-.37a7,7,0,0,0-1.26.12,3.09,3.09,0,0,0-.89.25Zm2.31,5.72a1.48,1.48,0,0,0,.94-.27,1.82,1.82,0,0,0,.52-.57v-1a5.44,5.44,0,0,0-.9,0,3.33,3.33,0,0,0-.77.13,1.31,1.31,0,0,0-.53.31.69.69,0,0,0-.2.5.86.86,0,0,0,.25.66,1,1,0,0,0,.69.24"/>
    <path d="M102.21,24.27h1.44l.23.92h.06a2.53,2.53,0,0,1,.93-.86,2.93,2.93,0,0,1,1.32-.27,2.55,2.55,0,0,1,2.14.91,4.67,4.67,0,0,1,.71,2.9,6.37,6.37,0,0,1-.22,1.76,3.89,3.89,0,0,1-.68,1.33,3,3,0,0,1-1.09.83,3.51,3.51,0,0,1-1.49.29,3.31,3.31,0,0,1-.77-.07,2.14,2.14,0,0,1-.61-.22v3.12h-2Zm3.38,1.46a1.33,1.33,0,0,0-.9.29,1.83,1.83,0,0,0-.51.87v3.16a1.75,1.75,0,0,0,.46.26,1.78,1.78,0,0,0,.67.1,1.45,1.45,0,0,0,1.27-.6,3.46,3.46,0,0,0,.43-2,2.9,2.9,0,0,0-.34-1.55,1.17,1.17,0,0,0-1.08-.55"/>
    <path d="M114.8,31.87V27.55a2.61,2.61,0,0,0-.26-1.33,1,1,0,0,0-.94-.41,1.4,1.4,0,0,0-.92.34,1.61,1.61,0,0,0-.55.87v4.85h-2V21.24h2v3.88h.06a2.74,2.74,0,0,1,.89-.77,2.87,2.87,0,0,1,1.35-.29,3.13,3.13,0,0,1,1,.15,1.65,1.65,0,0,1,.74.5,2.33,2.33,0,0,1,.44.95,6.3,6.3,0,0,1,.14,1.48v4.73Z"/>
  </g>
  <text class="cls-10" transform="translate(16.19 68.44)">Universal</text>
  <text class="cls-10" transform="translate(97.13 68.43)"> </text>
  <text class="cls-11" transform="translate(16.19 87.67)">code search</text>
  <g class="cls-2">
    <path class="cls-12" d="M234,15.3a6,6,0,1,0-6-6,6,6,0,0,0,6,6"/>
  </g>
  <path class="cls-13" d="M237.52,12.7l-6.84-6.84m6.84,0-6.84,6.84"/>
</svg>
